<svg width="118" height="71" viewBox="0 0 118 71" fill="none" xmlns="http://www.w3.org/2000/svg">
<ellipse cx="89.5" cy="20.5" rx="21.5" ry="20.5" fill="#211F22"/>
<ellipse cx="36" cy="20.5" rx="17" ry="17.5" fill="#8DC641"/>
<circle cx="56" cy="20" r="15" fill="#1D75BC"/>
<ellipse cx="18.5" cy="20.5" rx="10.5" ry="11.5" fill="#FFCB2D"/>
<ellipse cx="69.5" cy="20" rx="10.5" ry="11" fill="#59412E"/>
<rect y="20" width="118" height="51" rx="5" fill="#211F22"/>
<path d="M32.8562 41.228C32.8562 41.0998 32.8746 40.9644 32.9115 40.8215C33.0369 40.3235 33.1825 39.8365 33.3485 39.3605C33.5181 38.8808 33.6712 38.4048 33.8076 37.9324C33.9441 37.46 34.0565 37.0627 34.1451 36.7405C34.2372 36.4146 34.3184 36.1363 34.3884 35.9056C34.4585 35.6713 34.523 35.4699 34.5821 35.3014C34.6411 35.133 34.7056 34.9664 34.7757 34.8016C34.8199 34.7027 34.8679 34.6002 34.9195 34.494C34.9748 34.3878 35.0338 34.2908 35.0965 34.2029C35.1592 34.1113 35.2237 34.0381 35.2901 33.9832C35.3602 33.9246 35.4321 33.8953 35.5058 33.8953C35.657 33.8953 35.7714 33.9209 35.8488 33.9722C35.9299 34.0198 35.9797 34.0637 35.9982 34.104L36.0479 34.3292C36.1033 34.3256 36.1752 34.3164 36.2637 34.3018C36.3522 34.2835 36.4407 34.2651 36.5292 34.2468C36.6214 34.2285 36.7062 34.2102 36.7837 34.1919C36.8611 34.1736 36.9201 34.1571 36.9607 34.1425C37.2041 34.0766 37.429 34.0198 37.6355 33.9722C37.842 33.9246 38.0375 33.8861 38.2219 33.8569C38.41 33.8239 38.5888 33.8001 38.7585 33.7855C38.9281 33.7708 39.0996 33.7635 39.2729 33.7635C39.4425 33.7635 39.5808 33.7726 39.6878 33.7909C39.7947 33.8093 39.8795 33.8349 39.9422 33.8678C40.0049 33.8971 40.0473 33.9338 40.0695 33.9777C40.0953 34.018 40.1082 34.0619 40.1082 34.1095C40.1082 34.1535 40.0953 34.2011 40.0695 34.2523C40.0473 34.2999 40.0086 34.3457 39.9533 34.3896C39.898 34.4336 39.8261 34.472 39.7376 34.505C39.649 34.5379 39.5384 34.5599 39.4057 34.5709C39.3725 34.5782 39.295 34.5929 39.1733 34.6148C39.0553 34.6332 38.9262 34.6551 38.7861 34.6808C38.646 34.7027 38.5132 34.7247 38.3878 34.7467C38.2624 34.7686 38.1758 34.7851 38.1278 34.7961H38.1334C38.1112 34.7998 38.0578 34.8144 37.973 34.84C37.8918 34.862 37.7923 34.8895 37.6742 34.9224C37.5562 34.9517 37.4272 34.9865 37.287 35.0268C37.1506 35.0671 37.0141 35.1073 36.8777 35.1476C36.7449 35.1842 36.6214 35.2209 36.5071 35.2575C36.3927 35.2904 36.3006 35.3179 36.2305 35.3399C36.0055 35.4278 35.8285 35.5449 35.6994 35.6914C35.5741 35.8342 35.4745 35.9953 35.4007 36.1748C35.386 36.2077 35.3639 36.2645 35.3344 36.345C35.3049 36.4219 35.2717 36.5116 35.2348 36.6142C35.2016 36.713 35.1647 36.8192 35.1242 36.9327C35.0836 37.0463 35.0449 37.1543 35.008 37.2568C34.9711 37.3593 34.9379 37.4527 34.9084 37.5369C34.8826 37.6212 34.8642 37.6834 34.8531 37.7237C34.842 37.7603 34.8347 37.7933 34.831 37.8226C34.8273 37.8518 34.8254 37.8738 34.8254 37.8885C34.8254 37.9104 34.831 37.9214 34.842 37.9214C34.8974 37.9214 35.0117 37.8976 35.185 37.85C35.362 37.7988 35.5667 37.7365 35.799 37.6633C36.035 37.59 36.2858 37.5113 36.5513 37.4271C36.8205 37.3429 37.0768 37.2641 37.3202 37.1909C37.5673 37.1177 37.7867 37.0572 37.9785 37.0096C38.1703 36.9584 38.3085 36.9327 38.3934 36.9327C38.5224 36.9327 38.6091 36.9547 38.6533 36.9987C38.6976 37.0389 38.7197 37.0847 38.7197 37.136C38.7197 37.2678 38.6718 37.3831 38.5759 37.482C38.4837 37.5809 38.3675 37.6669 38.2274 37.7402C38.1832 37.7621 38.1002 37.7951 37.9785 37.839C37.8605 37.8793 37.7314 37.9214 37.5913 37.9654C37.4548 38.0093 37.3239 38.0514 37.1985 38.0917C37.0731 38.132 36.9828 38.1613 36.9275 38.1796C36.5661 38.3187 36.2711 38.4341 36.0424 38.5256C35.8175 38.6135 35.6349 38.6867 35.4948 38.7453C35.3546 38.8002 35.2459 38.8424 35.1684 38.8717C35.0947 38.9009 35.0246 38.9266 34.9582 38.9485C34.8955 38.9669 34.8254 38.9852 34.748 39.0035C34.6706 39.0218 34.5636 39.0474 34.4272 39.0804C34.394 39.1573 34.3553 39.2744 34.311 39.4319C34.2667 39.5857 34.2243 39.7468 34.1838 39.9153C34.1432 40.08 34.1082 40.2338 34.0787 40.3766C34.0529 40.5194 34.04 40.6183 34.04 40.6732C34.04 40.7392 34.0492 40.7886 34.0676 40.8215C34.086 40.8508 34.1082 40.871 34.134 40.882C34.1598 40.8929 34.1856 40.8984 34.2114 40.8984C34.2372 40.8984 34.2575 40.8984 34.2723 40.8984C34.4493 40.8984 34.6613 40.8728 34.9084 40.8215C35.1592 40.7703 35.4063 40.7025 35.6497 40.6183C35.882 40.5378 36.0848 40.4499 36.2581 40.3547C36.4315 40.2595 36.5937 40.1716 36.7449 40.091C36.8998 40.0068 37.0492 39.9372 37.193 39.8823C37.3405 39.8237 37.5009 39.7926 37.6742 39.7889C37.7111 39.7889 37.7535 39.7926 37.8015 39.7999C37.8531 39.8072 37.901 39.8219 37.9453 39.8439C37.9896 39.8622 38.0246 39.8878 38.0504 39.9207C38.0799 39.9537 38.091 39.9958 38.0836 40.0471C38.0688 40.1533 38.0154 40.2576 37.9232 40.3602C37.831 40.4627 37.7148 40.5616 37.5747 40.6568C37.4345 40.752 37.2778 40.8435 37.1045 40.9314C36.9312 41.0193 36.7541 41.1035 36.5734 41.1841C36.3927 41.261 36.2157 41.3324 36.0424 41.3983C35.8691 41.4605 35.7142 41.5155 35.5777 41.5631C35.2385 41.6802 34.9084 41.7663 34.5876 41.8212C34.2667 41.8761 33.9791 41.9036 33.7246 41.9036C33.4444 41.9036 33.2286 41.8505 33.0774 41.7443C32.9299 41.6418 32.8562 41.4697 32.8562 41.228Z" fill="white"/>
<path d="M39.8039 39.2946C39.8039 39.0822 39.8297 38.8424 39.8814 38.575C39.933 38.3041 40.0234 38.0423 40.1524 37.7896C40.3294 37.4381 40.5267 37.0994 40.7443 36.7735C40.9619 36.4439 41.185 36.1418 41.4136 35.8672C41.6423 35.5889 41.8709 35.3435 42.0996 35.1312C42.3282 34.9151 42.5458 34.7467 42.7523 34.6258L42.7468 34.6313C42.8758 34.5508 43.0123 34.4665 43.1561 34.3787C43.2999 34.2908 43.4474 34.2102 43.5986 34.137C43.7498 34.0637 43.9029 34.0033 44.0578 33.9557C44.2127 33.9081 44.3657 33.8843 44.5169 33.8843C44.6718 33.8843 44.8193 33.9154 44.9594 33.9777C45.0996 34.0399 45.2213 34.126 45.3245 34.2358C45.4315 34.342 45.5144 34.4665 45.5734 34.6093C45.6361 34.7522 45.6675 34.9041 45.6675 35.0652C45.6675 35.1788 45.6601 35.2685 45.6454 35.3344C45.6343 35.3966 45.614 35.4442 45.5845 35.4772C45.5587 35.5101 45.5237 35.5303 45.4794 35.5376C45.4388 35.5449 45.3909 35.5486 45.3356 35.5486C45.2545 35.5486 45.1899 35.5321 45.142 35.4992C45.0977 35.4625 45.0608 35.4204 45.0313 35.3728C45.0055 35.3216 44.9852 35.2666 44.9705 35.208C44.9557 35.1458 44.9373 35.0909 44.9152 35.0433C44.8967 34.992 44.8709 34.9499 44.8377 34.9169C44.8082 34.8803 44.7658 34.862 44.7105 34.862C44.563 34.862 44.4026 34.895 44.2293 34.9609C44.0596 35.0268 43.8844 35.1147 43.7037 35.2245C43.5267 35.3344 43.3479 35.4607 43.1672 35.6035C42.9902 35.7427 42.8205 35.8855 42.6583 36.0319C42.496 36.1784 42.3448 36.3231 42.2047 36.4659C42.0682 36.6087 41.9502 36.7368 41.8506 36.8504C41.7031 37.0371 41.5685 37.2275 41.4468 37.4216C41.3251 37.612 41.22 37.8079 41.1315 38.0093C41.043 38.207 40.9748 38.4121 40.9269 38.6245C40.8789 38.8332 40.8549 39.0511 40.8549 39.2781C40.8549 39.4539 40.8789 39.6077 40.9269 39.7395C40.9785 39.8713 41.0338 39.9848 41.0928 40.08C41.1629 40.1899 41.2495 40.2668 41.3528 40.3107C41.4561 40.351 41.5796 40.3711 41.7234 40.3711C42.0369 40.3711 42.3264 40.3419 42.5919 40.2833C42.8574 40.2247 43.1119 40.1459 43.3553 40.0471C43.5986 39.9482 43.8365 39.831 44.0688 39.6955C44.3012 39.5601 44.5409 39.4154 44.788 39.2616H44.9318C44.9797 39.2616 45.0277 39.2744 45.0756 39.3001C45.1272 39.3257 45.1715 39.3587 45.2084 39.3989C45.2489 39.4392 45.2803 39.485 45.3024 39.5363C45.3282 39.5875 45.3411 39.6406 45.3411 39.6955C45.3411 39.8164 45.2932 39.9372 45.1973 40.0581C45.1014 40.1752 44.9779 40.2888 44.8267 40.3986C44.6792 40.5048 44.5114 40.6055 44.3233 40.7007C44.1352 40.7959 43.949 40.8801 43.7646 40.9534C43.5839 41.0266 43.4143 41.0889 43.2557 41.1401C43.0971 41.1914 42.9699 41.2262 42.874 41.2445C42.7929 41.2628 42.7136 41.2811 42.6361 41.2994C42.5624 41.3141 42.4739 41.3305 42.3706 41.3488C42.2674 41.3635 42.1438 41.3763 42 41.3873C41.8562 41.3946 41.6755 41.3983 41.4579 41.3983C41.3251 41.3983 41.2034 41.3781 41.0928 41.3379C40.9822 41.2939 40.8826 41.2445 40.7941 41.1896C40.7093 41.131 40.6355 41.0705 40.5728 41.0083C40.5138 40.946 40.4659 40.8929 40.429 40.849C40.2114 40.5963 40.0529 40.3473 39.9533 40.102C39.8537 39.8567 39.8039 39.5875 39.8039 39.2946Z" fill="white"/>
<path d="M46.5138 38.8387C46.5802 38.5641 46.6761 38.2839 46.8015 37.9983C46.9269 37.709 47.0744 37.4198 47.244 37.1305C47.4136 36.8412 47.6017 36.5574 47.8082 36.2791C48.0184 35.9972 48.2397 35.7262 48.472 35.4662C48.7081 35.2026 48.9496 34.9554 49.1967 34.7247C49.4474 34.4903 49.6982 34.2761 49.949 34.0821C50.067 34.0015 50.1758 33.9484 50.2754 33.9228C50.3749 33.8971 50.48 33.8843 50.5907 33.8843C50.7087 33.8843 50.8138 33.9026 50.906 33.9392C50.9982 33.9722 51.0903 34.0345 51.1825 34.126C51.212 34.159 51.2434 34.1882 51.2766 34.2139C51.3098 34.2395 51.3411 34.2523 51.3706 34.2523C51.378 34.2523 51.3872 34.245 51.3983 34.2304C51.4093 34.212 51.4204 34.1919 51.4315 34.1699C51.4462 34.148 51.4628 34.126 51.4813 34.104C51.4997 34.0784 51.5218 34.0601 51.5476 34.0491C51.6103 34.0198 51.6841 34.0015 51.7689 33.9942C51.8574 33.9832 51.9459 33.9777 52.0344 33.9777C52.2004 33.9777 52.3608 34.0088 52.5157 34.0711C52.6706 34.1297 52.807 34.2139 52.925 34.3237C53.2053 34.5837 53.4173 34.895 53.5612 35.2575C53.7087 35.62 53.7824 36.01 53.7824 36.4274C53.7824 36.8009 53.7271 37.2037 53.6165 37.6358C53.5206 38.0166 53.3823 38.3865 53.2016 38.7453C53.0246 39.1042 52.8144 39.4411 52.571 39.756C52.3313 40.0709 52.0621 40.3583 51.7634 40.6183C51.4683 40.8783 51.153 41.1017 50.8175 41.2884C50.4819 41.4752 50.1315 41.6198 49.7664 41.7223C49.4014 41.8285 49.0307 41.8816 48.6546 41.8816C48.3042 41.8816 47.9889 41.8285 47.7087 41.7223C47.4321 41.6161 47.1961 41.466 47.0006 41.2719C46.8088 41.0779 46.6613 40.8472 46.5581 40.5799C46.4585 40.3126 46.4087 40.016 46.4087 39.6901C46.4087 39.5509 46.4161 39.4118 46.4309 39.2726C46.4493 39.1298 46.477 38.9852 46.5138 38.8387ZM47.4487 39.2067C47.4081 39.3898 47.3878 39.5546 47.3878 39.701C47.3878 39.9061 47.4229 40.0874 47.4929 40.2448C47.5667 40.3986 47.6681 40.5286 47.7972 40.6348C47.9299 40.7373 48.0867 40.8161 48.2674 40.871C48.4518 40.9222 48.6527 40.9479 48.8703 40.9479C49.1285 40.9479 49.3903 40.9076 49.6558 40.827C49.925 40.7465 50.1868 40.6293 50.4413 40.4755C50.6958 40.3217 50.941 40.1368 51.177 39.9207C51.413 39.7047 51.6306 39.4594 51.8297 39.1847C52.0326 38.9101 52.2114 38.6117 52.3663 38.2894C52.5249 37.9672 52.6521 37.6248 52.748 37.2623C52.7849 37.1305 52.8107 36.9932 52.8254 36.8504C52.8439 36.7075 52.8531 36.5702 52.8531 36.4384C52.8531 36.226 52.8291 36.0228 52.7812 35.8287C52.7333 35.6346 52.654 35.4625 52.5433 35.3124C52.4327 35.1623 52.287 35.0433 52.1063 34.9554C51.9256 34.8638 51.7044 34.8181 51.4425 34.8181C51.4057 34.8181 51.3762 34.8345 51.354 34.8675C51.3356 34.8968 51.3153 34.9352 51.2932 34.9828C51.2747 35.0231 51.2526 35.0652 51.2268 35.1092C51.2047 35.1531 51.1733 35.1934 51.1328 35.23C51.0959 35.263 51.0479 35.2904 50.9889 35.3124C50.9336 35.3344 50.8636 35.3454 50.7787 35.3454C50.716 35.3454 50.6607 35.3325 50.6128 35.3069C50.5648 35.2776 50.5169 35.2392 50.469 35.1916C50.4468 35.1696 50.4284 35.1531 50.4136 35.1421C50.3989 35.1275 50.3823 35.1202 50.3639 35.1202C50.3307 35.1202 50.2864 35.1348 50.2311 35.1641C50.1795 35.1934 50.1242 35.2282 50.0651 35.2685C50.0098 35.3087 49.9545 35.3509 49.8992 35.3948C49.8476 35.4387 49.807 35.4772 49.7775 35.5101C49.5267 35.7665 49.276 36.0466 49.0252 36.3505C48.7781 36.6508 48.5495 36.962 48.3393 37.2843C48.1291 37.6065 47.9447 37.9324 47.7861 38.262C47.6312 38.5879 47.5187 38.9028 47.4487 39.2067Z" fill="white"/>
<path d="M55.2096 38.4817C55.2428 38.3389 55.2815 38.1814 55.3258 38.0093C55.3737 37.8335 55.4235 37.6523 55.4751 37.4655C55.5304 37.2788 55.5857 37.0902 55.6411 36.8998C55.6964 36.7094 55.7498 36.5263 55.8015 36.3505C55.8568 36.1748 55.9066 36.0118 55.9508 35.8617C55.9951 35.7079 56.0338 35.5779 56.067 35.4717C56.1371 35.2337 56.2034 34.9957 56.2661 34.7577C56.3288 34.516 56.3897 34.2633 56.4487 33.9997C56.5224 33.8569 56.622 33.7562 56.7474 33.6976C56.8728 33.6353 57.0092 33.6042 57.1567 33.6042C57.2747 33.6664 57.3669 33.7525 57.4333 33.8623C57.5034 33.9685 57.5384 34.0894 57.5384 34.2249C57.5384 34.3201 57.5218 34.4299 57.4886 34.5544C57.4591 34.6753 57.4204 34.8071 57.3725 34.9499C57.3245 35.089 57.271 35.2373 57.212 35.3948C57.153 35.5486 57.0959 35.7079 57.0406 35.8727C56.9373 36.1729 56.834 36.4732 56.7308 36.7735C56.6275 37.0737 56.5261 37.3905 56.4266 37.7237C56.4007 37.8116 56.3731 37.8995 56.3436 37.9873C56.3141 38.0752 56.2827 38.1704 56.2495 38.273C56.22 38.3755 56.1868 38.4908 56.15 38.619C56.1131 38.7435 56.0762 38.8881 56.0393 39.0529C55.9951 39.247 55.9564 39.4429 55.9232 39.6406C55.89 39.8347 55.8586 40.0306 55.8291 40.2283C55.7996 40.4261 55.7664 40.6256 55.7296 40.827C55.6927 41.0284 55.6484 41.2317 55.5968 41.4367C55.5784 41.51 55.5452 41.5759 55.4972 41.6345C55.453 41.6894 55.4014 41.737 55.3423 41.7773C55.2833 41.8175 55.2207 41.8487 55.1543 41.8706C55.0879 41.8926 55.0252 41.9036 54.9662 41.9036C54.9072 41.9036 54.85 41.8981 54.7947 41.8871C54.7431 41.8798 54.7025 41.8597 54.673 41.8267C54.6288 41.7791 54.5937 41.726 54.5679 41.6674C54.5421 41.6088 54.5292 41.5466 54.5292 41.4807C54.5292 41.4624 54.5292 41.4459 54.5292 41.4312C54.5329 41.4129 54.5366 41.3946 54.5403 41.3763L55.2096 38.4817Z" fill="white"/>
<path d="M58.429 38.8002C58.595 38.2949 58.7535 37.8097 58.9047 37.3447C59.0559 36.8796 59.1887 36.4494 59.303 36.0539C59.421 35.6584 59.5132 35.3087 59.5796 35.0048C59.6497 34.7009 59.6884 34.4592 59.6958 34.2798C59.74 34.1077 59.8175 33.9704 59.9281 33.8678C60.0424 33.7653 60.1733 33.714 60.3208 33.714C60.4093 33.714 60.4849 33.7342 60.5476 33.7745C60.6103 33.8147 60.6601 33.8678 60.697 33.9338C60.7376 33.9997 60.7671 34.0747 60.7855 34.159C60.8039 34.2395 60.8132 34.3219 60.8132 34.4061C60.8132 34.4684 60.8095 34.5251 60.8021 34.5764C60.7947 34.6277 60.7855 34.6771 60.7744 34.7247C60.6896 35.0616 60.5882 35.4094 60.4702 35.7683C60.3522 36.1272 60.2305 36.4915 60.1051 36.8613C59.9834 37.2275 59.8617 37.5955 59.74 37.9654C59.6183 38.3352 59.5095 38.6977 59.4136 39.0529L59.3141 39.4264C59.2624 39.6168 59.2182 39.7981 59.1813 39.9702C59.1444 40.1423 59.126 40.2814 59.126 40.3876C59.126 40.4462 59.1371 40.4938 59.1592 40.5304C59.1813 40.5634 59.2237 40.5799 59.2864 40.5799C59.4376 40.5799 59.6146 40.5561 59.8175 40.5085C60.0203 40.4572 60.2305 40.3968 60.4481 40.3272C60.6656 40.254 60.8814 40.1752 61.0953 40.091C61.3128 40.0031 61.512 39.9207 61.6927 39.8439C61.7886 39.8036 61.8697 39.7688 61.9361 39.7395C62.0061 39.7102 62.091 39.6754 62.1905 39.6351C62.2938 39.5912 62.4302 39.5344 62.5999 39.4649C62.7695 39.3953 63.0037 39.2982 63.3024 39.1737C63.354 39.1554 63.3983 39.1408 63.4352 39.1298C63.4757 39.1152 63.5126 39.1078 63.5458 39.1078C63.6048 39.1078 63.6546 39.1188 63.6951 39.1408C63.7394 39.1628 63.7726 39.1921 63.7947 39.2287C63.8205 39.2653 63.839 39.3074 63.85 39.355C63.8611 39.4026 63.8666 39.4502 63.8666 39.4978C63.8666 39.5784 63.8592 39.6498 63.8445 39.712C63.8334 39.7706 63.8205 39.8201 63.8058 39.8603C63.7615 39.9299 63.7044 39.994 63.6343 40.0526C63.5642 40.1075 63.4905 40.1569 63.413 40.2009C63.3356 40.2412 63.26 40.2759 63.1862 40.3052C63.1125 40.3345 63.0516 40.3565 63.0037 40.3711C62.9447 40.3931 62.8654 40.4224 62.7658 40.459C62.6699 40.4956 62.5648 40.5359 62.4505 40.5799C62.3362 40.6238 62.2182 40.6696 62.0965 40.7172C61.9748 40.7611 61.8605 40.8032 61.7535 40.8435C61.6466 40.8838 61.5507 40.9204 61.4659 40.9534C61.3848 40.9827 61.3276 41.0028 61.2944 41.0138C61.1358 41.0724 60.9588 41.1383 60.7634 41.2115C60.5716 41.2848 60.3798 41.3543 60.1881 41.4202C59.9963 41.4862 59.8138 41.5429 59.6404 41.5905C59.4708 41.6345 59.3288 41.6564 59.2145 41.6564C59.0744 41.6564 58.9637 41.6454 58.8826 41.6235C58.8052 41.6015 58.7351 41.5722 58.6724 41.5356C58.6097 41.4953 58.5452 41.4477 58.4788 41.3928C58.4161 41.3379 58.3313 41.2774 58.2243 41.2115C58.1285 41.1529 58.0602 41.0724 58.0197 40.9698C57.9791 40.8673 57.9588 40.7575 57.9588 40.6403C57.9588 40.5817 57.9625 40.514 57.9699 40.4371C57.9809 40.3602 57.9939 40.2796 58.0086 40.1954C58.0234 40.1112 58.0399 40.0288 58.0584 39.9482C58.0768 39.8677 58.0971 39.7962 58.1192 39.734L58.429 38.8002Z" fill="white"/>
<path d="M64.3755 41.4697C64.3755 41.4294 64.3811 41.3763 64.3921 41.3104C64.4069 41.2408 64.4235 41.1712 64.4419 41.1017C64.4604 41.0284 64.4788 40.9589 64.4972 40.8929C64.5194 40.827 64.536 40.7739 64.547 40.7337L66.7873 33.4339C66.8058 33.4083 66.8261 33.3863 66.8482 33.368C66.8666 33.3497 66.8906 33.3351 66.9201 33.3241C66.9533 33.3094 66.992 33.3021 67.0363 33.3021H67.1303C67.2114 33.3021 67.2797 33.3167 67.335 33.346C67.3903 33.3717 67.4345 33.4083 67.4677 33.4559C67.5009 33.4998 67.523 33.5529 67.5341 33.6152C67.5489 33.6738 67.5562 33.7378 67.5562 33.8074C67.5562 33.866 67.5507 33.9283 67.5396 33.9942C67.5323 34.0564 67.523 34.1187 67.512 34.1809C67.5009 34.2395 67.488 34.2944 67.4733 34.3457C67.4622 34.397 67.453 34.4372 67.4456 34.4665L66.295 38.3663L66.8205 38.3169C67.4069 38.1887 68.0043 38.0569 68.6128 37.9214C69.225 37.7823 69.8242 37.6486 70.4106 37.5205C70.4769 37.4875 70.536 37.4198 70.5876 37.3172C70.6392 37.2147 70.689 37.081 70.7369 36.9163C70.7886 36.7515 70.8439 36.5592 70.9029 36.3395C70.9619 36.1162 71.0338 35.869 71.1186 35.598L71.2348 35.219C71.2827 35.0359 71.3251 34.8492 71.362 34.6588C71.4026 34.4647 71.4505 34.2889 71.5058 34.1315C71.5612 33.974 71.6312 33.8459 71.716 33.747C71.8009 33.6445 71.9096 33.5932 72.0424 33.5932C72.2305 33.5932 72.3762 33.6536 72.4794 33.7745C72.5827 33.8916 72.6343 34.0399 72.6343 34.2194C72.6343 34.3329 72.59 34.5233 72.5015 34.7906C72.4167 35.0579 72.3098 35.3838 72.1807 35.7683C72.1328 35.9111 72.0811 36.0576 72.0258 36.2077C71.9705 36.3578 71.9189 36.5025 71.8709 36.6416C71.8267 36.7771 71.7898 36.9034 71.7603 37.0206C71.7308 37.1341 71.716 37.2257 71.716 37.2953C71.716 37.3612 71.7253 37.4271 71.7437 37.493C71.7621 37.5552 71.7714 37.623 71.7714 37.6962C71.7714 37.861 71.7271 37.9983 71.6386 38.1082C71.5501 38.218 71.4284 38.3297 71.2735 38.4432C71.2661 38.4725 71.2551 38.5183 71.2403 38.5805C71.2293 38.6428 71.2145 38.7069 71.1961 38.7728L71.1242 39.0529C71.0725 39.2543 71.0283 39.4557 70.9914 39.6571C70.9582 39.8585 70.9269 40.0581 70.8974 40.2558C70.8715 40.4535 70.842 40.6513 70.8088 40.849C70.7793 41.0467 70.7406 41.2426 70.6927 41.4367C70.6742 41.51 70.6411 41.5759 70.5931 41.6345C70.5489 41.6894 70.4954 41.737 70.4327 41.7773C70.3737 41.8175 70.311 41.8487 70.2446 41.8706C70.1782 41.8926 70.1155 41.9036 70.0565 41.9036C69.968 41.9036 69.8961 41.8835 69.8408 41.8432C69.7855 41.8029 69.7412 41.7553 69.708 41.7004C69.6785 41.6454 69.6583 41.5887 69.6472 41.5301C69.6361 41.4715 69.6306 41.4221 69.6306 41.3818C69.6306 41.3379 69.6361 41.2665 69.6472 41.1676C69.662 41.0651 69.6804 40.946 69.7025 40.8106C69.7246 40.6751 69.7505 40.5286 69.78 40.3711C69.8095 40.2137 69.839 40.0544 69.8685 39.8933C69.9385 39.5198 70.0197 39.1115 70.1119 38.6684H70.0731C69.9773 38.6684 69.874 38.6794 69.7634 38.7014C69.6527 38.7197 69.52 38.7472 69.3651 38.7838C69.295 38.8057 69.1899 38.835 69.0498 38.8717C68.9133 38.9083 68.7566 38.9504 68.5796 38.998C68.4026 39.0456 68.2108 39.0969 68.0043 39.1518C67.8015 39.2067 67.5986 39.2616 67.3958 39.3166L65.8967 39.723C65.8267 39.8658 65.7603 40.0214 65.6976 40.1899C65.6386 40.3547 65.5833 40.5231 65.5317 40.6952C65.48 40.8637 65.4321 41.0303 65.3878 41.195C65.3473 41.3598 65.3085 41.5155 65.2717 41.6619C65.2606 41.7022 65.2366 41.7461 65.1998 41.7937C65.1666 41.8413 65.126 41.8853 65.0781 41.9256C65.0338 41.9658 64.9859 41.9988 64.9342 42.0244C64.8863 42.0501 64.8402 42.0629 64.7959 42.0629C64.7148 42.0629 64.6466 42.0446 64.5913 42.008C64.5396 41.975 64.4972 41.9292 64.464 41.8706C64.4309 41.8157 64.4069 41.7516 64.3921 41.6784C64.3811 41.6088 64.3755 41.5393 64.3755 41.4697Z" fill="white"/>
<path d="M77.7566 41.6949C77.6792 41.6949 77.6109 41.6802 77.5519 41.6509C77.4929 41.6216 77.4431 41.5832 77.4026 41.5356C77.3657 41.488 77.3362 41.4331 77.3141 41.3708C77.2956 41.3086 77.2864 41.2463 77.2864 41.1841C77.2864 41.1291 77.3012 41.0541 77.3307 40.9589C77.3602 40.86 77.397 40.7501 77.4413 40.6293C77.4892 40.5085 77.5409 40.3821 77.5962 40.2503C77.6515 40.1185 77.705 39.9922 77.7566 39.8713C77.8082 39.7505 77.8525 39.6388 77.8894 39.5363C77.9262 39.4337 77.9521 39.3532 77.9668 39.2946C77.9816 39.2287 78 39.1499 78.0221 39.0584C78.0443 38.9669 78.0682 38.868 78.094 38.7618C78.1235 38.6519 78.1512 38.5384 78.177 38.4213C78.2065 38.3004 78.236 38.1796 78.2655 38.0587C78.2139 38.0697 78.1494 38.0807 78.0719 38.0917C77.9982 38.099 77.9189 38.1063 77.834 38.1137C77.7124 38.1246 77.5925 38.1411 77.4745 38.1631C77.3565 38.1851 77.2348 38.2107 77.1094 38.24C76.9877 38.2656 76.8605 38.2949 76.7277 38.3279C76.595 38.3572 76.453 38.3883 76.3018 38.4213C76.0805 38.4689 75.8592 38.522 75.638 38.5805C75.4167 38.6391 75.1862 38.6684 74.9465 38.6684C74.8728 38.6684 74.8045 38.6501 74.7419 38.6135C74.6792 38.5732 74.6091 38.5439 74.5317 38.5256C74.4579 38.6428 74.3878 38.7691 74.3214 38.9046C74.2551 39.0364 74.1942 39.1737 74.1389 39.3166C74.0836 39.4557 74.0338 39.5949 73.9895 39.734C73.9453 39.8695 73.9066 39.9976 73.8734 40.1185C73.8549 40.1844 73.8384 40.2704 73.8236 40.3766C73.8125 40.4792 73.8015 40.5854 73.7904 40.6952C73.7793 40.8014 73.7683 40.9039 73.7572 41.0028C73.7462 41.1017 73.7351 41.1804 73.724 41.239C73.713 41.2939 73.6908 41.3488 73.6577 41.4038C73.6245 41.455 73.5839 41.5026 73.536 41.5466C73.488 41.5905 73.4345 41.6253 73.3755 41.6509C73.3165 41.6802 73.2575 41.6949 73.1985 41.6949C73.0953 41.6949 73.0104 41.6656 72.9441 41.607C72.8814 41.5447 72.8297 41.4697 72.7892 41.3818C72.7523 41.2903 72.7265 41.1914 72.7117 41.0852C72.697 40.979 72.6896 40.882 72.6896 40.7941C72.6896 40.5707 72.7173 40.34 72.7726 40.102C72.8279 39.8603 72.9017 39.6168 72.9939 39.3715C73.0897 39.1225 73.2004 38.8735 73.3258 38.6245C73.4548 38.3718 73.5931 38.121 73.7406 37.872C73.8623 37.6486 74.0135 37.3905 74.1942 37.0975C74.3749 36.8046 74.5759 36.5043 74.7972 36.1967C75.0221 35.8855 75.2637 35.5815 75.5218 35.2849C75.7836 34.9883 76.0547 34.7247 76.335 34.494C76.6152 34.2596 76.9029 34.0711 77.1979 33.9283C77.4929 33.7855 77.7861 33.714 78.0774 33.714C78.3835 33.714 78.638 33.769 78.8408 33.8788C79.0473 33.9887 79.2114 34.137 79.3331 34.3237C79.4548 34.5105 79.5396 34.7284 79.5876 34.9774C79.6392 35.2264 79.665 35.49 79.665 35.7683C79.665 36.0136 79.6484 36.2663 79.6152 36.5263C79.5857 36.7863 79.547 37.0408 79.4991 37.2898C79.4548 37.5388 79.405 37.7786 79.3497 38.0093C79.2981 38.24 79.2502 38.4487 79.2059 38.6355L79.0123 39.3825C79.0049 39.4044 78.9902 39.4484 78.968 39.5143C78.9496 39.5802 78.9238 39.6608 78.8906 39.756C78.8611 39.8475 78.8261 39.9482 78.7855 40.0581C78.7486 40.1643 78.7099 40.2704 78.6693 40.3766C78.6325 40.4792 78.5956 40.5744 78.5587 40.6623C78.5255 40.7501 78.496 40.8215 78.4702 40.8765L78.4757 40.871C78.4499 40.9662 78.4222 41.0632 78.3927 41.1621C78.3632 41.261 78.3227 41.3507 78.271 41.4312C78.2194 41.5081 78.153 41.5722 78.0719 41.6235C77.9908 41.6711 77.8857 41.6949 77.7566 41.6949ZM78.0387 34.8181C77.8728 34.8181 77.7068 34.8529 77.5409 34.9224C77.3786 34.9883 77.2182 35.0762 77.0596 35.1861C76.901 35.2959 76.7462 35.4241 76.595 35.5706C76.4474 35.717 76.3055 35.8672 76.169 36.021C76.0363 36.1748 75.9109 36.3304 75.7929 36.4878C75.6749 36.6416 75.5679 36.7844 75.472 36.9163C75.4573 36.9382 75.437 36.9675 75.4112 37.0041C75.3891 37.0371 75.3651 37.0756 75.3393 37.1195C75.3171 37.1598 75.295 37.2037 75.2729 37.2513C75.2508 37.2953 75.2323 37.3355 75.2176 37.3722H75.7873C75.9939 37.3722 76.2299 37.3575 76.4954 37.3282C76.7609 37.2989 77.0227 37.2641 77.2809 37.2239C77.5427 37.1836 77.7824 37.1433 78 37.103C78.2176 37.0591 78.3817 37.0261 78.4923 37.0041C78.5071 36.9565 78.52 36.8925 78.531 36.8119C78.5458 36.7313 78.5587 36.6416 78.5698 36.5428C78.5808 36.4439 78.5882 36.3395 78.5919 36.2297C78.5993 36.1162 78.6029 36.0008 78.6029 35.8836C78.6029 35.7884 78.5993 35.6804 78.5919 35.5596C78.5845 35.4351 78.5624 35.3179 78.5255 35.208C78.4886 35.0982 78.4315 35.0067 78.354 34.9334C78.2803 34.8565 78.1752 34.8181 78.0387 34.8181Z" fill="white"/>
<path d="M80.6773 40.3657C80.8027 40.4096 80.9299 40.4609 81.059 40.5194C81.1918 40.578 81.3282 40.6348 81.4683 40.6897C81.6085 40.741 81.7541 40.7849 81.9053 40.8215C82.0602 40.8582 82.2243 40.8765 82.3977 40.8765C82.6005 40.8765 82.8052 40.8527 83.0117 40.8051C83.2182 40.7575 83.4192 40.6879 83.6146 40.5963C83.8138 40.5011 84.0037 40.3876 84.1844 40.2558C84.3651 40.1203 84.531 39.9647 84.6822 39.7889C84.8482 39.6022 84.9865 39.4337 85.0971 39.2836C85.2077 39.1298 85.2962 38.9943 85.3626 38.8771C85.4327 38.7563 85.4825 38.6538 85.512 38.5696C85.5415 38.4817 85.5562 38.4066 85.5562 38.3444C85.5562 38.2528 85.5249 38.1741 85.4622 38.1082C85.3995 38.0386 85.3147 37.9818 85.2077 37.9379C85.1045 37.894 84.9865 37.8628 84.8537 37.8445C84.721 37.8226 84.5827 37.8116 84.4388 37.8116C84.354 37.8116 84.2545 37.8152 84.1401 37.8226C84.0258 37.8262 83.9096 37.8317 83.7916 37.839C83.6736 37.8427 83.5593 37.8464 83.4487 37.85C83.338 37.8537 83.2422 37.8555 83.161 37.8555C83.0393 37.8555 82.9121 37.8427 82.7793 37.8171C82.6503 37.7878 82.523 37.742 82.3977 37.6797C82.2723 37.6175 82.1561 37.5333 82.0492 37.4271C81.9422 37.3209 81.8537 37.1891 81.7836 37.0316C81.7615 36.9803 81.7412 36.9199 81.7228 36.8504C81.7044 36.7808 81.6951 36.7057 81.6951 36.6252C81.6951 36.5373 81.7007 36.4549 81.7117 36.378C81.7265 36.2974 81.7431 36.2205 81.7615 36.1473C81.8132 35.9642 81.898 35.7793 82.016 35.5925C82.1377 35.4021 82.2815 35.2172 82.4474 35.0378C82.6171 34.8583 82.7996 34.6844 82.9951 34.516C83.1942 34.3475 83.397 34.1901 83.6036 34.0436C83.8138 33.8935 84.0184 33.7598 84.2176 33.6426C84.4204 33.5218 84.6085 33.4193 84.7818 33.3351C85.0252 33.2179 85.2723 33.1337 85.523 33.0824C85.7775 33.0275 86.0283 33 86.2754 33C86.4229 33 86.563 33.0201 86.6958 33.0604C86.8285 33.097 86.9447 33.152 87.0443 33.2252C87.1475 33.2984 87.2286 33.39 87.2876 33.4998C87.3466 33.606 87.3762 33.7287 87.3762 33.8678C87.3762 33.9484 87.3669 34.0161 87.3485 34.0711C87.3301 34.126 87.3061 34.1718 87.2766 34.2084C87.2471 34.2413 87.2139 34.2651 87.177 34.2798C87.1438 34.2944 87.1088 34.3018 87.0719 34.3018C86.9723 34.3018 86.8801 34.2908 86.7953 34.2688C86.7142 34.2468 86.6349 34.223 86.5575 34.1974C86.48 34.1681 86.4026 34.1425 86.3251 34.1205C86.2477 34.0949 86.1629 34.0821 86.0707 34.0821C85.7978 34.0821 85.5194 34.137 85.2354 34.2468C84.9551 34.353 84.6804 34.4903 84.4112 34.6588C84.1457 34.8236 83.8931 35.0085 83.6533 35.2135C83.4173 35.4186 83.2053 35.6182 83.0172 35.8122C82.9176 35.9148 82.8439 36.0173 82.7959 36.1198C82.7517 36.2224 82.7296 36.3194 82.7296 36.4109C82.7296 36.5464 82.7886 36.6526 82.9066 36.7295C83.0246 36.8064 83.1684 36.8449 83.338 36.8449C83.4376 36.8449 83.5501 36.843 83.6755 36.8394C83.8009 36.8357 83.9281 36.832 84.0572 36.8284C84.1899 36.8211 84.3171 36.8156 84.4388 36.8119C84.5642 36.8046 84.6749 36.8009 84.7707 36.8009C84.9994 36.8009 85.2188 36.8339 85.429 36.8998C85.6392 36.962 85.8254 37.0554 85.9877 37.1799C86.15 37.3044 86.279 37.46 86.3749 37.6468C86.4745 37.8299 86.5243 38.0404 86.5243 38.2784C86.5243 38.4249 86.5021 38.5732 86.4579 38.7233C86.4136 38.8735 86.3528 39.0254 86.2754 39.1792C86.1979 39.3294 86.1094 39.4795 86.0098 39.6296C85.9103 39.7761 85.8052 39.9207 85.6945 40.0636C85.4954 40.3199 85.2723 40.5616 85.0252 40.7886C84.7818 41.0156 84.5218 41.2134 84.2452 41.3818C83.9687 41.5502 83.6755 41.6839 83.3657 41.7828C83.0596 41.8816 82.7443 41.9311 82.4198 41.9311C82.2797 41.9311 82.1358 41.9182 81.9883 41.8926C81.8408 41.867 81.6951 41.8285 81.5513 41.7773C81.4075 41.7297 81.271 41.6692 81.142 41.596C81.0166 41.5191 80.906 41.4331 80.8101 41.3379C80.7142 41.2426 80.6368 41.1383 80.5777 41.0248C80.5224 40.9076 80.4948 40.7813 80.4948 40.6458C80.4948 40.5799 80.504 40.5176 80.5224 40.459C80.5446 40.3968 80.5962 40.3657 80.6773 40.3657Z" fill="white"/>
<path d="M15.1825 52.4181C15.3079 52.4621 15.4352 52.5133 15.5642 52.5719C15.697 52.6305 15.8334 52.6873 15.9736 52.7422C16.1137 52.7934 16.2594 52.8374 16.4106 52.874C16.5655 52.9106 16.7296 52.9289 16.9029 52.9289C17.1057 52.9289 17.3104 52.9051 17.5169 52.8575C17.7234 52.8099 17.9244 52.7404 18.1199 52.6488C18.319 52.5536 18.5089 52.4401 18.6896 52.3083C18.8703 52.1728 19.0363 52.0172 19.1875 51.8414C19.3534 51.6546 19.4917 51.4862 19.6023 51.3361C19.713 51.1823 19.8015 51.0468 19.8679 50.9296C19.9379 50.8088 19.9877 50.7062 20.0172 50.622C20.0467 50.5341 20.0615 50.4591 20.0615 50.3968C20.0615 50.3053 20.0301 50.2265 19.9674 50.1606C19.9047 50.0911 19.8199 50.0343 19.713 49.9904C19.6097 49.9464 19.4917 49.9153 19.3589 49.897C19.2262 49.875 19.0879 49.864 18.9441 49.864C18.8593 49.864 18.7597 49.8677 18.6454 49.875C18.531 49.8787 18.4149 49.8842 18.2969 49.8915C18.1789 49.8952 18.0645 49.8988 17.9539 49.9025C17.8433 49.9061 17.7474 49.908 17.6663 49.908C17.5446 49.908 17.4173 49.8952 17.2846 49.8695C17.1555 49.8402 17.0283 49.7945 16.9029 49.7322C16.7775 49.67 16.6613 49.5857 16.5544 49.4795C16.4474 49.3734 16.3589 49.2415 16.2889 49.0841C16.2667 49.0328 16.2465 48.9724 16.228 48.9028C16.2096 48.8332 16.2004 48.7582 16.2004 48.6776C16.2004 48.5897 16.2059 48.5073 16.217 48.4304C16.2317 48.3499 16.2483 48.273 16.2667 48.1998C16.3184 48.0167 16.4032 47.8317 16.5212 47.645C16.6429 47.4546 16.7867 47.2697 16.9527 47.0902C17.1223 46.9108 17.3049 46.7369 17.5003 46.5684C17.6994 46.4 17.9023 46.2425 18.1088 46.0961C18.319 45.9459 18.5237 45.8123 18.7228 45.6951C18.9256 45.5743 19.1137 45.4717 19.287 45.3875C19.5304 45.2703 19.7775 45.1861 20.0283 45.1349C20.2827 45.0799 20.5335 45.0525 20.7806 45.0525C20.9281 45.0525 21.0682 45.0726 21.201 45.1129C21.3337 45.1495 21.4499 45.2044 21.5495 45.2777C21.6527 45.3509 21.7339 45.4424 21.7929 45.5523C21.8519 45.6585 21.8814 45.7812 21.8814 45.9203C21.8814 46.0009 21.8722 46.0686 21.8537 46.1235C21.8353 46.1785 21.8113 46.2242 21.7818 46.2608C21.7523 46.2938 21.7191 46.3176 21.6822 46.3322C21.649 46.3469 21.614 46.3542 21.5771 46.3542C21.4776 46.3542 21.3854 46.3432 21.3006 46.3213C21.2194 46.2993 21.1401 46.2755 21.0627 46.2499C20.9852 46.2206 20.9078 46.1949 20.8304 46.173C20.7529 46.1473 20.6681 46.1345 20.5759 46.1345C20.303 46.1345 20.0246 46.1894 19.7406 46.2993C19.4604 46.4055 19.1856 46.5428 18.9164 46.7112C18.6509 46.876 18.3983 47.0609 18.1586 47.266C17.9226 47.4711 17.7105 47.6706 17.5224 47.8647C17.4229 47.9672 17.3491 48.0698 17.3012 48.1723C17.2569 48.2748 17.2348 48.3719 17.2348 48.4634C17.2348 48.5989 17.2938 48.7051 17.4118 48.782C17.5298 48.8589 17.6736 48.8973 17.8433 48.8973C17.9428 48.8973 18.0553 48.8955 18.1807 48.8918C18.3061 48.8882 18.4333 48.8845 18.5624 48.8808C18.6951 48.8735 18.8224 48.868 18.9441 48.8644C19.0695 48.857 19.1801 48.8534 19.276 48.8534C19.5046 48.8534 19.724 48.8863 19.9342 48.9522C20.1444 49.0145 20.3307 49.1079 20.4929 49.2324C20.6552 49.3569 20.7843 49.5125 20.8801 49.6992C20.9797 49.8823 21.0295 50.0929 21.0295 50.3309C21.0295 50.4774 21.0074 50.6257 20.9631 50.7758C20.9189 50.9259 20.858 51.0779 20.7806 51.2317C20.7031 51.3818 20.6146 51.532 20.5151 51.6821C20.4155 51.8286 20.3104 51.9732 20.1998 52.116C20.0006 52.3723 19.7775 52.614 19.5304 52.841C19.287 53.0681 19.027 53.2658 18.7505 53.4343C18.4739 53.6027 18.1807 53.7364 17.8709 53.8352C17.5648 53.9341 17.2495 53.9835 16.925 53.9835C16.7849 53.9835 16.6411 53.9707 16.4935 53.9451C16.346 53.9194 16.2004 53.881 16.0565 53.8297C15.9127 53.7821 15.7763 53.7217 15.6472 53.6485C15.5218 53.5716 15.4112 53.4855 15.3153 53.3903C15.2194 53.2951 15.142 53.1907 15.083 53.0772C15.0277 52.9601 15 52.8337 15 52.6982C15 52.6323 15.0092 52.5701 15.0277 52.5115C15.0498 52.4492 15.1014 52.4181 15.1825 52.4181Z" fill="white"/>
<path d="M22.7554 51.045C22.8365 50.6751 22.9232 50.3456 23.0154 50.0563C23.1112 49.7633 23.2053 49.4924 23.2975 49.2434C23.3897 48.9907 23.4763 48.7509 23.5575 48.5238C23.6423 48.2931 23.716 48.0551 23.7787 47.8098L23.8451 47.5461C23.8599 47.4802 23.8728 47.3978 23.8838 47.299C23.8949 47.2001 23.906 47.0976 23.917 46.9914C23.9318 46.8815 23.9502 46.7735 23.9723 46.6673C23.9945 46.5611 24.0258 46.4659 24.0664 46.3817C24.1106 46.2975 24.1659 46.2297 24.2323 46.1785C24.2987 46.1235 24.3835 46.0961 24.4868 46.0961C24.6011 46.0961 24.697 46.1162 24.7744 46.1565C24.8556 46.1968 24.9201 46.2499 24.968 46.3158C25.016 46.3817 25.051 46.4586 25.0731 46.5465C25.0953 46.6307 25.1063 46.7186 25.1063 46.8101C25.1063 46.887 25.1008 46.9639 25.0897 47.0408C25.0824 47.1177 25.0695 47.1891 25.051 47.255C25.0104 47.4198 24.9441 47.612 24.8519 47.8317C24.7597 48.0515 24.6583 48.295 24.5476 48.5623C24.437 48.8259 24.3245 49.1134 24.2102 49.4246C24.0959 49.7322 23.9945 50.0581 23.906 50.4023C23.8543 50.5964 23.8082 50.8088 23.7677 51.0395C23.7308 51.2701 23.7124 51.4789 23.7124 51.6656C23.7124 51.8158 23.7253 51.9586 23.7511 52.094C23.7769 52.2259 23.823 52.343 23.8894 52.4456C23.9557 52.5444 24.0443 52.6232 24.1549 52.6818C24.2692 52.7404 24.413 52.7696 24.5864 52.7696C24.7191 52.7696 24.8556 52.7587 24.9957 52.7367C25.1395 52.7147 25.3092 52.6616 25.5046 52.5774C25.7923 52.4492 26.0633 52.2845 26.3178 52.0831C26.5759 51.878 26.8138 51.6455 27.0313 51.3855C27.2526 51.1255 27.4554 50.8454 27.6398 50.5451C27.8279 50.2449 27.9975 49.9336 28.1487 49.6114C28.2999 49.2891 28.4327 48.9632 28.547 48.6337C28.665 48.3041 28.7646 47.98 28.8457 47.6615C28.8789 47.526 28.9047 47.3997 28.9232 47.2825C28.9416 47.1616 28.9545 47.039 28.9619 46.9145C28.973 46.79 28.9803 46.6563 28.984 46.5135C28.9914 46.3707 29.0025 46.2077 29.0172 46.0247C29.0283 45.8782 29.0688 45.7519 29.1389 45.6457C29.2127 45.5358 29.3233 45.4809 29.4708 45.4809C29.563 45.4809 29.6423 45.5175 29.7087 45.5907C29.7787 45.664 29.8359 45.7555 29.8801 45.8654C29.9244 45.9716 29.9576 46.0851 29.9797 46.2059C30.0018 46.3268 30.0129 46.4348 30.0129 46.53C30.0129 46.7131 29.9945 46.9108 29.9576 47.1232C29.9207 47.3356 29.8765 47.5388 29.8248 47.7329C29.7179 48.154 29.5888 48.5769 29.4376 49.0017C29.2901 49.4264 29.1131 49.8421 28.9066 50.2485C28.7001 50.655 28.4585 51.0504 28.1819 51.4349C27.909 51.8158 27.5937 52.1728 27.236 52.506C27.059 52.6708 26.8672 52.8337 26.6607 52.9948C26.4542 53.1523 26.2385 53.2951 26.0135 53.4233C25.7886 53.5514 25.5581 53.654 25.3221 53.7309C25.086 53.8114 24.8519 53.8517 24.6195 53.8517C24.284 53.8517 23.9926 53.8041 23.7455 53.7089C23.4985 53.6173 23.2919 53.4874 23.126 53.3189C22.9637 53.1505 22.842 52.9509 22.7609 52.7202C22.6798 52.4859 22.6392 52.2295 22.6392 51.9512C22.6392 51.8194 22.6503 51.6748 22.6724 51.5173C22.6945 51.3562 22.7222 51.1987 22.7554 51.045Z" fill="white"/>
<path d="M35.8045 51.2262C35.8045 51.4899 35.7253 51.7608 35.5667 52.0391C35.4118 52.3174 35.1629 52.5774 34.8199 52.8191C34.713 52.8923 34.5821 52.9729 34.4272 53.0608C34.276 53.145 34.11 53.231 33.9293 53.3189C33.7523 53.4068 33.5642 53.4928 33.3651 53.5771C33.1696 53.6576 32.9705 53.729 32.7677 53.7913C32.5685 53.8535 32.3731 53.903 32.1813 53.9396C31.9896 53.9799 31.8089 54 31.6392 54C31.5544 54 31.4806 53.9927 31.4179 53.978C31.3589 53.967 31.3036 53.9451 31.252 53.9121C31.2004 53.8792 31.1506 53.8334 31.1026 53.7748C31.0547 53.7162 31.0031 53.643 30.9478 53.5551C30.8592 53.621 30.7652 53.6686 30.6656 53.6979C30.5698 53.7309 30.472 53.7473 30.3725 53.7473H30.2176C30.1881 53.7473 30.1604 53.7364 30.1346 53.7144C30.1088 53.6961 30.0848 53.6723 30.0627 53.643C30.0443 53.6137 30.0295 53.5826 30.0184 53.5496C30.0074 53.513 30.0018 53.4782 30.0018 53.4452C30.0018 53.2585 30.0277 53.0809 30.0793 52.9125C30.1346 52.7404 30.1973 52.5701 30.2674 52.4016C30.3706 52.0904 30.4757 51.7645 30.5827 51.4239C30.6896 51.0797 30.7929 50.7355 30.8924 50.3913C30.992 50.0471 31.086 49.7084 31.1746 49.3752C31.2667 49.0383 31.3516 48.7197 31.429 48.4195L31.5839 47.7823C31.5839 47.7713 31.5821 47.7402 31.5784 47.6889C31.5747 47.6377 31.5691 47.5827 31.5618 47.5242C31.5581 47.4619 31.5544 47.4051 31.5507 47.3539L31.5452 47.2825L31.5728 47.1891L31.5673 47.1946C31.5857 47.1287 31.6116 47.0536 31.6447 46.9694C31.6779 46.8852 31.7185 46.8064 31.7664 46.7332C31.8144 46.66 31.866 46.5996 31.9213 46.552C31.9803 46.5007 32.043 46.4751 32.1094 46.4751C32.1721 46.4751 32.2514 46.4806 32.3473 46.4915C32.4468 46.4989 32.5353 46.5025 32.6128 46.5025C32.6497 46.5025 32.6847 46.5007 32.7179 46.497C32.7548 46.4934 32.799 46.4842 32.8506 46.4696C32.906 46.4549 32.976 46.4348 33.0608 46.4091C33.1494 46.3799 33.2637 46.3414 33.4038 46.2938C33.614 46.2206 33.8058 46.1601 33.9791 46.1125C34.1561 46.0613 34.3221 46.021 34.477 45.9917C34.6355 45.9587 34.7886 45.9349 34.9361 45.9203C35.0836 45.9057 35.2348 45.8983 35.3897 45.8983C35.5851 45.8983 35.7732 45.9166 35.9539 45.9533C36.1383 45.9899 36.3006 46.0503 36.4407 46.1345C36.5845 46.2151 36.6988 46.3231 36.7837 46.4586C36.8685 46.5904 36.9109 46.7515 36.9109 46.9419C36.9109 47.2678 36.8242 47.5608 36.6509 47.8208C36.4776 48.0807 36.2323 48.3224 35.9152 48.5458C35.598 48.7692 35.2163 48.9779 34.7701 49.172C34.3276 49.3624 33.8334 49.5509 33.2876 49.7377C33.7228 49.8036 34.0971 49.8823 34.4106 49.9739C34.7277 50.0618 34.9896 50.1661 35.1961 50.287C35.4026 50.4078 35.5556 50.5451 35.6552 50.6989C35.7548 50.8527 35.8045 51.0285 35.8045 51.2262ZM33.9238 50.7209C33.8869 50.7136 33.8187 50.7007 33.7191 50.6824C33.6232 50.6641 33.5089 50.644 33.3762 50.622C33.2471 50.6 33.1069 50.5781 32.9557 50.5561C32.8045 50.5305 32.6607 50.5067 32.5243 50.4847C32.3878 50.4591 32.2624 50.4353 32.1481 50.4133C32.0375 50.3913 31.9564 50.373 31.9047 50.3584C31.7646 50.8088 31.6411 51.2409 31.5341 51.6546C31.4309 52.0648 31.3258 52.4785 31.2188 52.896L31.5839 52.9344C31.6687 52.9417 31.7425 52.9491 31.8052 52.9564C31.8715 52.9601 31.9103 52.9619 31.9213 52.9619C32.0688 52.9472 32.2311 52.9198 32.4081 52.8795C32.5851 52.8356 32.7677 52.7825 32.9557 52.7202C33.1475 52.6543 33.3411 52.5792 33.5366 52.495C33.732 52.4071 33.9238 52.3138 34.1119 52.2149C34.1819 52.1709 34.2557 52.1178 34.3331 52.0556C34.4106 51.9933 34.4806 51.9256 34.5433 51.8524C34.606 51.7755 34.6577 51.6949 34.6982 51.6107C34.7388 51.5265 34.7591 51.4404 34.7591 51.3525C34.7591 51.2061 34.6816 51.0797 34.5267 50.9735C34.3718 50.8637 34.1709 50.7795 33.9238 50.7209ZM32.1758 49.4466C32.3823 49.3807 32.5999 49.3038 32.8285 49.2159C33.0572 49.1244 33.2913 49.0255 33.531 48.9193C33.7744 48.8131 34.0197 48.7014 34.2667 48.5842C34.5175 48.4634 34.7664 48.3426 35.0135 48.2217H35.008C35.0965 48.1741 35.1832 48.1174 35.268 48.0515C35.3565 47.9819 35.4339 47.9086 35.5003 47.8317C35.5704 47.7512 35.6257 47.6688 35.6663 47.5846C35.7105 47.4967 35.7326 47.4106 35.7326 47.3264C35.7326 47.2715 35.7197 47.2166 35.6939 47.1616C35.6681 47.1067 35.6275 47.0573 35.5722 47.0133C35.5169 46.9694 35.4431 46.9346 35.351 46.909C35.2624 46.8833 35.1518 46.8705 35.0191 46.8705C34.8347 46.8705 34.6263 46.8943 34.394 46.9419C34.1616 46.9859 33.9367 47.0426 33.7191 47.1122C33.5015 47.1818 33.3079 47.2587 33.1383 47.3429C32.9687 47.4271 32.8562 47.5077 32.8009 47.5846C32.7898 47.6029 32.7732 47.6432 32.7511 47.7054C32.7326 47.7677 32.7105 47.8372 32.6847 47.9141C32.6589 47.9874 32.6312 48.0588 32.6017 48.1283C32.5759 48.1979 32.5501 48.2492 32.5243 48.2821C32.5169 48.3188 32.5022 48.3755 32.48 48.4524C32.4579 48.5257 32.4302 48.6135 32.397 48.7161C32.3675 48.8186 32.3325 48.9321 32.2919 49.0566C32.2551 49.1811 32.2163 49.3111 32.1758 49.4466Z" fill="white"/>
<path d="M39.3946 52.8026C39.5347 52.1947 39.6915 51.5814 39.8648 50.9626C40.0418 50.3437 40.2133 49.7304 40.3792 49.1225C40.4493 48.8699 40.5101 48.641 40.5618 48.4359C40.6171 48.2272 40.6632 48.0386 40.7001 47.8702C40.7369 47.7018 40.7646 47.5498 40.783 47.4143C40.8015 47.2752 40.8107 47.147 40.8107 47.0298C40.8107 47.0078 40.8107 46.984 40.8107 46.9584C40.8107 46.9291 40.8088 46.8943 40.8052 46.8541C40.7683 46.8541 40.6853 46.8742 40.5562 46.9145C40.4309 46.9548 40.2815 47.0078 40.1082 47.0738C39.9385 47.1397 39.7578 47.2147 39.5661 47.299C39.378 47.3795 39.2028 47.4619 39.0406 47.5461C38.9115 47.612 38.8027 47.667 38.7142 47.7109C38.6294 47.7548 38.5556 47.7896 38.4929 47.8153C38.4302 47.8372 38.3731 47.8537 38.3214 47.8647C38.2698 47.872 38.2163 47.8757 38.161 47.8757C38.0467 47.8757 37.9471 47.8317 37.8623 47.7439C37.7812 47.656 37.7406 47.5425 37.7406 47.4033C37.7406 47.3228 37.748 47.2532 37.7628 47.1946C37.7812 47.1323 37.807 47.0774 37.8402 47.0298C37.8771 46.9822 37.925 46.9383 37.984 46.898C38.043 46.8541 38.1149 46.8101 38.1998 46.7662C39.1328 46.2828 40.0768 45.9295 41.032 45.7061C41.9871 45.4791 42.9459 45.3655 43.9084 45.3655C43.9859 45.3655 44.0781 45.3674 44.185 45.371C44.2919 45.3747 44.4007 45.382 44.5114 45.393C44.6257 45.4003 44.7363 45.4131 44.8433 45.4315C44.9502 45.4461 45.0443 45.4644 45.1254 45.4864C45.2102 45.512 45.284 45.5651 45.3466 45.6457C45.4093 45.7262 45.4407 45.8123 45.4407 45.9038C45.4407 45.9771 45.4333 46.0485 45.4186 46.118C45.4075 46.1876 45.3854 46.248 45.3522 46.2993C45.319 46.3506 45.2747 46.3927 45.2194 46.4256C45.1678 46.4549 45.1033 46.4696 45.0258 46.4696C44.8931 46.4549 44.74 46.4366 44.5667 46.4146C44.397 46.3927 44.2256 46.3817 44.0522 46.3817C43.7056 46.3817 43.3589 46.3908 43.0123 46.4091C42.6693 46.4238 42.3171 46.4714 41.9557 46.552C41.9373 46.5593 41.9244 46.5794 41.917 46.6124C41.9133 46.6417 41.9096 46.6801 41.906 46.7277C41.8949 46.9255 41.8783 47.0994 41.8562 47.2495C41.834 47.3997 41.8027 47.5498 41.7621 47.6999C41.7253 47.8501 41.6792 48.013 41.6238 48.1888C41.5685 48.3609 41.504 48.5696 41.4302 48.8149C41.3565 49.0566 41.2698 49.3477 41.1703 49.6883C41.0744 50.0251 40.9674 50.4334 40.8494 50.9131L40.5839 51.9787C40.5212 52.224 40.4714 52.4456 40.4345 52.6433C40.4014 52.8374 40.3718 53.0296 40.346 53.22C40.3313 53.2823 40.2741 53.3409 40.1746 53.3958C40.0787 53.4507 39.9644 53.4782 39.8316 53.4782C39.7541 53.4782 39.6841 53.4581 39.6214 53.4178C39.5587 53.3738 39.5071 53.3189 39.4665 53.253C39.4259 53.1871 39.3983 53.1157 39.3835 53.0388C39.3688 52.9582 39.3725 52.8795 39.3946 52.8026Z" fill="white"/>
<path d="M44.2846 53.2805C44.2846 53.1523 44.303 53.0168 44.3399 52.874C44.4653 52.376 44.6109 51.889 44.7769 51.413C44.9465 50.9333 45.0996 50.4572 45.236 49.9849C45.3725 49.5125 45.4849 49.1152 45.5734 48.793C45.6656 48.4671 45.7468 48.1888 45.8168 47.9581C45.8869 47.7237 45.9514 47.5223 46.0104 47.3539C46.0695 47.1854 46.134 47.0188 46.2041 46.8541C46.2483 46.7552 46.2962 46.6527 46.3479 46.5465C46.4032 46.4403 46.4622 46.3432 46.5249 46.2554C46.5876 46.1638 46.6521 46.0906 46.7185 46.0356C46.7886 45.9771 46.8605 45.9478 46.9342 45.9478C47.0854 45.9478 47.1998 45.9734 47.2772 46.0247C47.3583 46.0723 47.4081 46.1162 47.4266 46.1565L47.4763 46.3817C47.5317 46.378 47.6036 46.3689 47.6921 46.3542C47.7806 46.3359 47.8691 46.3176 47.9576 46.2993C48.0498 46.281 48.1346 46.2627 48.212 46.2444C48.2895 46.2261 48.3485 46.2096 48.3891 46.1949C48.6325 46.129 48.8574 46.0723 49.0639 46.0247C49.2704 45.9771 49.4659 45.9386 49.6503 45.9093C49.8384 45.8764 50.0172 45.8526 50.1868 45.8379C50.3565 45.8233 50.528 45.8159 50.7013 45.8159C50.8709 45.8159 51.0092 45.8251 51.1162 45.8434C51.2231 45.8617 51.3079 45.8873 51.3706 45.9203C51.4333 45.9496 51.4757 45.9862 51.4978 46.0302C51.5237 46.0704 51.5366 46.1144 51.5366 46.162C51.5366 46.2059 51.5237 46.2535 51.4978 46.3048C51.4757 46.3524 51.437 46.3982 51.3817 46.4421C51.3264 46.486 51.2545 46.5245 51.1659 46.5574C51.0774 46.5904 50.9668 46.6124 50.834 46.6234C50.8009 46.6307 50.7234 46.6453 50.6017 46.6673C50.4837 46.6856 50.3546 46.7076 50.2145 46.7332C50.0744 46.7552 49.9416 46.7772 49.8162 46.7991C49.6908 46.8211 49.6042 46.8376 49.5562 46.8486H49.5618C49.5396 46.8522 49.4862 46.8669 49.4014 46.8925C49.3202 46.9145 49.2207 46.9419 49.1026 46.9749C48.9846 47.0042 48.8556 47.039 48.7154 47.0793C48.579 47.1195 48.4425 47.1598 48.3061 47.2001C48.1733 47.2367 48.0498 47.2733 47.9355 47.3099C47.8211 47.3429 47.7289 47.3704 47.6589 47.3923C47.4339 47.4802 47.2569 47.5974 47.1278 47.7439C47.0025 47.8867 46.9029 48.0478 46.8291 48.2272C46.8144 48.2602 46.7923 48.3169 46.7628 48.3975C46.7333 48.4744 46.7001 48.5641 46.6632 48.6666C46.63 48.7655 46.5931 48.8717 46.5525 48.9852C46.512 49.0987 46.4733 49.2067 46.4364 49.3093C46.3995 49.4118 46.3663 49.5052 46.3368 49.5894C46.311 49.6736 46.2926 49.7359 46.2815 49.7761C46.2704 49.8128 46.2631 49.8457 46.2594 49.875C46.2557 49.9043 46.2538 49.9263 46.2538 49.9409C46.2538 49.9629 46.2594 49.9739 46.2704 49.9739C46.3258 49.9739 46.4401 49.9501 46.6134 49.9025C46.7904 49.8512 46.9951 49.789 47.2274 49.7157C47.4634 49.6425 47.7142 49.5638 47.9797 49.4795C48.2489 49.3953 48.5052 49.3166 48.7486 49.2434C48.9957 49.1701 49.2151 49.1097 49.4069 49.0621C49.5986 49.0108 49.7369 48.9852 49.8218 48.9852C49.9508 48.9852 50.0375 49.0072 50.0817 49.0511C50.126 49.0914 50.1481 49.1372 50.1481 49.1884C50.1481 49.3203 50.1002 49.4356 50.0043 49.5345C49.9121 49.6333 49.7959 49.7194 49.6558 49.7926C49.6116 49.8146 49.5286 49.8476 49.4069 49.8915C49.2889 49.9318 49.1598 49.9739 49.0197 50.0178C48.8832 50.0618 48.7523 50.1039 48.6269 50.1442C48.5015 50.1844 48.4112 50.2137 48.3559 50.232C47.9945 50.3712 47.6994 50.4865 47.4708 50.5781C47.2459 50.666 47.0633 50.7392 46.9232 50.7978C46.783 50.8527 46.6742 50.8948 46.5968 50.9241C46.523 50.9534 46.453 50.979 46.3866 51.001C46.3239 51.0193 46.2538 51.0376 46.1764 51.0559C46.099 51.0742 45.992 51.0999 45.8556 51.1328C45.8224 51.2097 45.7836 51.3269 45.7394 51.4844C45.6951 51.6382 45.6527 51.7993 45.6122 51.9677C45.5716 52.1325 45.5366 52.2863 45.5071 52.4291C45.4813 52.5719 45.4683 52.6708 45.4683 52.7257C45.4683 52.7916 45.4776 52.841 45.496 52.874C45.5144 52.9033 45.5366 52.9234 45.5624 52.9344C45.5882 52.9454 45.614 52.9509 45.6398 52.9509C45.6656 52.9509 45.6859 52.9509 45.7007 52.9509C45.8777 52.9509 46.0897 52.9253 46.3368 52.874C46.5876 52.8227 46.8347 52.755 47.0781 52.6708C47.3104 52.5902 47.5132 52.5023 47.6865 52.4071C47.8599 52.3119 48.0221 52.224 48.1733 52.1435C48.3282 52.0593 48.4776 51.9897 48.6214 51.9348C48.7689 51.8762 48.9293 51.845 49.1026 51.8414C49.1395 51.8414 49.1819 51.845 49.2299 51.8524C49.2815 51.8597 49.3294 51.8743 49.3737 51.8963C49.4179 51.9146 49.453 51.9403 49.4788 51.9732C49.5083 52.0062 49.5194 52.0483 49.512 52.0995C49.4972 52.2057 49.4438 52.3101 49.3516 52.4126C49.2594 52.5152 49.1432 52.614 49.0031 52.7092C48.8629 52.8044 48.7062 52.896 48.5329 52.9839C48.3596 53.0717 48.1825 53.156 48.0018 53.2365C47.8211 53.3134 47.6441 53.3848 47.4708 53.4507C47.2975 53.513 47.1426 53.5679 47.0061 53.6155C46.6669 53.7327 46.3368 53.8187 46.016 53.8737C45.6951 53.9286 45.4075 53.9561 45.153 53.9561C44.8728 53.9561 44.657 53.903 44.5058 53.7968C44.3583 53.6942 44.2846 53.5221 44.2846 53.2805Z" fill="white"/>
<path d="M51.2434 52.9948C51.4536 52.1563 51.6712 51.3287 51.8961 50.5122C52.1211 49.6919 52.3387 48.8625 52.5489 48.024C52.5747 47.9141 52.6005 47.8098 52.6263 47.7109C52.6521 47.612 52.6761 47.5132 52.6982 47.4143C52.7203 47.3154 52.7369 47.2166 52.748 47.1177C52.7628 47.0152 52.7701 46.909 52.7701 46.7991C52.7701 46.7149 52.7646 46.638 52.7535 46.5684C52.7425 46.4989 52.7369 46.4201 52.7369 46.3322C52.7369 46.248 52.748 46.1583 52.7701 46.0631C52.8254 45.8397 52.9029 45.6731 53.0025 45.5633C53.1057 45.4534 53.2606 45.3985 53.4671 45.3985C53.5519 45.3985 53.6331 45.4077 53.7105 45.426C53.7916 45.4406 53.8709 45.4589 53.9484 45.4809C54.0332 45.5065 54.1199 45.5285 54.2084 45.5468C54.3006 45.5651 54.3927 45.5743 54.4849 45.5743C54.5587 45.5743 54.6306 45.5706 54.7007 45.5633C54.7707 45.556 54.85 45.5486 54.9385 45.5413C55.0307 45.534 55.1377 45.5267 55.2594 45.5193C55.3848 45.512 55.5415 45.5084 55.7296 45.5084C55.8328 45.5084 55.9545 45.512 56.0947 45.5193C56.2348 45.5267 56.3805 45.5431 56.5317 45.5688C56.6829 45.5944 56.8359 45.6329 56.9908 45.6841C57.1457 45.7317 57.2895 45.7976 57.4222 45.8819C57.5587 45.9661 57.6785 46.0704 57.7818 46.1949C57.8851 46.3158 57.9625 46.4622 58.0141 46.6343C58.0399 46.7186 58.0565 46.7955 58.0639 46.865C58.075 46.9346 58.0805 47.0024 58.0805 47.0683C58.0805 47.2916 58.0234 47.5113 57.909 47.7274C57.78 47.9727 57.6048 48.2034 57.3835 48.4195C57.1659 48.6318 56.9115 48.8332 56.6202 49.0237C56.5058 49.1005 56.3731 49.1811 56.2219 49.2653C56.0707 49.3459 55.9213 49.4246 55.7738 49.5015C55.63 49.5747 55.4991 49.6425 55.3811 49.7047C55.2667 49.767 55.1875 49.8146 55.1432 49.8476C55.2723 49.9098 55.4014 49.9757 55.5304 50.0453C55.6595 50.1112 55.7904 50.1918 55.9232 50.287C56.0596 50.3822 56.1961 50.4975 56.3325 50.633C56.4726 50.7685 56.6165 50.9351 56.764 51.1328C56.9152 51.3269 57.0701 51.5576 57.2286 51.8249C57.3909 52.0922 57.5587 52.4071 57.732 52.7696C57.7763 52.8575 57.7984 52.9509 57.7984 53.0498C57.7984 53.1267 57.7818 53.2036 57.7486 53.2805C57.7191 53.3574 57.6767 53.4269 57.6214 53.4892C57.5698 53.5514 57.5071 53.6027 57.4333 53.643C57.3596 53.6796 57.2803 53.6979 57.1955 53.6979C57.0664 53.6979 56.9594 53.6503 56.8746 53.5551C56.7898 53.4599 56.7087 53.3354 56.6312 53.1816C56.5538 53.0278 56.4726 52.8539 56.3878 52.6598C56.3067 52.4657 56.2053 52.2698 56.0836 52.0721C55.9508 51.8597 55.8033 51.6583 55.6411 51.4679C55.4825 51.2775 55.3128 51.1127 55.1321 50.9735C54.9514 50.8344 54.7652 50.7245 54.5734 50.644C54.3817 50.5598 54.1899 50.5177 53.9982 50.5177H53.9152C53.8009 50.5177 53.6976 50.5286 53.6054 50.5506C53.5169 50.5689 53.4302 50.5854 53.3454 50.6C53.2311 50.5598 53.1481 50.4939 53.0965 50.4023C53.0449 50.3108 53.0191 50.2082 53.0191 50.0947V50.0178L52.5765 51.748C52.5618 51.8029 52.5415 51.878 52.5157 51.9732C52.4899 52.0684 52.4604 52.1728 52.4272 52.2863C52.394 52.3998 52.3589 52.5188 52.3221 52.6433C52.2889 52.7678 52.2557 52.885 52.2225 52.9948C52.193 53.1047 52.1653 53.2036 52.1395 53.2914C52.1174 53.3793 52.1008 53.4452 52.0897 53.4892C52.0381 53.5807 51.9717 53.6521 51.8906 53.7034C51.8132 53.7583 51.7283 53.7858 51.6361 53.7858C51.4739 53.7858 51.3614 53.7382 51.2987 53.643C51.236 53.5441 51.2047 53.4306 51.2047 53.3024C51.2047 53.2512 51.2084 53.1999 51.2157 53.1486C51.2231 53.0937 51.2323 53.0424 51.2434 52.9948ZM53.9594 46.7991C53.9373 46.8724 53.9041 46.9786 53.8599 47.1177C53.8193 47.2568 53.7732 47.4143 53.7216 47.5901C53.6699 47.7658 53.6146 47.9544 53.5556 48.1558C53.4966 48.3572 53.4376 48.5604 53.3786 48.7655C53.3196 48.9669 53.2624 49.1628 53.2071 49.3532C53.1518 49.5436 53.102 49.7139 53.0578 49.864C53.1315 49.7688 53.2422 49.6846 53.3897 49.6114C53.5372 49.5345 53.7031 49.4631 53.8875 49.3972C54.0313 49.3459 54.2084 49.2745 54.4186 49.1829C54.6288 49.0877 54.8482 48.9797 55.0768 48.8589C55.3092 48.738 55.5396 48.608 55.7683 48.4689C56.0006 48.3261 56.2071 48.1814 56.3878 48.035C56.5722 47.8848 56.7216 47.7365 56.8359 47.5901C56.9502 47.4399 57.0074 47.2953 57.0074 47.1561C57.0074 47.0207 56.9594 46.9145 56.8636 46.8376C56.7677 46.757 56.6478 46.6966 56.504 46.6563C56.3602 46.616 56.2016 46.5904 56.0283 46.5794C55.8586 46.5648 55.7001 46.5574 55.5525 46.5574C55.287 46.5574 55.0215 46.5739 54.756 46.6069C54.4905 46.6398 54.225 46.7039 53.9594 46.7991Z" fill="white"/>
<path d="M59.1426 52.9948C59.3528 52.1563 59.5704 51.3287 59.7953 50.5122C60.0203 49.6919 60.2379 48.8625 60.4481 48.024C60.4739 47.9141 60.4997 47.8098 60.5255 47.7109C60.5513 47.612 60.5753 47.5132 60.5974 47.4143C60.6195 47.3154 60.6361 47.2166 60.6472 47.1177C60.662 47.0152 60.6693 46.909 60.6693 46.7991C60.6693 46.7149 60.6638 46.638 60.6527 46.5684C60.6417 46.4989 60.6361 46.4201 60.6361 46.3322C60.6361 46.248 60.6472 46.1583 60.6693 46.0631C60.7246 45.8397 60.8021 45.6731 60.9017 45.5633C61.0049 45.4534 61.1598 45.3985 61.3663 45.3985C61.4511 45.3985 61.5323 45.4077 61.6097 45.426C61.6908 45.4406 61.7701 45.4589 61.8476 45.4809C61.9324 45.5065 62.0191 45.5285 62.1076 45.5468C62.1998 45.5651 62.2919 45.5743 62.3841 45.5743C62.4579 45.5743 62.5298 45.5706 62.5999 45.5633C62.6699 45.556 62.7492 45.5486 62.8377 45.5413C62.9299 45.534 63.0369 45.5267 63.1586 45.5193C63.284 45.512 63.4407 45.5084 63.6288 45.5084C63.732 45.5084 63.8537 45.512 63.9939 45.5193C64.134 45.5267 64.2797 45.5431 64.4309 45.5688C64.5821 45.5944 64.7351 45.6329 64.89 45.6841C65.0449 45.7317 65.1887 45.7976 65.3214 45.8819C65.4579 45.9661 65.5777 46.0704 65.681 46.1949C65.7843 46.3158 65.8617 46.4622 65.9133 46.6343C65.9392 46.7186 65.9557 46.7955 65.9631 46.865C65.9742 46.9346 65.9797 47.0024 65.9797 47.0683C65.9797 47.2916 65.9226 47.5113 65.8082 47.7274C65.6792 47.9727 65.504 48.2034 65.2827 48.4195C65.0651 48.6318 64.8107 48.8332 64.5194 49.0237C64.405 49.1005 64.2723 49.1811 64.1211 49.2653C63.9699 49.3459 63.8205 49.4246 63.673 49.5015C63.5292 49.5747 63.3983 49.6425 63.2803 49.7047C63.1659 49.767 63.0867 49.8146 63.0424 49.8476C63.1715 49.9098 63.3006 49.9757 63.4296 50.0453C63.5587 50.1112 63.6896 50.1918 63.8224 50.287C63.9588 50.3822 64.0953 50.4975 64.2317 50.633C64.3718 50.7685 64.5157 50.9351 64.6632 51.1328C64.8144 51.3269 64.9693 51.5576 65.1278 51.8249C65.2901 52.0922 65.4579 52.4071 65.6312 52.7696C65.6755 52.8575 65.6976 52.9509 65.6976 53.0498C65.6976 53.1267 65.681 53.2036 65.6478 53.2805C65.6183 53.3574 65.5759 53.4269 65.5206 53.4892C65.469 53.5514 65.4063 53.6027 65.3325 53.643C65.2588 53.6796 65.1795 53.6979 65.0947 53.6979C64.9656 53.6979 64.8586 53.6503 64.7738 53.5551C64.689 53.4599 64.6079 53.3354 64.5304 53.1816C64.453 53.0278 64.3718 52.8539 64.287 52.6598C64.2059 52.4657 64.1045 52.2698 63.9828 52.0721C63.85 51.8597 63.7025 51.6583 63.5403 51.4679C63.3817 51.2775 63.212 51.1127 63.0313 50.9735C62.8506 50.8344 62.6644 50.7245 62.4726 50.644C62.2809 50.5598 62.0891 50.5177 61.8974 50.5177H61.8144C61.7001 50.5177 61.5968 50.5286 61.5046 50.5506C61.4161 50.5689 61.3294 50.5854 61.2446 50.6C61.1303 50.5598 61.0473 50.4939 60.9957 50.4023C60.9441 50.3108 60.9183 50.2082 60.9183 50.0947V50.0178L60.4757 51.748C60.461 51.8029 60.4407 51.878 60.4149 51.9732C60.3891 52.0684 60.3596 52.1728 60.3264 52.2863C60.2932 52.3998 60.2581 52.5188 60.2213 52.6433C60.1881 52.7678 60.1549 52.885 60.1217 52.9948C60.0922 53.1047 60.0645 53.2036 60.0387 53.2914C60.0166 53.3793 60 53.4452 59.9889 53.4892C59.9373 53.5807 59.8709 53.6521 59.7898 53.7034C59.7124 53.7583 59.6275 53.7858 59.5353 53.7858C59.3731 53.7858 59.2606 53.7382 59.1979 53.643C59.1352 53.5441 59.1039 53.4306 59.1039 53.3024C59.1039 53.2512 59.1076 53.1999 59.1149 53.1486C59.1223 53.0937 59.1315 53.0424 59.1426 52.9948ZM61.8586 46.7991C61.8365 46.8724 61.8033 46.9786 61.7591 47.1177C61.7185 47.2568 61.6724 47.4143 61.6208 47.5901C61.5691 47.7658 61.5138 47.9544 61.4548 48.1558C61.3958 48.3572 61.3368 48.5604 61.2778 48.7655C61.2188 48.9669 61.1616 49.1628 61.1063 49.3532C61.051 49.5436 61.0012 49.7139 60.957 49.864C61.0307 49.7688 61.1414 49.6846 61.2889 49.6114C61.4364 49.5345 61.6023 49.4631 61.7867 49.3972C61.9305 49.3459 62.1076 49.2745 62.3178 49.1829C62.528 49.0877 62.7474 48.9797 62.976 48.8589C63.2084 48.738 63.4388 48.608 63.6675 48.4689C63.8998 48.3261 64.1063 48.1814 64.287 48.035C64.4714 47.8848 64.6208 47.7365 64.7351 47.5901C64.8494 47.4399 64.9066 47.2953 64.9066 47.1561C64.9066 47.0207 64.8586 46.9145 64.7628 46.8376C64.6669 46.757 64.547 46.6966 64.4032 46.6563C64.2594 46.616 64.1008 46.5904 63.9275 46.5794C63.7578 46.5648 63.5993 46.5574 63.4518 46.5574C63.1862 46.5574 62.9207 46.5739 62.6552 46.6069C62.3897 46.6398 62.1242 46.7039 61.8586 46.7991Z" fill="white"/>
<path d="M71.7714 53.7473C71.6939 53.7473 71.6257 53.7327 71.5667 53.7034C71.5077 53.6741 71.4579 53.6357 71.4173 53.5881C71.3805 53.5404 71.351 53.4855 71.3288 53.4233C71.3104 53.361 71.3012 53.2988 71.3012 53.2365C71.3012 53.1816 71.3159 53.1065 71.3454 53.0113C71.3749 52.9125 71.4118 52.8026 71.4561 52.6818C71.504 52.5609 71.5556 52.4346 71.6109 52.3028C71.6663 52.1709 71.7197 52.0446 71.7714 51.9238C71.823 51.8029 71.8672 51.6913 71.9041 51.5887C71.941 51.4862 71.9668 51.4056 71.9816 51.347C71.9963 51.2811 72.0147 51.2024 72.0369 51.1109C72.059 51.0193 72.083 50.9205 72.1088 50.8143C72.1383 50.7044 72.1659 50.5909 72.1918 50.4737C72.2213 50.3529 72.2508 50.232 72.2803 50.1112C72.2286 50.1222 72.1641 50.1332 72.0867 50.1442C72.0129 50.1515 71.9336 50.1588 71.8488 50.1661C71.7271 50.1771 71.6073 50.1936 71.4892 50.2156C71.3712 50.2375 71.2495 50.2632 71.1242 50.2925C71.0025 50.3181 70.8752 50.3474 70.7425 50.3803C70.6097 50.4096 70.4677 50.4408 70.3165 50.4737C70.0953 50.5213 69.874 50.5744 69.6527 50.633C69.4315 50.6916 69.201 50.7209 68.9613 50.7209C68.8875 50.7209 68.8193 50.7026 68.7566 50.666C68.6939 50.6257 68.6238 50.5964 68.5464 50.5781C68.4726 50.6953 68.4026 50.8216 68.3362 50.9571C68.2698 51.0889 68.209 51.2262 68.1537 51.369C68.0983 51.5082 68.0486 51.6473 68.0043 51.7865C67.96 51.9219 67.9213 52.0501 67.8881 52.1709C67.8697 52.2369 67.8531 52.3229 67.8384 52.4291C67.8273 52.5316 67.8162 52.6378 67.8052 52.7477C67.7941 52.8539 67.783 52.9564 67.772 53.0553C67.7609 53.1541 67.7498 53.2329 67.7388 53.2914C67.7277 53.3464 67.7056 53.4013 67.6724 53.4562C67.6392 53.5075 67.5986 53.5551 67.5507 53.599C67.5028 53.643 67.4493 53.6778 67.3903 53.7034C67.3313 53.7327 67.2723 53.7473 67.2133 53.7473C67.11 53.7473 67.0252 53.718 66.9588 53.6595C66.8961 53.5972 66.8445 53.5221 66.8039 53.4343C66.7671 53.3427 66.7412 53.2438 66.7265 53.1377C66.7117 53.0315 66.7044 52.9344 66.7044 52.8465C66.7044 52.6232 66.732 52.3925 66.7873 52.1545C66.8427 51.9128 66.9164 51.6693 67.0086 51.4239C67.1045 51.1749 67.2151 50.9259 67.3405 50.6769C67.4696 50.4243 67.6079 50.1734 67.7554 49.9244C67.8771 49.7011 68.0283 49.4429 68.209 49.15C68.3897 48.857 68.5907 48.5568 68.8119 48.2492C69.0369 47.9379 69.2784 47.634 69.5366 47.3374C69.7984 47.0408 70.0695 46.7772 70.3497 46.5465C70.63 46.3121 70.9176 46.1235 71.2127 45.9807C71.5077 45.8379 71.8009 45.7665 72.0922 45.7665C72.3983 45.7665 72.6527 45.8214 72.8556 45.9313C73.0621 46.0411 73.2262 46.1894 73.3479 46.3762C73.4696 46.5629 73.5544 46.7808 73.6023 47.0298C73.654 47.2788 73.6798 47.5425 73.6798 47.8208C73.6798 48.0661 73.6632 48.3188 73.63 48.5787C73.6005 48.8387 73.5618 49.0932 73.5138 49.3422C73.4696 49.5912 73.4198 49.8311 73.3645 50.0618C73.3128 50.2925 73.2649 50.5012 73.2206 50.6879L73.027 51.4349C73.0197 51.4569 73.0049 51.5008 72.9828 51.5668C72.9643 51.6327 72.9385 51.7132 72.9053 51.8084C72.8758 51.9 72.8408 52.0007 72.8002 52.1105C72.7634 52.2167 72.7246 52.3229 72.6841 52.4291C72.6472 52.5316 72.6103 52.6268 72.5734 52.7147C72.5403 52.8026 72.5108 52.874 72.4849 52.9289L72.4905 52.9234C72.4647 53.0186 72.437 53.1157 72.4075 53.2146C72.378 53.3134 72.3374 53.4031 72.2858 53.4837C72.2342 53.5606 72.1678 53.6247 72.0867 53.6759C72.0055 53.7235 71.9004 53.7473 71.7714 53.7473ZM72.0535 46.8705C71.8875 46.8705 71.7216 46.9053 71.5556 46.9749C71.3934 47.0408 71.2329 47.1287 71.0744 47.2385C70.9158 47.3484 70.7609 47.4766 70.6097 47.623C70.4622 47.7695 70.3202 47.9196 70.1838 48.0734C70.051 48.2272 69.9256 48.3828 69.8076 48.5403C69.6896 48.6941 69.5827 48.8369 69.4868 48.9687C69.472 48.9907 69.4518 49.02 69.4259 49.0566C69.4038 49.0896 69.3798 49.128 69.354 49.172C69.3319 49.2122 69.3098 49.2562 69.2876 49.3038C69.2655 49.3477 69.2471 49.388 69.2323 49.4246H69.8021C70.0086 49.4246 70.2446 49.41 70.5101 49.3807C70.7757 49.3514 71.0375 49.3166 71.2956 49.2763C71.5575 49.236 71.7972 49.1958 72.0147 49.1555C72.2323 49.1115 72.3964 49.0786 72.5071 49.0566C72.5218 49.009 72.5347 48.9449 72.5458 48.8644C72.5605 48.7838 72.5734 48.6941 72.5845 48.5952C72.5956 48.4964 72.6029 48.392 72.6066 48.2821C72.614 48.1686 72.6177 48.0533 72.6177 47.9361C72.6177 47.8409 72.614 47.7329 72.6066 47.612C72.5993 47.4875 72.5771 47.3704 72.5403 47.2605C72.5034 47.1507 72.4462 47.0591 72.3688 46.9859C72.295 46.909 72.1899 46.8705 72.0535 46.8705ZM70.5433 44.5801C70.5544 44.5398 70.5618 44.5087 70.5655 44.4867C70.5728 44.4611 70.5802 44.4391 70.5876 44.4208C70.5986 44.4025 70.6116 44.386 70.6263 44.3714C70.6411 44.3531 70.6632 44.3293 70.6927 44.3L70.7425 44.256C70.9785 44.0729 71.2034 43.8935 71.4173 43.7177C71.6312 43.542 71.8433 43.3644 72.0535 43.185C72.378 42.8993 72.7191 42.6156 73.0768 42.3336C73.1358 42.3006 73.1838 42.2805 73.2206 42.2732C73.2575 42.2659 73.2944 42.2622 73.3313 42.2622H73.4309C73.5562 42.2622 73.6558 42.2842 73.7296 42.3281C73.807 42.372 73.866 42.4306 73.9066 42.5039C73.9471 42.5771 73.9748 42.6613 73.9895 42.7565C74.0043 42.8481 74.0117 42.9433 74.0117 43.0421C74.0117 43.0934 74.0098 43.1447 74.0061 43.1959C74.0061 43.2472 74.0043 43.2985 74.0006 43.3497V43.4047C73.9969 43.4413 73.9932 43.4742 73.9895 43.5035C73.9895 43.5328 73.9895 43.5603 73.9895 43.5859C73.9895 43.6042 73.9895 43.6225 73.9895 43.6408C73.9895 43.6592 73.9914 43.6756 73.9951 43.6903L74.0006 43.6793C74.0043 43.6939 74.0098 43.7232 74.0172 43.7672C74.0246 43.8075 74.032 43.8532 74.0393 43.9045C74.0504 43.9521 74.0596 43.9997 74.067 44.0473C74.0744 44.0912 74.0781 44.1224 74.0781 44.1407C74.0781 44.148 74.0781 44.1627 74.0781 44.1846C74.0817 44.2066 74.0854 44.2286 74.0891 44.2505C74.0928 44.2762 74.0965 44.3036 74.1002 44.3329C74.0891 44.3842 74.0651 44.4336 74.0283 44.4812C73.9951 44.5252 73.9545 44.5636 73.9066 44.5966C73.8623 44.6295 73.8125 44.657 73.7572 44.679C73.7019 44.6973 73.6466 44.7064 73.5913 44.7064C73.5323 44.7064 73.4862 44.6973 73.453 44.679C73.4235 44.6607 73.3884 44.6368 73.3479 44.6076L73.3313 44.5966L73.2815 44.5471C73.2409 44.4739 73.2077 44.3915 73.1819 44.3C73.1598 44.2048 73.1414 44.1077 73.1266 44.0089C73.1155 43.9063 73.1063 43.8038 73.099 43.7013C73.0953 43.5987 73.0934 43.4999 73.0934 43.4047L73.0215 43.4376L72.9109 43.509C72.8592 43.5456 72.78 43.6024 72.673 43.6793C72.5698 43.7562 72.4591 43.8368 72.3411 43.921C72.2268 44.0052 72.1162 44.0858 72.0092 44.1627C71.906 44.2395 71.8285 44.2981 71.7769 44.3384L71.4395 44.635C71.4136 44.657 71.3786 44.6808 71.3344 44.7064C71.2938 44.7284 71.2495 44.7485 71.2016 44.7668C71.1537 44.7852 71.1076 44.7998 71.0633 44.8108C71.0227 44.8218 70.9895 44.8273 70.9637 44.8273C70.9232 44.8273 70.8789 44.8254 70.831 44.8218C70.783 44.8144 70.7369 44.8053 70.6927 44.7943C70.6484 44.7797 70.6116 44.7595 70.5821 44.7339C70.5525 44.7083 70.5378 44.6735 70.5378 44.6295C70.5378 44.6076 70.5396 44.5911 70.5433 44.5801Z" fill="white"/>
<path d="M76.4567 47.0408C76.4788 46.9456 76.5065 46.8449 76.5396 46.7387C76.5728 46.6289 76.6171 46.53 76.6724 46.4421C76.7277 46.3506 76.7996 46.2755 76.8881 46.2169C76.9766 46.1547 77.0891 46.1235 77.2256 46.1235C77.3546 46.1235 77.469 46.1601 77.5685 46.2334C77.6718 46.303 77.764 46.3744 77.8451 46.4476C77.941 46.5098 78.0332 46.6362 78.1217 46.8266C78.2102 47.017 78.3006 47.2514 78.3927 47.5296C78.4886 47.8079 78.59 48.1229 78.697 48.4744C78.8076 48.8259 78.9275 49.1939 79.0565 49.5784C79.1893 49.9629 79.3368 50.3565 79.4991 50.7593C79.6613 51.1585 79.8457 51.5484 80.0522 51.9293C80.0854 51.9879 80.1242 52.0574 80.1684 52.138C80.2127 52.2149 80.2569 52.2881 80.3012 52.3577C80.3491 52.4273 80.3915 52.4859 80.4284 52.5335C80.469 52.5811 80.4985 52.6049 80.5169 52.6049C80.528 52.6049 80.5409 52.5774 80.5556 52.5225C80.5704 52.4675 80.587 52.4016 80.6054 52.3247C80.6238 52.2478 80.6423 52.1691 80.6607 52.0886C80.6828 52.008 80.7031 51.9421 80.7216 51.8908C80.7916 51.7224 80.8672 51.5301 80.9484 51.3141C81.0332 51.0944 81.1254 50.8307 81.225 50.5231C81.3282 50.2119 81.4407 49.8439 81.5624 49.4191C81.6841 48.9944 81.8187 48.4909 81.9662 47.9086C82.0031 47.7658 82.0418 47.6047 82.0824 47.4253C82.1266 47.2422 82.1672 47.0573 82.2041 46.8705C82.2446 46.6801 82.2797 46.4952 82.3092 46.3158C82.3387 46.1363 82.3589 45.9807 82.37 45.8489C82.37 45.8269 82.3718 45.7885 82.3755 45.7336C82.3792 45.6786 82.3848 45.6164 82.3921 45.5468C82.4032 45.4772 82.4161 45.4058 82.4309 45.3326C82.4456 45.2557 82.464 45.1861 82.4862 45.1239C82.512 45.0616 82.5433 45.0104 82.5802 44.9701C82.6171 44.9298 82.6613 44.9097 82.713 44.9097C82.7646 44.9097 82.8273 44.917 82.901 44.9316C82.9785 44.9463 83.0486 44.9682 83.1112 44.9975C83.1813 45.0927 83.244 45.2081 83.2993 45.3436C83.3583 45.4754 83.3878 45.6548 83.3878 45.8819C83.3878 46.0247 83.3731 46.1968 83.3436 46.3982C83.3141 46.5959 83.2754 46.8101 83.2274 47.0408C83.1832 47.2678 83.1315 47.5022 83.0725 47.7439C83.0172 47.9855 82.96 48.2181 82.901 48.4414C82.842 48.6611 82.7849 48.8644 82.7296 49.0511C82.6779 49.2342 82.6337 49.3862 82.5968 49.507C82.5304 49.7194 82.4604 49.9391 82.3866 50.1661C82.3165 50.3895 82.2372 50.6257 82.1487 50.8747C82.0639 51.12 81.9699 51.3818 81.8666 51.6601C81.7671 51.9348 81.6546 52.2295 81.5292 52.5444C81.4739 52.6873 81.4093 52.8301 81.3356 52.9729C81.2655 53.1157 81.1844 53.2457 81.0922 53.3629C81 53.4764 80.8949 53.5697 80.7769 53.643C80.6626 53.7126 80.5335 53.7473 80.3897 53.7473C80.3049 53.7473 80.2163 53.7345 80.1242 53.7089C80.0356 53.6869 79.96 53.6393 79.8974 53.5661C79.595 53.2182 79.3258 52.8246 79.0897 52.3852C78.8537 51.9421 78.6417 51.4807 78.4536 51.001C78.2692 50.5177 78.1051 50.0306 77.9613 49.54C77.8175 49.0456 77.6865 48.5733 77.5685 48.1229L77.5353 47.9965C77.5206 47.9453 77.5058 47.894 77.4911 47.8427C77.48 47.7878 77.4671 47.7384 77.4524 47.6944C77.4413 47.6505 77.4266 47.6157 77.4081 47.5901C77.3934 47.5608 77.3749 47.5461 77.3528 47.5461C77.3307 47.5461 77.303 47.5864 77.2698 47.667C77.2366 47.7475 77.2034 47.8391 77.1703 47.9416C77.1371 48.0405 77.1057 48.1375 77.0762 48.2327C77.0504 48.3279 77.0338 48.3883 77.0264 48.414C77.0006 48.5092 76.9619 48.6465 76.9103 48.8259C76.8586 49.0017 76.7996 49.2012 76.7332 49.4246C76.6706 49.648 76.6005 49.8842 76.523 50.1332C76.4493 50.3822 76.3774 50.6238 76.3073 50.8582C76.2372 51.0889 76.1709 51.3031 76.1082 51.5008C76.0455 51.6986 75.9939 51.8579 75.9533 51.9787C75.9201 52.0739 75.8795 52.1966 75.8316 52.3467C75.7836 52.4968 75.7357 52.6488 75.6878 52.8026C75.6398 52.9527 75.5956 53.09 75.555 53.2146C75.5144 53.3391 75.4886 53.4214 75.4776 53.4617C75.4333 53.6009 75.3669 53.7052 75.2784 53.7748C75.1936 53.848 75.1069 53.8847 75.0184 53.8847C74.9631 53.8847 74.9078 53.8645 74.8525 53.8242C74.7972 53.7876 74.7474 53.7418 74.7031 53.6869C74.6626 53.632 74.6275 53.5734 74.598 53.5112C74.5722 53.4452 74.5593 53.3867 74.5593 53.3354C74.5593 53.3061 74.5685 53.2603 74.587 53.1981C74.6054 53.1322 74.6349 53.0223 74.6755 52.8685L74.8193 52.3028L76.4567 47.0408Z" fill="white"/>
<path d="M83.6921 53.2805C83.6921 53.1523 83.7105 53.0168 83.7474 52.874C83.8728 52.376 84.0184 51.889 84.1844 51.413C84.354 50.9333 84.5071 50.4572 84.6435 49.9849C84.78 49.5125 84.8924 49.1152 84.9809 48.793C85.0731 48.4671 85.1543 48.1888 85.2243 47.9581C85.2944 47.7237 85.3589 47.5223 85.4179 47.3539C85.4769 47.1854 85.5415 47.0188 85.6116 46.8541C85.6558 46.7552 85.7037 46.6527 85.7554 46.5465C85.8107 46.4403 85.8697 46.3432 85.9324 46.2554C85.9951 46.1638 86.0596 46.0906 86.126 46.0356C86.1961 45.9771 86.268 45.9478 86.3417 45.9478C86.4929 45.9478 86.6073 45.9734 86.6847 46.0247C86.7658 46.0723 86.8156 46.1162 86.834 46.1565L86.8838 46.3817C86.9391 46.378 87.0111 46.3689 87.0996 46.3542C87.1881 46.3359 87.2766 46.3176 87.3651 46.2993C87.4573 46.281 87.5421 46.2627 87.6195 46.2444C87.697 46.2261 87.756 46.2096 87.7966 46.1949C88.0399 46.129 88.2649 46.0723 88.4714 46.0247C88.6779 45.9771 88.8734 45.9386 89.0578 45.9093C89.2458 45.8764 89.4247 45.8526 89.5943 45.8379C89.764 45.8233 89.9355 45.8159 90.1088 45.8159C90.2784 45.8159 90.4167 45.8251 90.5237 45.8434C90.6306 45.8617 90.7154 45.8873 90.7781 45.9203C90.8408 45.9496 90.8832 45.9862 90.9053 46.0302C90.9312 46.0704 90.9441 46.1144 90.9441 46.162C90.9441 46.2059 90.9312 46.2535 90.9053 46.3048C90.8832 46.3524 90.8445 46.3982 90.7892 46.4421C90.7339 46.486 90.662 46.5245 90.5734 46.5574C90.4849 46.5904 90.3743 46.6124 90.2415 46.6234C90.2084 46.6307 90.1309 46.6453 90.0092 46.6673C89.8912 46.6856 89.7621 46.7076 89.622 46.7332C89.4819 46.7552 89.3491 46.7772 89.2237 46.7991C89.0983 46.8211 89.0117 46.8376 88.9637 46.8486H88.9693C88.9471 46.8522 88.8937 46.8669 88.8088 46.8925C88.7277 46.9145 88.6281 46.9419 88.5101 46.9749C88.3921 47.0042 88.2631 47.039 88.1229 47.0793C87.9865 47.1195 87.85 47.1598 87.7136 47.2001C87.5808 47.2367 87.4573 47.2733 87.343 47.3099C87.2286 47.3429 87.1364 47.3704 87.0664 47.3923C86.8414 47.4802 86.6644 47.5974 86.5353 47.7439C86.41 47.8867 86.3104 48.0478 86.2366 48.2272C86.2219 48.2602 86.1998 48.3169 86.1702 48.3975C86.1407 48.4744 86.1076 48.5641 86.0707 48.6666C86.0375 48.7655 86.0006 48.8717 85.96 48.9852C85.9195 49.0987 85.8808 49.2067 85.8439 49.3093C85.807 49.4118 85.7738 49.5052 85.7443 49.5894C85.7185 49.6736 85.7001 49.7359 85.689 49.7761C85.6779 49.8128 85.6706 49.8457 85.6669 49.875C85.6632 49.9043 85.6613 49.9263 85.6613 49.9409C85.6613 49.9629 85.6669 49.9739 85.6779 49.9739C85.7332 49.9739 85.8476 49.9501 86.0209 49.9025C86.1979 49.8512 86.4026 49.789 86.6349 49.7157C86.8709 49.6425 87.1217 49.5638 87.3872 49.4795C87.6564 49.3953 87.9127 49.3166 88.1561 49.2434C88.4032 49.1701 88.6226 49.1097 88.8144 49.0621C89.0061 49.0108 89.1444 48.9852 89.2293 48.9852C89.3583 48.9852 89.445 49.0072 89.4892 49.0511C89.5335 49.0914 89.5556 49.1372 89.5556 49.1884C89.5556 49.3203 89.5077 49.4356 89.4118 49.5345C89.3196 49.6333 89.2034 49.7194 89.0633 49.7926C89.0191 49.8146 88.9361 49.8476 88.8144 49.8915C88.6964 49.9318 88.5673 49.9739 88.4272 50.0178C88.2907 50.0618 88.1598 50.1039 88.0344 50.1442C87.909 50.1844 87.8187 50.2137 87.7634 50.232C87.402 50.3712 87.1069 50.4865 86.8783 50.5781C86.6533 50.666 86.4708 50.7392 86.3307 50.7978C86.1905 50.8527 86.0817 50.8948 86.0043 50.9241C85.9305 50.9534 85.8605 50.979 85.7941 51.001C85.7314 51.0193 85.6613 51.0376 85.5839 51.0559C85.5065 51.0742 85.3995 51.0999 85.2631 51.1328C85.2299 51.2097 85.1911 51.3269 85.1469 51.4844C85.1026 51.6382 85.0602 51.7993 85.0197 51.9677C84.9791 52.1325 84.9441 52.2863 84.9146 52.4291C84.8888 52.5719 84.8758 52.6708 84.8758 52.7257C84.8758 52.7916 84.8851 52.841 84.9035 52.874C84.9219 52.9033 84.9441 52.9234 84.9699 52.9344C84.9957 52.9454 85.0215 52.9509 85.0473 52.9509C85.0731 52.9509 85.0934 52.9509 85.1082 52.9509C85.2852 52.9509 85.4972 52.9253 85.7443 52.874C85.9951 52.8227 86.2422 52.755 86.4856 52.6708C86.7179 52.5902 86.9207 52.5023 87.094 52.4071C87.2674 52.3119 87.4296 52.224 87.5808 52.1435C87.7357 52.0593 87.8851 51.9897 88.0289 51.9348C88.1764 51.8762 88.3368 51.845 88.5101 51.8414C88.547 51.8414 88.5894 51.845 88.6374 51.8524C88.689 51.8597 88.7369 51.8743 88.7812 51.8963C88.8254 51.9146 88.8605 51.9403 88.8863 51.9732C88.9158 52.0062 88.9269 52.0483 88.9195 52.0995C88.9047 52.2057 88.8513 52.3101 88.7591 52.4126C88.6669 52.5152 88.5507 52.614 88.4106 52.7092C88.2704 52.8044 88.1137 52.896 87.9404 52.9839C87.7671 53.0717 87.59 53.156 87.4093 53.2365C87.2286 53.3134 87.0516 53.3848 86.8783 53.4507C86.705 53.513 86.5501 53.5679 86.4136 53.6155C86.0744 53.7327 85.7443 53.8187 85.4235 53.8737C85.1026 53.9286 84.815 53.9561 84.5605 53.9561C84.2803 53.9561 84.0645 53.903 83.9133 53.7968C83.7658 53.6942 83.6921 53.5221 83.6921 53.2805Z" fill="white"/>
<path d="M95.3805 53.7473C95.303 53.7473 95.2348 53.7327 95.1758 53.7034C95.1168 53.6741 95.067 53.6357 95.0264 53.5881C94.9895 53.5404 94.96 53.4855 94.9379 53.4233C94.9195 53.361 94.9103 53.2988 94.9103 53.2365C94.9103 53.1816 94.925 53.1065 94.9545 53.0113C94.984 52.9125 95.0209 52.8026 95.0651 52.6818C95.1131 52.5609 95.1647 52.4346 95.22 52.3028C95.2754 52.1709 95.3288 52.0446 95.3805 51.9238C95.4321 51.8029 95.4763 51.6913 95.5132 51.5887C95.5501 51.4862 95.5759 51.4056 95.5907 51.347C95.6054 51.2811 95.6238 51.2024 95.646 51.1109C95.6681 51.0193 95.6921 50.9205 95.7179 50.8143C95.7474 50.7044 95.775 50.5909 95.8009 50.4737C95.8304 50.3529 95.8599 50.232 95.8894 50.1112C95.8377 50.1222 95.7732 50.1332 95.6958 50.1442C95.622 50.1515 95.5427 50.1588 95.4579 50.1661C95.3362 50.1771 95.2163 50.1936 95.0983 50.2156C94.9803 50.2375 94.8586 50.2632 94.7332 50.2925C94.6116 50.3181 94.4843 50.3474 94.3516 50.3803C94.2188 50.4096 94.0768 50.4408 93.9256 50.4737C93.7044 50.5213 93.4831 50.5744 93.2618 50.633C93.0406 50.6916 92.8101 50.7209 92.5704 50.7209C92.4966 50.7209 92.4284 50.7026 92.3657 50.666C92.303 50.6257 92.2329 50.5964 92.1555 50.5781C92.0817 50.6953 92.0117 50.8216 91.9453 50.9571C91.8789 51.0889 91.8181 51.2262 91.7628 51.369C91.7074 51.5082 91.6576 51.6473 91.6134 51.7865C91.5691 51.9219 91.5304 52.0501 91.4972 52.1709C91.4788 52.2369 91.4622 52.3229 91.4474 52.4291C91.4364 52.5316 91.4253 52.6378 91.4143 52.7477C91.4032 52.8539 91.3921 52.9564 91.3811 53.0553C91.37 53.1541 91.3589 53.2329 91.3479 53.2914C91.3368 53.3464 91.3147 53.4013 91.2815 53.4562C91.2483 53.5075 91.2077 53.5551 91.1598 53.599C91.1119 53.643 91.0584 53.6778 90.9994 53.7034C90.9404 53.7327 90.8814 53.7473 90.8224 53.7473C90.7191 53.7473 90.6343 53.718 90.5679 53.6595C90.5052 53.5972 90.4536 53.5221 90.413 53.4343C90.3762 53.3427 90.3503 53.2438 90.3356 53.1377C90.3208 53.0315 90.3135 52.9344 90.3135 52.8465C90.3135 52.6232 90.3411 52.3925 90.3964 52.1545C90.4517 51.9128 90.5255 51.6693 90.6177 51.4239C90.7136 51.1749 90.8242 50.9259 90.9496 50.6769C91.0787 50.4243 91.217 50.1734 91.3645 49.9244C91.4862 49.7011 91.6374 49.4429 91.8181 49.15C91.9988 48.857 92.1998 48.5568 92.421 48.2492C92.646 47.9379 92.8875 47.634 93.1457 47.3374C93.4075 47.0408 93.6785 46.7772 93.9588 46.5465C94.2391 46.3121 94.5267 46.1235 94.8218 45.9807C95.1168 45.8379 95.41 45.7665 95.7013 45.7665C96.0074 45.7665 96.2618 45.8214 96.4647 45.9313C96.6712 46.0411 96.8353 46.1894 96.957 46.3762C97.0787 46.5629 97.1635 46.7808 97.2114 47.0298C97.2631 47.2788 97.2889 47.5425 97.2889 47.8208C97.2889 48.0661 97.2723 48.3188 97.2391 48.5787C97.2096 48.8387 97.1709 49.0932 97.1229 49.3422C97.0787 49.5912 97.0289 49.8311 96.9736 50.0618C96.9219 50.2925 96.874 50.5012 96.8297 50.6879L96.6361 51.4349C96.6288 51.4569 96.614 51.5008 96.5919 51.5668C96.5734 51.6327 96.5476 51.7132 96.5144 51.8084C96.4849 51.9 96.4499 52.0007 96.4093 52.1105C96.3725 52.2167 96.3337 52.3229 96.2932 52.4291C96.2563 52.5316 96.2194 52.6268 96.1825 52.7147C96.1494 52.8026 96.1198 52.874 96.094 52.9289L96.0996 52.9234C96.0738 53.0186 96.0461 53.1157 96.0166 53.2146C95.9871 53.3134 95.9465 53.4031 95.8949 53.4837C95.8433 53.5606 95.7769 53.6247 95.6958 53.6759C95.6146 53.7235 95.5095 53.7473 95.3805 53.7473ZM95.6626 46.8705C95.4966 46.8705 95.3307 46.9053 95.1647 46.9749C95.0025 47.0408 94.842 47.1287 94.6835 47.2385C94.5249 47.3484 94.37 47.4766 94.2188 47.623C94.0713 47.7695 93.9293 47.9196 93.7929 48.0734C93.6601 48.2272 93.5347 48.3828 93.4167 48.5403C93.2987 48.6941 93.1918 48.8369 93.0959 48.9687C93.0811 48.9907 93.0608 49.02 93.035 49.0566C93.0129 49.0896 92.9889 49.128 92.9631 49.172C92.941 49.2122 92.9189 49.2562 92.8967 49.3038C92.8746 49.3477 92.8562 49.388 92.8414 49.4246H93.4112C93.6177 49.4246 93.8537 49.41 94.1192 49.3807C94.3848 49.3514 94.6466 49.3166 94.9047 49.2763C95.1666 49.236 95.4063 49.1958 95.6238 49.1555C95.8414 49.1115 96.0055 49.0786 96.1162 49.0566C96.1309 49.009 96.1438 48.9449 96.1549 48.8644C96.1696 48.7838 96.1825 48.6941 96.1936 48.5952C96.2047 48.4964 96.212 48.392 96.2157 48.2821C96.2231 48.1686 96.2268 48.0533 96.2268 47.9361C96.2268 47.8409 96.2231 47.7329 96.2157 47.612C96.2084 47.4875 96.1862 47.3704 96.1494 47.2605C96.1125 47.1507 96.0553 47.0591 95.9779 46.9859C95.9041 46.909 95.799 46.8705 95.6626 46.8705Z" fill="white"/>
<path d="M98.3012 52.4181C98.4265 52.4621 98.5538 52.5133 98.6828 52.5719C98.8156 52.6305 98.9521 52.6873 99.0922 52.7422C99.2323 52.7934 99.378 52.8374 99.5292 52.874C99.6841 52.9106 99.8482 52.9289 100.022 52.9289C100.224 52.9289 100.429 52.9051 100.636 52.8575C100.842 52.8099 101.043 52.7404 101.238 52.6488C101.438 52.5536 101.628 52.4401 101.808 52.3083C101.989 52.1728 102.155 52.0172 102.306 51.8414C102.472 51.6546 102.61 51.4862 102.721 51.3361C102.832 51.1823 102.92 51.0468 102.986 50.9296C103.057 50.8088 103.106 50.7062 103.136 50.622C103.165 50.5341 103.18 50.4591 103.18 50.3968C103.18 50.3053 103.149 50.2265 103.086 50.1606C103.023 50.0911 102.939 50.0343 102.832 49.9904C102.728 49.9464 102.61 49.9153 102.478 49.897C102.345 49.875 102.207 49.864 102.063 49.864C101.978 49.864 101.878 49.8677 101.764 49.875C101.65 49.8787 101.533 49.8842 101.415 49.8915C101.297 49.8952 101.183 49.8988 101.073 49.9025C100.962 49.9061 100.866 49.908 100.785 49.908C100.663 49.908 100.536 49.8952 100.403 49.8695C100.274 49.8402 100.147 49.7945 100.022 49.7322C99.8961 49.67 99.78 49.5857 99.673 49.4795C99.5661 49.3734 99.4776 49.2415 99.4075 49.0841C99.3854 49.0328 99.3651 48.9724 99.3466 48.9028C99.3282 48.8332 99.319 48.7582 99.319 48.6776C99.319 48.5897 99.3245 48.5073 99.3356 48.4304C99.3503 48.3499 99.3669 48.273 99.3854 48.1998C99.437 48.0167 99.5218 47.8317 99.6398 47.645C99.7615 47.4546 99.9053 47.2697 100.071 47.0902C100.241 46.9108 100.423 46.7369 100.619 46.5684C100.818 46.4 101.021 46.2425 101.227 46.0961C101.438 45.9459 101.642 45.8123 101.841 45.6951C102.044 45.5743 102.232 45.4717 102.406 45.3875C102.649 45.2703 102.896 45.1861 103.147 45.1349C103.401 45.0799 103.652 45.0525 103.899 45.0525C104.047 45.0525 104.187 45.0726 104.32 45.1129C104.452 45.1495 104.569 45.2044 104.668 45.2777C104.771 45.3509 104.852 45.4424 104.911 45.5523C104.97 45.6585 105 45.7812 105 45.9203C105 46.0009 104.991 46.0686 104.972 46.1235C104.954 46.1785 104.93 46.2242 104.9 46.2608C104.871 46.2938 104.838 46.3176 104.801 46.3322C104.768 46.3469 104.733 46.3542 104.696 46.3542C104.596 46.3542 104.504 46.3432 104.419 46.3213C104.338 46.2993 104.259 46.2755 104.181 46.2499C104.104 46.2206 104.026 46.1949 103.949 46.173C103.872 46.1473 103.787 46.1345 103.695 46.1345C103.422 46.1345 103.143 46.1894 102.859 46.2993C102.579 46.4055 102.304 46.5428 102.035 46.7112C101.77 46.876 101.517 47.0609 101.277 47.266C101.041 47.4711 100.829 47.6706 100.641 47.8647C100.541 47.9672 100.468 48.0698 100.42 48.1723C100.376 48.2748 100.353 48.3719 100.353 48.4634C100.353 48.5989 100.412 48.7051 100.53 48.782C100.648 48.8589 100.792 48.8973 100.962 48.8973C101.061 48.8973 101.174 48.8955 101.299 48.8918C101.425 48.8882 101.552 48.8845 101.681 48.8808C101.814 48.8735 101.941 48.868 102.063 48.8644C102.188 48.857 102.299 48.8534 102.395 48.8534C102.623 48.8534 102.843 48.8863 103.053 48.9522C103.263 49.0145 103.449 49.1079 103.612 49.2324C103.774 49.3569 103.903 49.5125 103.999 49.6992C104.098 49.8823 104.148 50.0929 104.148 50.3309C104.148 50.4774 104.126 50.6257 104.082 50.7758C104.037 50.9259 103.977 51.0779 103.899 51.2317C103.822 51.3818 103.733 51.532 103.634 51.6821C103.534 51.8286 103.429 51.9732 103.318 52.116C103.119 52.3723 102.896 52.614 102.649 52.841C102.406 53.0681 102.146 53.2658 101.869 53.4343C101.592 53.6027 101.299 53.7364 100.99 53.8352C100.683 53.9341 100.368 53.9835 100.044 53.9835C99.9035 53.9835 99.7597 53.9707 99.6122 53.9451C99.4647 53.9194 99.319 53.881 99.1752 53.8297C99.0313 53.7821 98.8949 53.7217 98.7658 53.6485C98.6404 53.5716 98.5298 53.4855 98.4339 53.3903C98.338 53.2951 98.2606 53.1907 98.2016 53.0772C98.1463 52.9601 98.1186 52.8337 98.1186 52.6982C98.1186 52.6323 98.1278 52.5701 98.1463 52.5115C98.1684 52.4492 98.22 52.4181 98.3012 52.4181Z" fill="white"/>
</svg>
