<svg width="118" height="71" viewBox="0 0 118 71" fill="none" xmlns="http://www.w3.org/2000/svg">
<ellipse cx="89.5" cy="20.5" rx="21.5" ry="20.5" fill="#FFFFFF"/>
<ellipse cx="36" cy="20.5" rx="17" ry="17.5" fill="#8DC641"/>
<circle cx="56" cy="20" r="15" fill="#1D75BC"/>
<ellipse cx="18.5" cy="20.5" rx="10.5" ry="11.5" fill="#FFCB2D"/>
<ellipse cx="69.5" cy="20" rx="10.5" ry="11" fill="#59412E"/>
<rect y="20" width="118" height="51" rx="5" fill="#FFFFFF"/>
<path d="M26.5977 40.4941C26.5977 40.3346 26.6204 40.166 26.666 39.9883C26.821 39.3685 27.001 38.7624 27.2061 38.1699C27.4157 37.5729 27.6048 36.9805 27.7734 36.3926C27.9421 35.8047 28.0811 35.3102 28.1904 34.9092C28.3044 34.5036 28.4046 34.1572 28.4912 33.8701C28.5778 33.5785 28.6576 33.3278 28.7305 33.1182C28.8034 32.9085 28.8831 32.7012 28.9697 32.4961C29.0244 32.373 29.0837 32.2454 29.1475 32.1133C29.2158 31.9811 29.2887 31.8604 29.3662 31.751C29.4437 31.637 29.5234 31.5459 29.6055 31.4775C29.6921 31.4046 29.7809 31.3682 29.8721 31.3682C30.0589 31.3682 30.2002 31.4001 30.2959 31.4639C30.3962 31.5231 30.4577 31.5778 30.4805 31.6279L30.542 31.9082C30.6104 31.9036 30.6992 31.8923 30.8086 31.874C30.918 31.8512 31.0273 31.8285 31.1367 31.8057C31.2507 31.7829 31.3555 31.7601 31.4512 31.7373C31.5469 31.7145 31.6198 31.694 31.6699 31.6758C31.9707 31.5938 32.2487 31.5231 32.5039 31.4639C32.7591 31.4046 33.0007 31.3568 33.2285 31.3203C33.4609 31.2793 33.682 31.2497 33.8916 31.2314C34.1012 31.2132 34.3132 31.2041 34.5273 31.2041C34.737 31.2041 34.9079 31.2155 35.04 31.2383C35.1722 31.2611 35.277 31.293 35.3545 31.334C35.432 31.3704 35.4844 31.416 35.5117 31.4707C35.5436 31.5208 35.5596 31.5755 35.5596 31.6348C35.5596 31.6895 35.5436 31.7487 35.5117 31.8125C35.4844 31.8717 35.4365 31.9287 35.3682 31.9834C35.2998 32.0381 35.2109 32.0859 35.1016 32.127C34.9922 32.168 34.8555 32.1953 34.6914 32.209C34.6504 32.2181 34.5547 32.2363 34.4043 32.2637C34.2585 32.2865 34.099 32.3138 33.9258 32.3457C33.7526 32.373 33.5885 32.4004 33.4336 32.4277C33.2786 32.4551 33.1715 32.4756 33.1123 32.4893H33.1191C33.0918 32.4938 33.0257 32.512 32.9209 32.5439C32.8206 32.5713 32.6976 32.6055 32.5518 32.6465C32.4059 32.6829 32.2464 32.7262 32.0732 32.7764C31.9046 32.8265 31.736 32.8766 31.5674 32.9268C31.4033 32.9723 31.2507 33.0179 31.1094 33.0635C30.9681 33.1045 30.8542 33.1387 30.7676 33.166C30.4896 33.2754 30.2708 33.4212 30.1113 33.6035C29.9564 33.7812 29.8333 33.9818 29.7422 34.2051C29.724 34.2461 29.6966 34.3167 29.6602 34.417C29.6237 34.5127 29.5827 34.6243 29.5371 34.752C29.4961 34.875 29.4505 35.0072 29.4004 35.1484C29.3503 35.2897 29.3024 35.4242 29.2568 35.5518C29.2113 35.6794 29.1702 35.7956 29.1338 35.9004C29.1019 36.0052 29.0791 36.0827 29.0654 36.1328C29.0518 36.1784 29.0426 36.2194 29.0381 36.2559C29.0335 36.2923 29.0312 36.3197 29.0312 36.3379C29.0312 36.3652 29.0381 36.3789 29.0518 36.3789C29.1201 36.3789 29.2614 36.3493 29.4756 36.29C29.6943 36.2262 29.9473 36.1488 30.2344 36.0576C30.526 35.9665 30.8359 35.8685 31.1641 35.7637C31.4967 35.6589 31.8135 35.5609 32.1143 35.4697C32.4196 35.3786 32.6908 35.3034 32.9277 35.2441C33.1647 35.1803 33.3356 35.1484 33.4404 35.1484C33.5999 35.1484 33.707 35.1758 33.7617 35.2305C33.8164 35.2806 33.8438 35.3376 33.8438 35.4014C33.8438 35.5654 33.7845 35.709 33.666 35.832C33.5521 35.9551 33.4085 36.0622 33.2354 36.1533C33.1807 36.1807 33.0781 36.2217 32.9277 36.2764C32.7819 36.3265 32.6224 36.3789 32.4492 36.4336C32.2806 36.4883 32.1188 36.5407 31.9639 36.5908C31.8089 36.641 31.6973 36.6774 31.6289 36.7002C31.1823 36.8734 30.8177 37.0169 30.5352 37.1309C30.2572 37.2402 30.0316 37.3314 29.8584 37.4043C29.6852 37.4727 29.5508 37.5251 29.4551 37.5615C29.3639 37.598 29.2773 37.6299 29.1953 37.6572C29.1178 37.68 29.0312 37.7028 28.9355 37.7256C28.8398 37.7484 28.7077 37.7803 28.5391 37.8213C28.498 37.917 28.4502 38.0628 28.3955 38.2588C28.3408 38.4502 28.2884 38.6507 28.2383 38.8604C28.1882 39.0654 28.1449 39.2568 28.1084 39.4346C28.0765 39.6123 28.0605 39.7354 28.0605 39.8037C28.0605 39.8857 28.0719 39.9473 28.0947 39.9883C28.1175 40.0247 28.1449 40.0498 28.1768 40.0635C28.2087 40.0771 28.2406 40.084 28.2725 40.084C28.3044 40.084 28.3294 40.084 28.3477 40.084C28.5664 40.084 28.8285 40.0521 29.1338 39.9883C29.4437 39.9245 29.749 39.8402 30.0498 39.7354C30.3369 39.6351 30.5876 39.5257 30.8018 39.4072C31.016 39.2887 31.2165 39.1794 31.4033 39.0791C31.5947 38.9743 31.7793 38.8877 31.957 38.8193C32.1393 38.7464 32.3376 38.7077 32.5518 38.7031C32.5973 38.7031 32.6497 38.7077 32.709 38.7168C32.7728 38.7259 32.832 38.7441 32.8867 38.7715C32.9414 38.7943 32.9847 38.8262 33.0166 38.8672C33.0531 38.9082 33.0667 38.9606 33.0576 39.0244C33.0394 39.1566 32.9733 39.2865 32.8594 39.4141C32.7454 39.5417 32.6019 39.6647 32.4287 39.7832C32.2555 39.9017 32.0618 40.0156 31.8477 40.125C31.6335 40.2344 31.4147 40.3392 31.1914 40.4395C30.9681 40.5352 30.7493 40.624 30.5352 40.7061C30.321 40.7835 30.1296 40.8519 29.9609 40.9111C29.5417 41.057 29.1338 41.1641 28.7373 41.2324C28.3408 41.3008 27.9854 41.335 27.6709 41.335C27.3245 41.335 27.0579 41.2689 26.8711 41.1367C26.6888 41.0091 26.5977 40.7949 26.5977 40.4941ZM35.1836 38.0879C35.1836 37.8236 35.2155 37.5251 35.2793 37.1924C35.3431 36.8551 35.4548 36.5293 35.6143 36.2148C35.833 35.7773 36.0768 35.3558 36.3457 34.9502C36.6146 34.54 36.8903 34.1641 37.1729 33.8223C37.4554 33.4759 37.738 33.1706 38.0205 32.9062C38.3031 32.6374 38.5719 32.4277 38.8271 32.2773L38.8203 32.2842C38.9798 32.1839 39.1484 32.0791 39.3262 31.9697C39.5039 31.8604 39.6862 31.7601 39.873 31.6689C40.0599 31.5778 40.249 31.5026 40.4404 31.4434C40.6318 31.3841 40.821 31.3545 41.0078 31.3545C41.1992 31.3545 41.3815 31.3932 41.5547 31.4707C41.7279 31.5482 41.8783 31.6553 42.0059 31.792C42.138 31.9242 42.2406 32.0791 42.3135 32.2568C42.391 32.4346 42.4297 32.6237 42.4297 32.8242C42.4297 32.9655 42.4206 33.0771 42.4023 33.1592C42.3887 33.2367 42.3636 33.2959 42.3271 33.3369C42.2952 33.3779 42.252 33.403 42.1973 33.4121C42.1471 33.4212 42.0879 33.4258 42.0195 33.4258C41.9193 33.4258 41.8395 33.4053 41.7803 33.3643C41.7256 33.3187 41.68 33.2663 41.6436 33.207C41.6117 33.1432 41.5866 33.0749 41.5684 33.002C41.5501 32.9245 41.5273 32.8561 41.5 32.7969C41.4772 32.7331 41.4453 32.6807 41.4043 32.6396C41.3678 32.5941 41.3154 32.5713 41.2471 32.5713C41.0648 32.5713 40.8665 32.6123 40.6523 32.6943C40.4427 32.7764 40.2262 32.8857 40.0029 33.0225C39.7842 33.1592 39.5632 33.3164 39.3398 33.4941C39.1211 33.6673 38.9115 33.8451 38.7109 34.0273C38.5104 34.2096 38.3236 34.3896 38.1504 34.5674C37.9818 34.7451 37.8359 34.9046 37.7129 35.0459C37.5306 35.2783 37.3643 35.5153 37.2139 35.7568C37.0635 35.9938 36.9336 36.2376 36.8242 36.4883C36.7148 36.7344 36.6305 36.9896 36.5713 37.2539C36.512 37.5137 36.4824 37.7848 36.4824 38.0674C36.4824 38.2861 36.512 38.4775 36.5713 38.6416C36.6351 38.8057 36.7035 38.9469 36.7764 39.0654C36.863 39.2021 36.9701 39.2979 37.0977 39.3525C37.2253 39.4027 37.3779 39.4277 37.5557 39.4277C37.943 39.4277 38.3008 39.3913 38.6289 39.3184C38.957 39.2454 39.2715 39.1475 39.5723 39.0244C39.873 38.9014 40.167 38.7555 40.4541 38.5869C40.7412 38.4183 41.0374 38.2383 41.3428 38.0469H41.5205C41.5798 38.0469 41.639 38.0628 41.6982 38.0947C41.762 38.1266 41.8167 38.1676 41.8623 38.2178C41.9124 38.2679 41.9512 38.3249 41.9785 38.3887C42.0104 38.4525 42.0264 38.5186 42.0264 38.5869C42.0264 38.7373 41.9671 38.8877 41.8486 39.0381C41.7301 39.1839 41.5775 39.3252 41.3906 39.4619C41.2083 39.5941 41.001 39.7194 40.7686 39.8379C40.5361 39.9564 40.306 40.0612 40.0781 40.1523C39.8548 40.2435 39.6452 40.321 39.4492 40.3848C39.2533 40.4486 39.096 40.4919 38.9775 40.5146C38.8773 40.5374 38.7793 40.5602 38.6836 40.583C38.5924 40.6012 38.4831 40.6217 38.3555 40.6445C38.2279 40.6628 38.0752 40.6787 37.8975 40.6924C37.7197 40.7015 37.4964 40.7061 37.2275 40.7061C37.0635 40.7061 36.9131 40.681 36.7764 40.6309C36.6396 40.5762 36.5166 40.5146 36.4072 40.4463C36.3024 40.3734 36.2113 40.2982 36.1338 40.2207C36.0609 40.1432 36.0016 40.0771 35.9561 40.0225C35.6872 39.708 35.4912 39.3981 35.3682 39.0928C35.2451 38.7874 35.1836 38.4525 35.1836 38.0879ZM43.4756 37.5205C43.5576 37.1787 43.6761 36.8301 43.8311 36.4746C43.986 36.1146 44.1683 35.7546 44.3779 35.3945C44.5876 35.0345 44.82 34.6813 45.0752 34.335C45.335 33.984 45.6084 33.6468 45.8955 33.3232C46.1872 32.9951 46.4857 32.6875 46.791 32.4004C47.1009 32.1087 47.4108 31.8421 47.7207 31.6006C47.8665 31.5003 48.001 31.4342 48.124 31.4023C48.2471 31.3704 48.377 31.3545 48.5137 31.3545C48.6595 31.3545 48.7894 31.3773 48.9033 31.4229C49.0173 31.4639 49.1312 31.5413 49.2451 31.6553C49.2816 31.6963 49.3203 31.7327 49.3613 31.7646C49.4023 31.7965 49.4411 31.8125 49.4775 31.8125C49.4867 31.8125 49.498 31.8034 49.5117 31.7852C49.5254 31.7624 49.5391 31.7373 49.5527 31.71C49.571 31.6826 49.5915 31.6553 49.6143 31.6279C49.637 31.596 49.6644 31.5732 49.6963 31.5596C49.7738 31.5231 49.8649 31.5003 49.9697 31.4912C50.0791 31.4775 50.1885 31.4707 50.2979 31.4707C50.5029 31.4707 50.7012 31.5094 50.8926 31.5869C51.084 31.6598 51.2526 31.7646 51.3984 31.9014C51.7448 32.2249 52.0068 32.6123 52.1846 33.0635C52.3669 33.5146 52.458 34 52.458 34.5195C52.458 34.9844 52.3896 35.4857 52.2529 36.0234C52.1344 36.4974 51.9635 36.9577 51.7402 37.4043C51.5215 37.8509 51.2617 38.2702 50.9609 38.6621C50.6647 39.054 50.332 39.4118 49.9629 39.7354C49.5983 40.0589 49.2087 40.3369 48.7939 40.5693C48.3792 40.8018 47.9463 40.9818 47.4951 41.1094C47.0439 41.2415 46.5859 41.3076 46.1211 41.3076C45.6882 41.3076 45.2985 41.2415 44.9521 41.1094C44.6104 40.9772 44.3187 40.7904 44.0771 40.5488C43.8402 40.3073 43.6579 40.0202 43.5303 39.6875C43.4072 39.3548 43.3457 38.9857 43.3457 38.5801C43.3457 38.4069 43.3548 38.2337 43.373 38.0605C43.3958 37.8828 43.43 37.7028 43.4756 37.5205ZM44.6309 37.9785C44.5807 38.2064 44.5557 38.4115 44.5557 38.5938C44.5557 38.849 44.599 39.0745 44.6855 39.2705C44.7767 39.4619 44.902 39.6237 45.0615 39.7559C45.2256 39.8835 45.4193 39.9814 45.6426 40.0498C45.8704 40.1136 46.1188 40.1455 46.3877 40.1455C46.7067 40.1455 47.0303 40.0954 47.3584 39.9951C47.6911 39.8949 48.0146 39.749 48.3291 39.5576C48.6436 39.3662 48.9466 39.1361 49.2383 38.8672C49.5299 38.5983 49.7988 38.293 50.0449 37.9512C50.2956 37.6094 50.5166 37.238 50.708 36.8369C50.904 36.4359 51.0612 36.0098 51.1797 35.5586C51.2253 35.3945 51.2572 35.2236 51.2754 35.0459C51.2982 34.8682 51.3096 34.6973 51.3096 34.5332C51.3096 34.2689 51.2799 34.016 51.2207 33.7744C51.1615 33.5329 51.0635 33.3187 50.9268 33.1318C50.79 32.945 50.61 32.7969 50.3867 32.6875C50.1634 32.5736 49.89 32.5166 49.5664 32.5166C49.5208 32.5166 49.4844 32.5371 49.457 32.5781C49.4342 32.6146 49.4092 32.6624 49.3818 32.7217C49.359 32.7718 49.3317 32.8242 49.2998 32.8789C49.2725 32.9336 49.2337 32.9837 49.1836 33.0293C49.138 33.0703 49.0788 33.1045 49.0059 33.1318C48.9375 33.1592 48.8509 33.1729 48.7461 33.1729C48.6686 33.1729 48.6003 33.1569 48.541 33.125C48.4818 33.0885 48.4225 33.0407 48.3633 32.9814C48.3359 32.9541 48.3132 32.9336 48.2949 32.9199C48.2767 32.9017 48.2562 32.8926 48.2334 32.8926C48.1924 32.8926 48.1377 32.9108 48.0693 32.9473C48.0055 32.9837 47.9372 33.027 47.8643 33.0771C47.7959 33.1273 47.7275 33.1797 47.6592 33.2344C47.5954 33.2891 47.5452 33.3369 47.5088 33.3779C47.1989 33.6969 46.889 34.0456 46.5791 34.4238C46.2738 34.7975 45.9912 35.1849 45.7314 35.5859C45.4717 35.987 45.2438 36.3926 45.0479 36.8027C44.8564 37.2083 44.7174 37.6003 44.6309 37.9785ZM54.2217 37.0762C54.2627 36.8984 54.3105 36.7025 54.3652 36.4883C54.4245 36.2695 54.486 36.0439 54.5498 35.8115C54.6182 35.5791 54.6865 35.3444 54.7549 35.1074C54.8232 34.8704 54.8893 34.6426 54.9531 34.4238C55.0215 34.2051 55.083 34.0023 55.1377 33.8154C55.1924 33.624 55.2402 33.4622 55.2812 33.3301C55.3678 33.0339 55.4499 32.7376 55.5273 32.4414C55.6048 32.1406 55.68 31.8262 55.7529 31.498C55.8441 31.3203 55.9671 31.195 56.1221 31.1221C56.277 31.0446 56.4456 31.0059 56.6279 31.0059C56.7738 31.0833 56.8877 31.1904 56.9697 31.3271C57.0563 31.4593 57.0996 31.6097 57.0996 31.7783C57.0996 31.8968 57.0791 32.0335 57.0381 32.1885C57.0016 32.3389 56.9538 32.5029 56.8945 32.6807C56.8353 32.8538 56.7692 33.0384 56.6963 33.2344C56.6234 33.4258 56.5527 33.624 56.4844 33.8291C56.3568 34.2028 56.2292 34.5765 56.1016 34.9502C55.974 35.3239 55.8486 35.7181 55.7256 36.1328C55.6937 36.2422 55.6595 36.3516 55.623 36.4609C55.5866 36.5703 55.5479 36.6888 55.5068 36.8164C55.4704 36.944 55.4294 37.0876 55.3838 37.2471C55.3382 37.402 55.2926 37.582 55.2471 37.7871C55.1924 38.0286 55.1445 38.2725 55.1035 38.5186C55.0625 38.7601 55.0238 39.0039 54.9873 39.25C54.9508 39.4961 54.9098 39.7445 54.8643 39.9951C54.8187 40.2458 54.764 40.4987 54.7002 40.7539C54.6774 40.8451 54.6364 40.9271 54.5771 41C54.5225 41.0684 54.4587 41.1276 54.3857 41.1777C54.3128 41.2279 54.2354 41.2666 54.1533 41.2939C54.0713 41.3213 53.9938 41.335 53.9209 41.335C53.848 41.335 53.7773 41.3281 53.709 41.3145C53.6452 41.3053 53.5951 41.2803 53.5586 41.2393C53.5039 41.18 53.4606 41.1139 53.4287 41.041C53.3968 40.9681 53.3809 40.8906 53.3809 40.8086C53.3809 40.7858 53.3809 40.7653 53.3809 40.7471C53.3854 40.7243 53.39 40.7015 53.3945 40.6787L54.2217 37.0762ZM58.2002 37.4727C58.4053 36.8438 58.6012 36.2399 58.7881 35.6611C58.9749 35.0824 59.139 34.5469 59.2803 34.0547C59.4261 33.5625 59.54 33.1273 59.6221 32.749C59.7087 32.3708 59.7565 32.07 59.7656 31.8467C59.8203 31.6325 59.916 31.4616 60.0527 31.334C60.194 31.2064 60.3558 31.1426 60.5381 31.1426C60.6475 31.1426 60.7409 31.1676 60.8184 31.2178C60.8958 31.2679 60.9574 31.334 61.0029 31.416C61.0531 31.498 61.0895 31.5915 61.1123 31.6963C61.1351 31.7965 61.1465 31.8991 61.1465 32.0039C61.1465 32.0814 61.1419 32.152 61.1328 32.2158C61.1237 32.2796 61.1123 32.3411 61.0986 32.4004C60.9938 32.8197 60.8685 33.2526 60.7227 33.6992C60.5768 34.1458 60.4264 34.5993 60.2715 35.0596C60.1211 35.5153 59.9707 35.9733 59.8203 36.4336C59.6699 36.8939 59.5355 37.3451 59.417 37.7871L59.2939 38.252C59.2301 38.4889 59.1755 38.7145 59.1299 38.9287C59.0843 39.1429 59.0615 39.3161 59.0615 39.4482C59.0615 39.5212 59.0752 39.5804 59.1025 39.626C59.1299 39.667 59.1823 39.6875 59.2598 39.6875C59.4466 39.6875 59.6654 39.6579 59.916 39.5986C60.1667 39.5348 60.4264 39.4596 60.6953 39.373C60.9642 39.2819 61.2308 39.1839 61.4951 39.0791C61.764 38.9697 62.0101 38.8672 62.2334 38.7715C62.3519 38.7214 62.4521 38.6781 62.5342 38.6416C62.6208 38.6051 62.7256 38.5618 62.8486 38.5117C62.9762 38.457 63.1449 38.3864 63.3545 38.2998C63.5641 38.2132 63.8535 38.0924 64.2227 37.9375C64.2865 37.9147 64.3411 37.8965 64.3867 37.8828C64.4368 37.8646 64.4824 37.8555 64.5234 37.8555C64.5964 37.8555 64.6579 37.8691 64.708 37.8965C64.7627 37.9238 64.8037 37.9603 64.8311 38.0059C64.863 38.0514 64.8857 38.1038 64.8994 38.1631C64.9131 38.2223 64.9199 38.2816 64.9199 38.3408C64.9199 38.4411 64.9108 38.5299 64.8926 38.6074C64.8789 38.6803 64.863 38.7419 64.8447 38.792C64.79 38.8786 64.7194 38.9583 64.6328 39.0312C64.5462 39.0996 64.4551 39.1611 64.3594 39.2158C64.2637 39.266 64.1702 39.3092 64.0791 39.3457C63.988 39.3822 63.9128 39.4095 63.8535 39.4277C63.7806 39.4551 63.6826 39.4915 63.5596 39.5371C63.4411 39.5827 63.3112 39.6328 63.1699 39.6875C63.0286 39.7422 62.8828 39.7992 62.7324 39.8584C62.582 39.9131 62.4408 39.9655 62.3086 40.0156C62.1764 40.0658 62.0579 40.1113 61.9531 40.1523C61.8529 40.1888 61.7822 40.2139 61.7412 40.2275C61.5452 40.3005 61.3265 40.3825 61.085 40.4736C60.848 40.5648 60.611 40.6514 60.374 40.7334C60.137 40.8154 59.9115 40.8861 59.6973 40.9453C59.4876 41 59.3122 41.0273 59.1709 41.0273C58.9977 41.0273 58.861 41.0137 58.7607 40.9863C58.665 40.959 58.5785 40.9225 58.501 40.877C58.4235 40.8268 58.3438 40.7676 58.2617 40.6992C58.1842 40.6309 58.0794 40.5557 57.9473 40.4736C57.8288 40.4007 57.7445 40.3005 57.6943 40.1729C57.6442 40.0452 57.6191 39.9085 57.6191 39.7627C57.6191 39.6898 57.6237 39.6055 57.6328 39.5098C57.6465 39.4141 57.6624 39.3138 57.6807 39.209C57.6989 39.1042 57.7194 39.0016 57.7422 38.9014C57.765 38.8011 57.79 38.7122 57.8174 38.6348L58.2002 37.4727ZM65.5488 40.7949C65.5488 40.7448 65.5557 40.6787 65.5693 40.5967C65.5876 40.5101 65.6081 40.4235 65.6309 40.3369C65.6536 40.2458 65.6764 40.1592 65.6992 40.0771C65.7266 39.9951 65.7471 39.929 65.7607 39.8789L68.5293 30.7939C68.5521 30.762 68.5771 30.7347 68.6045 30.7119C68.6273 30.6891 68.6569 30.6709 68.6934 30.6572C68.7344 30.639 68.7822 30.6299 68.8369 30.6299H68.9531C69.0534 30.6299 69.1377 30.6481 69.2061 30.6846C69.2744 30.7165 69.3291 30.762 69.3701 30.8213C69.4111 30.876 69.4385 30.9421 69.4521 31.0195C69.4704 31.0924 69.4795 31.1722 69.4795 31.2588C69.4795 31.3317 69.4727 31.4092 69.459 31.4912C69.4499 31.5687 69.4385 31.6462 69.4248 31.7236C69.4111 31.7965 69.3952 31.8649 69.377 31.9287C69.3633 31.9925 69.3519 32.0426 69.3428 32.0791L67.9209 36.9326L68.5703 36.8711C69.2949 36.7116 70.0332 36.5475 70.7852 36.3789C71.5417 36.2057 72.2822 36.0394 73.0068 35.8799C73.0889 35.8389 73.1618 35.7546 73.2256 35.627C73.2894 35.4993 73.3509 35.333 73.4102 35.1279C73.474 34.9229 73.5423 34.6836 73.6152 34.4102C73.6882 34.1322 73.777 33.8245 73.8818 33.4873L74.0254 33.0156C74.0846 32.7878 74.137 32.5553 74.1826 32.3184C74.2327 32.0768 74.292 31.8581 74.3604 31.6621C74.4287 31.4661 74.5153 31.3066 74.6201 31.1836C74.7249 31.056 74.8594 30.9922 75.0234 30.9922C75.2559 30.9922 75.4359 31.0674 75.5635 31.2178C75.6911 31.3636 75.7549 31.5482 75.7549 31.7715C75.7549 31.9128 75.7002 32.1497 75.5908 32.4824C75.486 32.8151 75.3538 33.2207 75.1943 33.6992C75.1351 33.877 75.0713 34.0592 75.0029 34.2461C74.9346 34.4329 74.8708 34.613 74.8115 34.7861C74.7568 34.9548 74.7113 35.112 74.6748 35.2578C74.6383 35.3991 74.6201 35.513 74.6201 35.5996C74.6201 35.6816 74.6315 35.7637 74.6543 35.8457C74.6771 35.9232 74.6885 36.0075 74.6885 36.0986C74.6885 36.3037 74.6338 36.4746 74.5244 36.6113C74.415 36.748 74.2646 36.887 74.0732 37.0283C74.0641 37.0648 74.0505 37.1217 74.0322 37.1992C74.0186 37.2767 74.0003 37.3564 73.9775 37.4385L73.8887 37.7871C73.8249 38.0378 73.7702 38.2884 73.7246 38.5391C73.6836 38.7897 73.6449 39.0381 73.6084 39.2842C73.5765 39.5303 73.54 39.7764 73.499 40.0225C73.4626 40.2686 73.4147 40.5124 73.3555 40.7539C73.3327 40.8451 73.2917 40.9271 73.2324 41C73.1777 41.0684 73.1117 41.1276 73.0342 41.1777C72.9613 41.2279 72.8838 41.2666 72.8018 41.2939C72.7197 41.3213 72.6423 41.335 72.5693 41.335C72.46 41.335 72.3711 41.3099 72.3027 41.2598C72.2344 41.2096 72.1797 41.1504 72.1387 41.082C72.1022 41.0137 72.0771 40.943 72.0635 40.8701C72.0498 40.7972 72.043 40.7357 72.043 40.6855C72.043 40.6309 72.0498 40.542 72.0635 40.4189C72.0817 40.2913 72.1045 40.1432 72.1318 39.9746C72.1592 39.806 72.1911 39.6237 72.2275 39.4277C72.264 39.2318 72.3005 39.0335 72.3369 38.833C72.4235 38.3682 72.5238 37.86 72.6377 37.3086H72.5898C72.4714 37.3086 72.3438 37.3223 72.207 37.3496C72.0703 37.3724 71.9062 37.4066 71.7148 37.4521C71.6283 37.4795 71.4984 37.516 71.3252 37.5615C71.1566 37.6071 70.9629 37.6595 70.7441 37.7188C70.5254 37.778 70.2884 37.8418 70.0332 37.9102C69.7826 37.9785 69.5319 38.0469 69.2812 38.1152L67.4287 38.6211C67.3421 38.7988 67.2601 38.9925 67.1826 39.2021C67.1097 39.4072 67.0413 39.6169 66.9775 39.8311C66.9137 40.0407 66.8545 40.248 66.7998 40.4531C66.7497 40.6582 66.7018 40.8519 66.6562 41.0342C66.6426 41.0843 66.613 41.139 66.5674 41.1982C66.5264 41.2575 66.4762 41.3122 66.417 41.3623C66.3623 41.4124 66.3031 41.4535 66.2393 41.4854C66.18 41.5173 66.123 41.5332 66.0684 41.5332C65.9681 41.5332 65.8838 41.5104 65.8154 41.4648C65.7516 41.4238 65.6992 41.3669 65.6582 41.2939C65.6172 41.2256 65.5876 41.1458 65.5693 41.0547C65.5557 40.9681 65.5488 40.8815 65.5488 40.7949ZM82.085 41.0752C81.9893 41.0752 81.9049 41.057 81.832 41.0205C81.7591 40.984 81.6976 40.9362 81.6475 40.877C81.6019 40.8177 81.5654 40.7493 81.5381 40.6719C81.5153 40.5944 81.5039 40.5169 81.5039 40.4395C81.5039 40.3711 81.5221 40.2777 81.5586 40.1592C81.5951 40.0361 81.6406 39.8994 81.6953 39.749C81.7546 39.5986 81.8184 39.4414 81.8867 39.2773C81.9551 39.1133 82.0212 38.9561 82.085 38.8057C82.1488 38.6553 82.2035 38.5163 82.249 38.3887C82.2946 38.2611 82.3265 38.1608 82.3447 38.0879C82.363 38.0059 82.3857 37.9079 82.4131 37.7939C82.4404 37.68 82.4701 37.557 82.502 37.4248C82.5384 37.2881 82.5726 37.1468 82.6045 37.001C82.641 36.8506 82.6774 36.7002 82.7139 36.5498C82.6501 36.5635 82.5703 36.5771 82.4746 36.5908C82.3835 36.5999 82.2855 36.609 82.1807 36.6182C82.0303 36.6318 81.8822 36.6523 81.7363 36.6797C81.5905 36.707 81.4401 36.7389 81.2852 36.7754C81.1348 36.8073 80.9775 36.8438 80.8135 36.8848C80.6494 36.9212 80.474 36.96 80.2871 37.001C80.0137 37.0602 79.7402 37.1263 79.4668 37.1992C79.1934 37.2721 78.9085 37.3086 78.6123 37.3086C78.5212 37.3086 78.4368 37.2858 78.3594 37.2402C78.2819 37.1901 78.1953 37.1536 78.0996 37.1309C78.0085 37.2767 77.9219 37.4339 77.8398 37.6025C77.7578 37.7666 77.6826 37.9375 77.6143 38.1152C77.5459 38.2884 77.4844 38.4616 77.4297 38.6348C77.375 38.8034 77.3271 38.9629 77.2861 39.1133C77.2633 39.1953 77.2428 39.3024 77.2246 39.4346C77.2109 39.5622 77.1973 39.6943 77.1836 39.8311C77.1699 39.9632 77.1562 40.0908 77.1426 40.2139C77.1289 40.3369 77.1152 40.4349 77.1016 40.5078C77.0879 40.5762 77.0605 40.6445 77.0195 40.7129C76.9785 40.7767 76.9284 40.8359 76.8691 40.8906C76.8099 40.9453 76.7438 40.9886 76.6709 41.0205C76.598 41.057 76.5251 41.0752 76.4521 41.0752C76.3245 41.0752 76.2197 41.0387 76.1377 40.9658C76.0602 40.8883 75.9964 40.7949 75.9463 40.6855C75.9007 40.5716 75.8688 40.4486 75.8506 40.3164C75.8324 40.1842 75.8232 40.0635 75.8232 39.9541C75.8232 39.6761 75.8574 39.389 75.9258 39.0928C75.9941 38.792 76.0853 38.4889 76.1992 38.1836C76.3177 37.8737 76.4544 37.5638 76.6094 37.2539C76.7689 36.9395 76.9398 36.6273 77.1221 36.3174C77.2725 36.0394 77.4593 35.7181 77.6826 35.3535C77.9059 34.9889 78.1543 34.6152 78.4277 34.2324C78.7057 33.8451 79.0042 33.4668 79.3232 33.0977C79.6468 32.7285 79.9818 32.4004 80.3281 32.1133C80.6745 31.8216 81.0299 31.5869 81.3945 31.4092C81.7591 31.2314 82.1214 31.1426 82.4814 31.1426C82.8597 31.1426 83.1742 31.2109 83.4248 31.3477C83.68 31.4844 83.8828 31.6689 84.0332 31.9014C84.1836 32.1338 84.2884 32.4049 84.3477 32.7148C84.4115 33.0247 84.4434 33.3529 84.4434 33.6992C84.4434 34.0046 84.4229 34.319 84.3818 34.6426C84.3454 34.9661 84.2975 35.2829 84.2383 35.5928C84.1836 35.9027 84.1221 36.2012 84.0537 36.4883C83.9899 36.7754 83.9307 37.0352 83.876 37.2676L83.6367 38.1973C83.6276 38.2246 83.6094 38.2793 83.582 38.3613C83.5592 38.4434 83.5273 38.5436 83.4863 38.6621C83.4499 38.776 83.4066 38.9014 83.3564 39.0381C83.3109 39.1702 83.263 39.3024 83.2129 39.4346C83.1673 39.5622 83.1217 39.6807 83.0762 39.79C83.0352 39.8994 82.9987 39.9883 82.9668 40.0566L82.9736 40.0498C82.9417 40.1683 82.9076 40.2891 82.8711 40.4121C82.8346 40.5352 82.7845 40.6468 82.7207 40.7471C82.6569 40.8428 82.5749 40.9225 82.4746 40.9863C82.3743 41.0456 82.2445 41.0752 82.085 41.0752ZM82.4336 32.5166C82.2285 32.5166 82.0234 32.5599 81.8184 32.6465C81.6178 32.7285 81.4196 32.8379 81.2236 32.9746C81.0277 33.1113 80.8363 33.2708 80.6494 33.4531C80.4671 33.6354 80.2917 33.8223 80.123 34.0137C79.959 34.2051 79.804 34.3988 79.6582 34.5947C79.5124 34.7861 79.3802 34.9639 79.2617 35.1279C79.2435 35.1553 79.2184 35.1917 79.1865 35.2373C79.1592 35.2783 79.1296 35.3262 79.0977 35.3809C79.0703 35.431 79.043 35.4857 79.0156 35.5449C78.9883 35.5996 78.9655 35.6497 78.9473 35.6953H79.6514C79.9066 35.6953 80.1982 35.6771 80.5264 35.6406C80.8545 35.6042 81.1781 35.5609 81.4971 35.5107C81.8206 35.4606 82.1169 35.4105 82.3857 35.3604C82.6546 35.3057 82.8574 35.2646 82.9941 35.2373C83.0124 35.1781 83.0283 35.0983 83.042 34.998C83.0602 34.8978 83.0762 34.7861 83.0898 34.6631C83.1035 34.54 83.1126 34.4102 83.1172 34.2734C83.1263 34.1322 83.1309 33.9886 83.1309 33.8428C83.1309 33.7243 83.1263 33.5898 83.1172 33.4395C83.1081 33.2845 83.0807 33.1387 83.0352 33.002C82.9896 32.8652 82.9189 32.7513 82.8232 32.6602C82.7321 32.5645 82.6022 32.5166 82.4336 32.5166ZM85.6943 39.4209C85.8493 39.4756 86.0065 39.5394 86.166 39.6123C86.3301 39.6852 86.4987 39.7559 86.6719 39.8242C86.8451 39.888 87.0251 39.9427 87.2119 39.9883C87.4033 40.0339 87.6061 40.0566 87.8203 40.0566C88.071 40.0566 88.3239 40.027 88.5791 39.9678C88.8343 39.9085 89.0827 39.8219 89.3242 39.708C89.5703 39.5895 89.805 39.4482 90.0283 39.2842C90.2516 39.1156 90.4567 38.9219 90.6436 38.7031C90.8486 38.4707 91.0195 38.2611 91.1562 38.0742C91.293 37.8828 91.4023 37.7142 91.4844 37.5684C91.571 37.418 91.6325 37.2904 91.6689 37.1855C91.7054 37.0762 91.7236 36.9827 91.7236 36.9053C91.7236 36.7913 91.6849 36.6934 91.6074 36.6113C91.5299 36.5247 91.4251 36.4541 91.293 36.3994C91.1654 36.3447 91.0195 36.306 90.8555 36.2832C90.6914 36.2559 90.5205 36.2422 90.3428 36.2422C90.238 36.2422 90.1149 36.2467 89.9736 36.2559C89.8324 36.2604 89.6888 36.2673 89.543 36.2764C89.3971 36.2809 89.2559 36.2855 89.1191 36.29C88.9824 36.2946 88.8639 36.2969 88.7637 36.2969C88.6133 36.2969 88.4561 36.2809 88.292 36.249C88.1325 36.2126 87.9753 36.1556 87.8203 36.0781C87.6654 36.0007 87.5218 35.8958 87.3896 35.7637C87.2575 35.6315 87.1481 35.4674 87.0615 35.2715C87.0342 35.2077 87.0091 35.1325 86.9863 35.0459C86.9635 34.9593 86.9521 34.8659 86.9521 34.7656C86.9521 34.6562 86.959 34.5537 86.9727 34.458C86.9909 34.3577 87.0114 34.262 87.0342 34.1709C87.098 33.943 87.2028 33.7129 87.3486 33.4805C87.499 33.2435 87.6768 33.0133 87.8818 32.79C88.0915 32.5667 88.3171 32.3503 88.5586 32.1406C88.8047 31.931 89.0553 31.735 89.3105 31.5527C89.5703 31.3659 89.8232 31.1995 90.0693 31.0537C90.32 30.9033 90.5524 30.7757 90.7666 30.6709C91.0674 30.5251 91.3727 30.4202 91.6826 30.3564C91.9971 30.2881 92.307 30.2539 92.6123 30.2539C92.7946 30.2539 92.9678 30.279 93.1318 30.3291C93.2959 30.3747 93.4395 30.443 93.5625 30.5342C93.6901 30.6253 93.7904 30.7393 93.8633 30.876C93.9362 31.0081 93.9727 31.1608 93.9727 31.334C93.9727 31.4342 93.9613 31.5186 93.9385 31.5869C93.9157 31.6553 93.8861 31.7122 93.8496 31.7578C93.8132 31.7988 93.7721 31.8285 93.7266 31.8467C93.6855 31.8649 93.6423 31.874 93.5967 31.874C93.4736 31.874 93.3597 31.8604 93.2549 31.833C93.1546 31.8057 93.0566 31.776 92.9609 31.7441C92.8652 31.7077 92.7695 31.6758 92.6738 31.6484C92.5781 31.6165 92.4733 31.6006 92.3594 31.6006C92.0221 31.6006 91.6781 31.6689 91.3271 31.8057C90.9808 31.9378 90.6413 32.1087 90.3086 32.3184C89.9805 32.5234 89.6683 32.7536 89.3721 33.0088C89.0804 33.264 88.8184 33.5124 88.5859 33.7539C88.4629 33.8815 88.3717 34.0091 88.3125 34.1367C88.2578 34.2643 88.2305 34.3851 88.2305 34.499C88.2305 34.6676 88.3034 34.7998 88.4492 34.8955C88.5951 34.9912 88.7728 35.0391 88.9824 35.0391C89.1055 35.0391 89.2445 35.0368 89.3994 35.0322C89.5544 35.0277 89.7116 35.0231 89.8711 35.0186C90.0352 35.0094 90.1924 35.0026 90.3428 34.998C90.4977 34.9889 90.6344 34.9844 90.7529 34.9844C91.0355 34.9844 91.3066 35.0254 91.5664 35.1074C91.8262 35.1849 92.0563 35.3011 92.2568 35.4561C92.4574 35.611 92.6169 35.8047 92.7354 36.0371C92.8584 36.265 92.9199 36.527 92.9199 36.8232C92.9199 37.0055 92.8926 37.1901 92.8379 37.377C92.7832 37.5638 92.708 37.7529 92.6123 37.9443C92.5166 38.1312 92.4072 38.318 92.2842 38.5049C92.1611 38.6872 92.0312 38.8672 91.8945 39.0449C91.6484 39.3639 91.3727 39.6647 91.0674 39.9473C90.7666 40.2298 90.4453 40.4759 90.1035 40.6855C89.7617 40.8952 89.3994 41.0615 89.0166 41.1846C88.6383 41.3076 88.2487 41.3691 87.8477 41.3691C87.6745 41.3691 87.4967 41.3532 87.3145 41.3213C87.1322 41.2894 86.9521 41.2415 86.7744 41.1777C86.5967 41.1185 86.4281 41.0433 86.2686 40.9521C86.1136 40.8564 85.9769 40.7493 85.8584 40.6309C85.7399 40.5124 85.6442 40.3825 85.5713 40.2412C85.5029 40.0954 85.4688 39.9382 85.4688 39.7695C85.4688 39.6875 85.4801 39.61 85.5029 39.5371C85.5303 39.4596 85.5941 39.4209 85.6943 39.4209ZM4.75684 54.4209C4.91178 54.4756 5.06901 54.5394 5.22852 54.6123C5.39258 54.6852 5.5612 54.7559 5.73438 54.8242C5.90755 54.888 6.08757 54.9427 6.27441 54.9883C6.46582 55.0339 6.66862 55.0566 6.88281 55.0566C7.13346 55.0566 7.38639 55.027 7.6416 54.9678C7.89681 54.9085 8.14518 54.8219 8.38672 54.708C8.63281 54.5895 8.86751 54.4482 9.09082 54.2842C9.31413 54.1156 9.51921 53.9219 9.70605 53.7031C9.91113 53.4707 10.082 53.2611 10.2188 53.0742C10.3555 52.8828 10.4648 52.7142 10.5469 52.5684C10.6335 52.418 10.695 52.2904 10.7314 52.1855C10.7679 52.0762 10.7861 51.9827 10.7861 51.9053C10.7861 51.7913 10.7474 51.6934 10.6699 51.6113C10.5924 51.5247 10.4876 51.4541 10.3555 51.3994C10.2279 51.3447 10.082 51.306 9.91797 51.2832C9.75391 51.2559 9.58301 51.2422 9.40527 51.2422C9.30046 51.2422 9.17741 51.2467 9.03613 51.2559C8.89486 51.2604 8.7513 51.2673 8.60547 51.2764C8.45964 51.2809 8.31836 51.2855 8.18164 51.29C8.04492 51.2946 7.92643 51.2969 7.82617 51.2969C7.67578 51.2969 7.51855 51.2809 7.35449 51.249C7.19499 51.2126 7.03776 51.1556 6.88281 51.0781C6.72786 51.0007 6.58431 50.8958 6.45215 50.7637C6.31999 50.6315 6.21061 50.4674 6.12402 50.2715C6.09668 50.2077 6.07161 50.1325 6.04883 50.0459C6.02604 49.9593 6.01465 49.8659 6.01465 49.7656C6.01465 49.6562 6.02148 49.5537 6.03516 49.458C6.05339 49.3577 6.07389 49.262 6.09668 49.1709C6.16048 48.943 6.2653 48.7129 6.41113 48.4805C6.56152 48.2435 6.73926 48.0133 6.94434 47.79C7.15397 47.5667 7.37956 47.3503 7.62109 47.1406C7.86719 46.931 8.11784 46.735 8.37305 46.5527C8.63281 46.3659 8.88574 46.1995 9.13184 46.0537C9.38249 45.9033 9.61491 45.7757 9.8291 45.6709C10.1299 45.5251 10.4352 45.4202 10.7451 45.3564C11.0596 45.2881 11.3695 45.2539 11.6748 45.2539C11.8571 45.2539 12.0303 45.279 12.1943 45.3291C12.3584 45.3747 12.502 45.443 12.625 45.5342C12.7526 45.6253 12.8529 45.7393 12.9258 45.876C12.9987 46.0081 13.0352 46.1608 13.0352 46.334C13.0352 46.4342 13.0238 46.5186 13.001 46.5869C12.9782 46.6553 12.9486 46.7122 12.9121 46.7578C12.8757 46.7988 12.8346 46.8285 12.7891 46.8467C12.748 46.8649 12.7048 46.874 12.6592 46.874C12.5361 46.874 12.4222 46.8604 12.3174 46.833C12.2171 46.8057 12.1191 46.776 12.0234 46.7441C11.9277 46.7077 11.832 46.6758 11.7363 46.6484C11.6406 46.6165 11.5358 46.6006 11.4219 46.6006C11.0846 46.6006 10.7406 46.6689 10.3896 46.8057C10.0433 46.9378 9.70378 47.1087 9.37109 47.3184C9.04297 47.5234 8.73079 47.7536 8.43457 48.0088C8.1429 48.264 7.88086 48.5124 7.64844 48.7539C7.52539 48.8815 7.43424 49.0091 7.375 49.1367C7.32031 49.2643 7.29297 49.3851 7.29297 49.499C7.29297 49.6676 7.36589 49.7998 7.51172 49.8955C7.65755 49.9912 7.83529 50.0391 8.04492 50.0391C8.16797 50.0391 8.30697 50.0368 8.46191 50.0322C8.61686 50.0277 8.77409 50.0231 8.93359 50.0186C9.09766 50.0094 9.25488 50.0026 9.40527 49.998C9.56022 49.9889 9.69694 49.9844 9.81543 49.9844C10.098 49.9844 10.3691 50.0254 10.6289 50.1074C10.8887 50.1849 11.1188 50.3011 11.3193 50.4561C11.5199 50.611 11.6794 50.8047 11.7979 51.0371C11.9209 51.265 11.9824 51.527 11.9824 51.8232C11.9824 52.0055 11.9551 52.1901 11.9004 52.377C11.8457 52.5638 11.7705 52.7529 11.6748 52.9443C11.5791 53.1312 11.4697 53.318 11.3467 53.5049C11.2236 53.6872 11.0938 53.8672 10.957 54.0449C10.7109 54.3639 10.4352 54.6647 10.1299 54.9473C9.8291 55.2298 9.50781 55.4759 9.16602 55.6855C8.82422 55.8952 8.46191 56.0615 8.0791 56.1846C7.70085 56.3076 7.3112 56.3691 6.91016 56.3691C6.73698 56.3691 6.55924 56.3532 6.37695 56.3213C6.19466 56.2894 6.01465 56.2415 5.83691 56.1777C5.65918 56.1185 5.49056 56.0433 5.33105 55.9521C5.17611 55.8564 5.03939 55.7493 4.9209 55.6309C4.80241 55.5124 4.70671 55.3825 4.63379 55.2412C4.56543 55.0954 4.53125 54.9382 4.53125 54.7695C4.53125 54.6875 4.54264 54.61 4.56543 54.5371C4.59277 54.4596 4.65658 54.4209 4.75684 54.4209ZM14.1152 52.7119C14.2155 52.2516 14.3226 51.8415 14.4365 51.4814C14.555 51.1169 14.6712 50.7796 14.7852 50.4697C14.8991 50.1553 15.0062 49.8568 15.1064 49.5742C15.2113 49.2871 15.3024 48.9909 15.3799 48.6855L15.4619 48.3574C15.4801 48.2754 15.4961 48.1729 15.5098 48.0498C15.5234 47.9268 15.5371 47.7992 15.5508 47.667C15.569 47.5303 15.5918 47.3958 15.6191 47.2637C15.6465 47.1315 15.6852 47.013 15.7354 46.9082C15.79 46.8034 15.8584 46.7191 15.9404 46.6553C16.0225 46.5869 16.1273 46.5527 16.2549 46.5527C16.3962 46.5527 16.5146 46.5778 16.6104 46.6279C16.7106 46.6781 16.7904 46.7441 16.8496 46.8262C16.9089 46.9082 16.9521 47.0039 16.9795 47.1133C17.0068 47.2181 17.0205 47.3275 17.0205 47.4414C17.0205 47.5371 17.0137 47.6328 17 47.7285C16.9909 47.8242 16.9749 47.9131 16.9521 47.9951C16.902 48.2002 16.82 48.4395 16.7061 48.7129C16.5921 48.9863 16.4668 49.2894 16.3301 49.6221C16.1934 49.9502 16.0544 50.3079 15.9131 50.6953C15.7718 51.0781 15.6465 51.4837 15.5371 51.9121C15.4733 52.1536 15.4163 52.418 15.3662 52.7051C15.3206 52.9922 15.2979 53.252 15.2979 53.4844C15.2979 53.6712 15.3138 53.849 15.3457 54.0176C15.3776 54.1816 15.4346 54.3275 15.5166 54.4551C15.5986 54.5781 15.708 54.6761 15.8447 54.749C15.986 54.8219 16.1637 54.8584 16.3779 54.8584C16.542 54.8584 16.7106 54.8447 16.8838 54.8174C17.0615 54.79 17.2712 54.724 17.5127 54.6191C17.8682 54.4596 18.2031 54.2546 18.5176 54.0039C18.8366 53.7487 19.1305 53.4593 19.3994 53.1357C19.6729 52.8122 19.9235 52.4635 20.1514 52.0898C20.3838 51.7161 20.5934 51.3288 20.7803 50.9277C20.9671 50.5267 21.1312 50.1211 21.2725 49.7109C21.4183 49.3008 21.5413 48.8975 21.6416 48.501C21.6826 48.3324 21.7145 48.1751 21.7373 48.0293C21.7601 47.8789 21.776 47.7262 21.7852 47.5713C21.7988 47.4163 21.8079 47.25 21.8125 47.0723C21.8216 46.8945 21.8353 46.6917 21.8535 46.4639C21.8672 46.2816 21.9173 46.1243 22.0039 45.9922C22.0951 45.8555 22.2318 45.7871 22.4141 45.7871C22.528 45.7871 22.626 45.8327 22.708 45.9238C22.7946 46.015 22.8652 46.1289 22.9199 46.2656C22.9746 46.3978 23.0156 46.5391 23.043 46.6895C23.0703 46.8398 23.084 46.9743 23.084 47.0928C23.084 47.3206 23.0612 47.5667 23.0156 47.8311C22.9701 48.0954 22.9154 48.3483 22.8516 48.5898C22.7194 49.1139 22.5599 49.6403 22.373 50.1689C22.1908 50.6976 21.972 51.2148 21.7168 51.7207C21.4616 52.2266 21.1631 52.7188 20.8213 53.1973C20.484 53.6712 20.0944 54.1156 19.6523 54.5303C19.4336 54.7354 19.1966 54.9382 18.9414 55.1387C18.6862 55.3346 18.4196 55.5124 18.1416 55.6719C17.8636 55.8314 17.5788 55.959 17.2871 56.0547C16.9954 56.1549 16.7061 56.2051 16.4189 56.2051C16.0042 56.2051 15.6442 56.1458 15.3389 56.0273C15.0335 55.9134 14.7783 55.7516 14.5732 55.542C14.3727 55.3324 14.2223 55.084 14.1221 54.7969C14.0218 54.5052 13.9717 54.1862 13.9717 53.8398C13.9717 53.6758 13.9854 53.4958 14.0127 53.2998C14.04 53.0993 14.0742 52.9033 14.1152 52.7119ZM30.2412 52.9375C30.2412 53.2656 30.1432 53.6029 29.9473 53.9492C29.7559 54.2956 29.4482 54.6191 29.0244 54.9199C28.8923 55.0111 28.7305 55.1113 28.5391 55.2207C28.3522 55.3255 28.1471 55.4326 27.9238 55.542C27.7051 55.6514 27.4727 55.7585 27.2266 55.8633C26.985 55.9635 26.7389 56.0524 26.4883 56.1299C26.2422 56.2074 26.0007 56.2689 25.7637 56.3145C25.5267 56.3646 25.3034 56.3896 25.0938 56.3896C24.9889 56.3896 24.8978 56.3805 24.8203 56.3623C24.7474 56.3486 24.679 56.3213 24.6152 56.2803C24.5514 56.2393 24.4899 56.1823 24.4307 56.1094C24.3714 56.0365 24.3076 55.9453 24.2393 55.8359C24.1299 55.918 24.0137 55.9772 23.8906 56.0137C23.7721 56.0547 23.6514 56.0752 23.5283 56.0752H23.3369C23.3005 56.0752 23.2663 56.0615 23.2344 56.0342C23.2025 56.0114 23.1729 55.9818 23.1455 55.9453C23.1227 55.9089 23.1045 55.8701 23.0908 55.8291C23.0771 55.7835 23.0703 55.7402 23.0703 55.6992C23.0703 55.4668 23.1022 55.2458 23.166 55.0361C23.2344 54.8219 23.3118 54.61 23.3984 54.4004C23.526 54.013 23.6559 53.6074 23.7881 53.1836C23.9202 52.7552 24.0479 52.3268 24.1709 51.8984C24.2939 51.4701 24.4102 51.0485 24.5195 50.6338C24.6335 50.2145 24.7383 49.818 24.834 49.4443L25.0254 48.6514C25.0254 48.6377 25.0231 48.599 25.0186 48.5352C25.014 48.4714 25.0072 48.403 24.998 48.3301C24.9935 48.2526 24.9889 48.182 24.9844 48.1182L24.9775 48.0293L25.0117 47.9131L25.0049 47.9199C25.0277 47.8379 25.0596 47.7445 25.1006 47.6396C25.1416 47.5348 25.1917 47.4368 25.251 47.3457C25.3102 47.2546 25.374 47.1794 25.4424 47.1201C25.5153 47.0563 25.5928 47.0244 25.6748 47.0244C25.7523 47.0244 25.8503 47.0312 25.9688 47.0449C26.0918 47.054 26.2012 47.0586 26.2969 47.0586C26.3424 47.0586 26.3857 47.0563 26.4268 47.0518C26.4723 47.0472 26.527 47.0358 26.5908 47.0176C26.6592 46.9993 26.7458 46.9743 26.8506 46.9424C26.96 46.9059 27.1012 46.8581 27.2744 46.7988C27.5342 46.7077 27.7712 46.6325 27.9854 46.5732C28.2041 46.5094 28.4092 46.4593 28.6006 46.4229C28.7965 46.3818 28.9857 46.3522 29.168 46.334C29.3503 46.3158 29.5371 46.3066 29.7285 46.3066C29.9701 46.3066 30.2025 46.3294 30.4258 46.375C30.6536 46.4206 30.8542 46.4958 31.0273 46.6006C31.2051 46.7008 31.3464 46.8353 31.4512 47.0039C31.556 47.168 31.6084 47.3685 31.6084 47.6055C31.6084 48.0111 31.5013 48.3757 31.2871 48.6992C31.0729 49.0228 30.7699 49.3236 30.3779 49.6016C29.986 49.8796 29.5143 50.1393 28.9629 50.3809C28.416 50.6178 27.8053 50.8525 27.1309 51.085C27.6686 51.167 28.1312 51.265 28.5186 51.3789C28.9105 51.4883 29.234 51.6182 29.4893 51.7686C29.7445 51.9189 29.9336 52.0898 30.0566 52.2812C30.1797 52.4727 30.2412 52.6914 30.2412 52.9375ZM27.917 52.3086C27.8714 52.2995 27.7871 52.2835 27.6641 52.2607C27.5456 52.238 27.4043 52.2129 27.2402 52.1855C27.0807 52.1582 26.9076 52.1309 26.7207 52.1035C26.5339 52.0716 26.3561 52.042 26.1875 52.0146C26.0189 51.9827 25.8639 51.9531 25.7227 51.9258C25.5859 51.8984 25.4857 51.8757 25.4219 51.8574C25.2487 52.418 25.096 52.9557 24.9639 53.4707C24.8363 53.9811 24.7064 54.4961 24.5742 55.0156L25.0254 55.0635C25.1302 55.0726 25.2214 55.0817 25.2988 55.0908C25.3809 55.0954 25.4287 55.0977 25.4424 55.0977C25.6247 55.0794 25.8252 55.0452 26.0439 54.9951C26.2627 54.9404 26.4883 54.8743 26.7207 54.7969C26.9577 54.7148 27.1969 54.6214 27.4385 54.5166C27.68 54.4072 27.917 54.291 28.1494 54.168C28.236 54.1133 28.3271 54.0472 28.4229 53.9697C28.5186 53.8923 28.6051 53.8079 28.6826 53.7168C28.7601 53.6211 28.8239 53.5208 28.874 53.416C28.9242 53.3112 28.9492 53.2041 28.9492 53.0947C28.9492 52.9124 28.8535 52.7552 28.6621 52.623C28.4707 52.4863 28.2223 52.3815 27.917 52.3086ZM25.7568 50.7227C26.012 50.6406 26.2809 50.5449 26.5635 50.4355C26.846 50.3216 27.1354 50.1986 27.4316 50.0664C27.7324 49.9342 28.0355 49.7952 28.3408 49.6494C28.6507 49.499 28.9583 49.3486 29.2637 49.1982H29.2568C29.3662 49.139 29.4733 49.0684 29.5781 48.9863C29.6875 48.8997 29.7832 48.8086 29.8652 48.7129C29.9518 48.6126 30.0202 48.5101 30.0703 48.4053C30.125 48.2959 30.1523 48.1888 30.1523 48.084C30.1523 48.0156 30.1364 47.9473 30.1045 47.8789C30.0726 47.8105 30.0225 47.749 29.9541 47.6943C29.8857 47.6396 29.7946 47.5964 29.6807 47.5645C29.5713 47.5326 29.4346 47.5166 29.2705 47.5166C29.0426 47.5166 28.7852 47.5462 28.498 47.6055C28.2109 47.6602 27.9329 47.7308 27.6641 47.8174C27.3952 47.904 27.1559 47.9997 26.9463 48.1045C26.7367 48.2093 26.5977 48.3096 26.5293 48.4053C26.5156 48.4281 26.4951 48.4782 26.4678 48.5557C26.445 48.6331 26.4176 48.7197 26.3857 48.8154C26.3538 48.9066 26.3197 48.9954 26.2832 49.082C26.2513 49.1686 26.2194 49.2324 26.1875 49.2734C26.1784 49.319 26.1602 49.3896 26.1328 49.4854C26.1055 49.5765 26.0713 49.6859 26.0303 49.8135C25.9938 49.9411 25.9505 50.0824 25.9004 50.2373C25.8548 50.3923 25.807 50.554 25.7568 50.7227ZM34.6777 54.8994C34.8509 54.1429 35.0446 53.3796 35.2588 52.6094C35.4775 51.8392 35.6895 51.0758 35.8945 50.3193C35.9811 50.0049 36.0563 49.7201 36.1201 49.4648C36.1885 49.2051 36.2454 48.9704 36.291 48.7607C36.3366 48.5511 36.3708 48.362 36.3936 48.1934C36.4163 48.0202 36.4277 47.8607 36.4277 47.7148C36.4277 47.6875 36.4277 47.6579 36.4277 47.626C36.4277 47.5895 36.4255 47.5462 36.4209 47.4961C36.3753 47.4961 36.2728 47.5212 36.1133 47.5713C35.9583 47.6214 35.7738 47.6875 35.5596 47.7695C35.3499 47.8516 35.1266 47.945 34.8896 48.0498C34.6572 48.1501 34.4408 48.2526 34.2402 48.3574C34.0807 48.4395 33.9463 48.5078 33.8369 48.5625C33.7321 48.6172 33.641 48.6605 33.5635 48.6924C33.486 48.7197 33.4154 48.7402 33.3516 48.7539C33.2878 48.763 33.2217 48.7676 33.1533 48.7676C33.012 48.7676 32.889 48.7129 32.7842 48.6035C32.6839 48.4941 32.6338 48.3529 32.6338 48.1797C32.6338 48.0794 32.6429 47.9928 32.6611 47.9199C32.6839 47.8424 32.7158 47.7741 32.7568 47.7148C32.8024 47.6556 32.8617 47.6009 32.9346 47.5508C33.0075 47.4961 33.0964 47.4414 33.2012 47.3867C34.3542 46.7852 35.5208 46.3454 36.7012 46.0674C37.8815 45.7848 39.0664 45.6436 40.2559 45.6436C40.3516 45.6436 40.4655 45.6458 40.5977 45.6504C40.7298 45.6549 40.8643 45.6641 41.001 45.6777C41.1423 45.6868 41.279 45.7028 41.4111 45.7256C41.5433 45.7438 41.6595 45.7666 41.7598 45.7939C41.8646 45.8258 41.9557 45.8919 42.0332 45.9922C42.1107 46.0924 42.1494 46.1995 42.1494 46.3135C42.1494 46.4046 42.1403 46.4935 42.1221 46.5801C42.1084 46.6667 42.0811 46.7419 42.04 46.8057C41.999 46.8695 41.9443 46.9219 41.876 46.9629C41.8122 46.9993 41.7324 47.0176 41.6367 47.0176C41.4727 46.9993 41.2835 46.9766 41.0693 46.9492C40.8597 46.9219 40.6478 46.9082 40.4336 46.9082C40.0052 46.9082 39.5768 46.9196 39.1484 46.9424C38.7246 46.9606 38.2894 47.0199 37.8428 47.1201C37.82 47.1292 37.804 47.1543 37.7949 47.1953C37.7904 47.2318 37.7858 47.2796 37.7812 47.3389C37.7676 47.585 37.7471 47.8014 37.7197 47.9883C37.6924 48.1751 37.6536 48.362 37.6035 48.5488C37.5579 48.7357 37.501 48.9385 37.4326 49.1572C37.3643 49.3714 37.2845 49.6312 37.1934 49.9365C37.1022 50.2373 36.9951 50.5996 36.8721 51.0234C36.7536 51.4427 36.6214 51.9508 36.4756 52.5479L36.1475 53.874C36.07 54.1794 36.0085 54.4551 35.9629 54.7012C35.9219 54.9427 35.8854 55.182 35.8535 55.4189C35.8353 55.4964 35.7646 55.5693 35.6416 55.6377C35.5231 55.7061 35.3818 55.7402 35.2178 55.7402C35.1221 55.7402 35.0355 55.7152 34.958 55.665C34.8805 55.6104 34.8167 55.542 34.7666 55.46C34.7165 55.3779 34.6823 55.2891 34.6641 55.1934C34.6458 55.0931 34.6504 54.9951 34.6777 54.8994ZM40.7207 55.4941C40.7207 55.3346 40.7435 55.166 40.7891 54.9883C40.944 54.3685 41.124 53.7624 41.3291 53.1699C41.5387 52.5729 41.7279 51.9805 41.8965 51.3926C42.0651 50.8047 42.2041 50.3102 42.3135 49.9092C42.4274 49.5036 42.5277 49.1572 42.6143 48.8701C42.7008 48.5785 42.7806 48.3278 42.8535 48.1182C42.9264 47.9085 43.0062 47.7012 43.0928 47.4961C43.1475 47.373 43.2067 47.2454 43.2705 47.1133C43.3389 46.9811 43.4118 46.8604 43.4893 46.751C43.5667 46.637 43.6465 46.5459 43.7285 46.4775C43.8151 46.4046 43.904 46.3682 43.9951 46.3682C44.182 46.3682 44.3232 46.4001 44.4189 46.4639C44.5192 46.5231 44.5807 46.5778 44.6035 46.6279L44.665 46.9082C44.7334 46.9036 44.8223 46.8923 44.9316 46.874C45.041 46.8512 45.1504 46.8285 45.2598 46.8057C45.3737 46.7829 45.4785 46.7601 45.5742 46.7373C45.6699 46.7145 45.7428 46.694 45.793 46.6758C46.0938 46.5938 46.3717 46.5231 46.627 46.4639C46.8822 46.4046 47.1237 46.3568 47.3516 46.3203C47.584 46.2793 47.805 46.2497 48.0146 46.2314C48.2243 46.2132 48.4362 46.2041 48.6504 46.2041C48.86 46.2041 49.0309 46.2155 49.1631 46.2383C49.2952 46.2611 49.4001 46.293 49.4775 46.334C49.555 46.3704 49.6074 46.416 49.6348 46.4707C49.6667 46.5208 49.6826 46.5755 49.6826 46.6348C49.6826 46.6895 49.6667 46.7487 49.6348 46.8125C49.6074 46.8717 49.5596 46.9287 49.4912 46.9834C49.4229 47.0381 49.334 47.0859 49.2246 47.127C49.1152 47.168 48.9785 47.1953 48.8145 47.209C48.7734 47.2181 48.6777 47.2363 48.5273 47.2637C48.3815 47.2865 48.222 47.3138 48.0488 47.3457C47.8757 47.373 47.7116 47.4004 47.5566 47.4277C47.4017 47.4551 47.2946 47.4756 47.2354 47.4893H47.2422C47.2148 47.4938 47.1488 47.512 47.0439 47.5439C46.9437 47.5713 46.8206 47.6055 46.6748 47.6465C46.529 47.6829 46.3695 47.7262 46.1963 47.7764C46.0277 47.8265 45.859 47.8766 45.6904 47.9268C45.5264 47.9723 45.3737 48.0179 45.2324 48.0635C45.0911 48.1045 44.9772 48.1387 44.8906 48.166C44.6126 48.2754 44.3939 48.4212 44.2344 48.6035C44.0794 48.7812 43.9564 48.9818 43.8652 49.2051C43.847 49.2461 43.8197 49.3167 43.7832 49.417C43.7467 49.5127 43.7057 49.6243 43.6602 49.752C43.6191 49.875 43.5736 50.0072 43.5234 50.1484C43.4733 50.2897 43.4255 50.4242 43.3799 50.5518C43.3343 50.6794 43.2933 50.7956 43.2568 50.9004C43.2249 51.0052 43.2021 51.0827 43.1885 51.1328C43.1748 51.1784 43.1657 51.2194 43.1611 51.2559C43.1566 51.2923 43.1543 51.3197 43.1543 51.3379C43.1543 51.3652 43.1611 51.3789 43.1748 51.3789C43.2432 51.3789 43.3844 51.3493 43.5986 51.29C43.8174 51.2262 44.0703 51.1488 44.3574 51.0576C44.6491 50.9665 44.959 50.8685 45.2871 50.7637C45.6198 50.6589 45.9365 50.5609 46.2373 50.4697C46.5426 50.3786 46.8138 50.3034 47.0508 50.2441C47.2878 50.1803 47.4587 50.1484 47.5635 50.1484C47.723 50.1484 47.8301 50.1758 47.8848 50.2305C47.9395 50.2806 47.9668 50.3376 47.9668 50.4014C47.9668 50.5654 47.9076 50.709 47.7891 50.832C47.6751 50.9551 47.5316 51.0622 47.3584 51.1533C47.3037 51.1807 47.2012 51.2217 47.0508 51.2764C46.9049 51.3265 46.7454 51.3789 46.5723 51.4336C46.4036 51.4883 46.2419 51.5407 46.0869 51.5908C45.932 51.641 45.8203 51.6774 45.752 51.7002C45.3053 51.8734 44.9408 52.0169 44.6582 52.1309C44.3802 52.2402 44.1546 52.3314 43.9814 52.4043C43.8083 52.4727 43.6738 52.5251 43.5781 52.5615C43.487 52.598 43.4004 52.6299 43.3184 52.6572C43.2409 52.68 43.1543 52.7028 43.0586 52.7256C42.9629 52.7484 42.8307 52.7803 42.6621 52.8213C42.6211 52.917 42.5732 53.0628 42.5186 53.2588C42.4639 53.4502 42.4115 53.6507 42.3613 53.8604C42.3112 54.0654 42.2679 54.2568 42.2314 54.4346C42.1995 54.6123 42.1836 54.7354 42.1836 54.8037C42.1836 54.8857 42.195 54.9473 42.2178 54.9883C42.2406 55.0247 42.2679 55.0498 42.2998 55.0635C42.3317 55.0771 42.3636 55.084 42.3955 55.084C42.4274 55.084 42.4525 55.084 42.4707 55.084C42.6895 55.084 42.9515 55.0521 43.2568 54.9883C43.5667 54.9245 43.8721 54.8402 44.1729 54.7354C44.46 54.6351 44.7106 54.5257 44.9248 54.4072C45.139 54.2887 45.3395 54.1794 45.5264 54.0791C45.7178 53.9743 45.9023 53.8877 46.0801 53.8193C46.2624 53.7464 46.4606 53.7077 46.6748 53.7031C46.7204 53.7031 46.7728 53.7077 46.832 53.7168C46.8958 53.7259 46.9551 53.7441 47.0098 53.7715C47.0645 53.7943 47.1077 53.8262 47.1396 53.8672C47.1761 53.9082 47.1898 53.9606 47.1807 54.0244C47.1624 54.1566 47.0964 54.2865 46.9824 54.4141C46.8685 54.5417 46.7249 54.6647 46.5518 54.7832C46.3786 54.9017 46.1849 55.0156 45.9707 55.125C45.7565 55.2344 45.5378 55.3392 45.3145 55.4395C45.0911 55.5352 44.8724 55.624 44.6582 55.7061C44.444 55.7835 44.2526 55.8519 44.084 55.9111C43.6647 56.057 43.2568 56.1641 42.8604 56.2324C42.4639 56.3008 42.1084 56.335 41.7939 56.335C41.4476 56.335 41.181 56.2689 40.9941 56.1367C40.8118 56.0091 40.7207 55.7949 40.7207 55.4941ZM49.3203 55.1387C49.5801 54.0951 49.849 53.0651 50.127 52.0488C50.4049 51.028 50.6738 49.9958 50.9336 48.9521C50.9655 48.8154 50.9974 48.6855 51.0293 48.5625C51.0612 48.4395 51.0908 48.3164 51.1182 48.1934C51.1455 48.0703 51.166 47.9473 51.1797 47.8242C51.1979 47.6966 51.207 47.5645 51.207 47.4277C51.207 47.3229 51.2002 47.2272 51.1865 47.1406C51.1729 47.054 51.166 46.9561 51.166 46.8467C51.166 46.7419 51.1797 46.6302 51.207 46.5117C51.2754 46.2337 51.3711 46.0264 51.4941 45.8896C51.6217 45.7529 51.8132 45.6846 52.0684 45.6846C52.1732 45.6846 52.2734 45.696 52.3691 45.7188C52.4694 45.737 52.5674 45.7598 52.6631 45.7871C52.7679 45.819 52.875 45.8464 52.9844 45.8691C53.0983 45.8919 53.2122 45.9033 53.3262 45.9033C53.4173 45.9033 53.5062 45.8988 53.5928 45.8896C53.6794 45.8805 53.7773 45.8714 53.8867 45.8623C54.0007 45.8532 54.1328 45.8441 54.2832 45.835C54.4382 45.8258 54.6318 45.8213 54.8643 45.8213C54.9919 45.8213 55.1423 45.8258 55.3154 45.835C55.4886 45.8441 55.6686 45.8646 55.8555 45.8965C56.0423 45.9284 56.2314 45.9762 56.4229 46.04C56.6143 46.0993 56.792 46.1813 56.9561 46.2861C57.1247 46.391 57.2728 46.5208 57.4004 46.6758C57.528 46.8262 57.6237 47.0085 57.6875 47.2227C57.7194 47.3275 57.7399 47.4232 57.749 47.5098C57.7627 47.5964 57.7695 47.6807 57.7695 47.7627C57.7695 48.0407 57.6989 48.3141 57.5576 48.583C57.3981 48.8883 57.1816 49.1755 56.9082 49.4443C56.6393 49.7087 56.3249 49.9593 55.9648 50.1963C55.8236 50.292 55.6595 50.3923 55.4727 50.4971C55.2858 50.5973 55.1012 50.6953 54.9189 50.791C54.7412 50.8822 54.5794 50.9665 54.4336 51.0439C54.2923 51.1214 54.1943 51.1807 54.1396 51.2217C54.2992 51.2992 54.4587 51.3812 54.6182 51.4678C54.7777 51.5498 54.9395 51.6501 55.1035 51.7686C55.2721 51.887 55.4408 52.0306 55.6094 52.1992C55.7826 52.3678 55.9603 52.5752 56.1426 52.8213C56.3294 53.0628 56.5208 53.3499 56.7168 53.6826C56.9173 54.0153 57.1247 54.4072 57.3389 54.8584C57.3936 54.9678 57.4209 55.084 57.4209 55.207C57.4209 55.3027 57.4004 55.3984 57.3594 55.4941C57.3229 55.5898 57.2705 55.6764 57.2021 55.7539C57.1383 55.8314 57.0609 55.8952 56.9697 55.9453C56.8786 55.9909 56.7806 56.0137 56.6758 56.0137C56.5163 56.0137 56.3841 55.9544 56.2793 55.8359C56.1745 55.7174 56.0742 55.5625 55.9785 55.3711C55.8828 55.1797 55.7826 54.9632 55.6777 54.7217C55.5775 54.4801 55.4521 54.2363 55.3018 53.9902C55.1377 53.7259 54.9554 53.4753 54.7549 53.2383C54.5589 53.0013 54.3493 52.7962 54.126 52.623C53.9027 52.4499 53.6725 52.3132 53.4355 52.2129C53.1986 52.1081 52.9616 52.0557 52.7246 52.0557H52.6221C52.4808 52.0557 52.3532 52.0693 52.2393 52.0967C52.1299 52.1195 52.0228 52.14 51.918 52.1582C51.7767 52.1081 51.6742 52.026 51.6104 51.9121C51.5465 51.7982 51.5146 51.6706 51.5146 51.5293V51.4336L50.9678 53.5869C50.9495 53.6553 50.9245 53.7487 50.8926 53.8672C50.8607 53.9857 50.8242 54.1156 50.7832 54.2568C50.7422 54.3981 50.6989 54.5462 50.6533 54.7012C50.6123 54.8561 50.5713 55.002 50.5303 55.1387C50.4938 55.2754 50.4596 55.3984 50.4277 55.5078C50.4004 55.6172 50.3799 55.6992 50.3662 55.7539C50.3024 55.8678 50.2204 55.9567 50.1201 56.0205C50.0244 56.0889 49.9196 56.123 49.8057 56.123C49.6051 56.123 49.4661 56.0638 49.3887 55.9453C49.3112 55.8223 49.2725 55.681 49.2725 55.5215C49.2725 55.4577 49.277 55.3939 49.2861 55.3301C49.2952 55.2617 49.3066 55.1979 49.3203 55.1387ZM52.6768 47.4277C52.6494 47.5189 52.6084 47.651 52.5537 47.8242C52.5036 47.9974 52.4466 48.1934 52.3828 48.4121C52.319 48.6309 52.2507 48.8656 52.1777 49.1162C52.1048 49.3669 52.0319 49.6198 51.959 49.875C51.8861 50.1257 51.8154 50.3695 51.7471 50.6064C51.6787 50.8434 51.6172 51.0553 51.5625 51.2422C51.6536 51.1237 51.7904 51.0189 51.9727 50.9277C52.1549 50.832 52.36 50.7432 52.5879 50.6611C52.7656 50.5973 52.9844 50.5085 53.2441 50.3945C53.5039 50.276 53.7751 50.1416 54.0576 49.9912C54.3447 49.8408 54.6296 49.679 54.9121 49.5059C55.1992 49.3281 55.4544 49.1481 55.6777 48.9658C55.9056 48.779 56.0902 48.5944 56.2314 48.4121C56.3727 48.2253 56.4434 48.0452 56.4434 47.8721C56.4434 47.7035 56.3841 47.5713 56.2656 47.4756C56.1471 47.3753 55.999 47.3001 55.8213 47.25C55.6436 47.1999 55.4476 47.168 55.2334 47.1543C55.0238 47.1361 54.8278 47.127 54.6455 47.127C54.3174 47.127 53.9893 47.1475 53.6611 47.1885C53.333 47.2295 53.0049 47.3092 52.6768 47.4277ZM59.082 55.1387C59.3418 54.0951 59.6107 53.0651 59.8887 52.0488C60.1667 51.028 60.4355 49.9958 60.6953 48.9521C60.7272 48.8154 60.7591 48.6855 60.791 48.5625C60.8229 48.4395 60.8525 48.3164 60.8799 48.1934C60.9072 48.0703 60.9277 47.9473 60.9414 47.8242C60.9596 47.6966 60.9688 47.5645 60.9688 47.4277C60.9688 47.3229 60.9619 47.2272 60.9482 47.1406C60.9346 47.054 60.9277 46.9561 60.9277 46.8467C60.9277 46.7419 60.9414 46.6302 60.9688 46.5117C61.0371 46.2337 61.1328 46.0264 61.2559 45.8896C61.3835 45.7529 61.5749 45.6846 61.8301 45.6846C61.9349 45.6846 62.0352 45.696 62.1309 45.7188C62.2311 45.737 62.3291 45.7598 62.4248 45.7871C62.5296 45.819 62.6367 45.8464 62.7461 45.8691C62.86 45.8919 62.974 45.9033 63.0879 45.9033C63.179 45.9033 63.2679 45.8988 63.3545 45.8896C63.4411 45.8805 63.5391 45.8714 63.6484 45.8623C63.7624 45.8532 63.8945 45.8441 64.0449 45.835C64.1999 45.8258 64.3936 45.8213 64.626 45.8213C64.7536 45.8213 64.904 45.8258 65.0771 45.835C65.2503 45.8441 65.4303 45.8646 65.6172 45.8965C65.804 45.9284 65.9932 45.9762 66.1846 46.04C66.376 46.0993 66.5537 46.1813 66.7178 46.2861C66.8864 46.391 67.0345 46.5208 67.1621 46.6758C67.2897 46.8262 67.3854 47.0085 67.4492 47.2227C67.4811 47.3275 67.5016 47.4232 67.5107 47.5098C67.5244 47.5964 67.5312 47.6807 67.5312 47.7627C67.5312 48.0407 67.4606 48.3141 67.3193 48.583C67.1598 48.8883 66.9434 49.1755 66.6699 49.4443C66.401 49.7087 66.0866 49.9593 65.7266 50.1963C65.5853 50.292 65.4212 50.3923 65.2344 50.4971C65.0475 50.5973 64.863 50.6953 64.6807 50.791C64.5029 50.8822 64.3411 50.9665 64.1953 51.0439C64.054 51.1214 63.9561 51.1807 63.9014 51.2217C64.0609 51.2992 64.2204 51.3812 64.3799 51.4678C64.5394 51.5498 64.7012 51.6501 64.8652 51.7686C65.0339 51.887 65.2025 52.0306 65.3711 52.1992C65.5443 52.3678 65.722 52.5752 65.9043 52.8213C66.0911 53.0628 66.2826 53.3499 66.4785 53.6826C66.679 54.0153 66.8864 54.4072 67.1006 54.8584C67.1553 54.9678 67.1826 55.084 67.1826 55.207C67.1826 55.3027 67.1621 55.3984 67.1211 55.4941C67.0846 55.5898 67.0322 55.6764 66.9639 55.7539C66.9001 55.8314 66.8226 55.8952 66.7314 55.9453C66.6403 55.9909 66.5423 56.0137 66.4375 56.0137C66.278 56.0137 66.1458 55.9544 66.041 55.8359C65.9362 55.7174 65.8359 55.5625 65.7402 55.3711C65.6445 55.1797 65.5443 54.9632 65.4395 54.7217C65.3392 54.4801 65.2139 54.2363 65.0635 53.9902C64.8994 53.7259 64.7171 53.4753 64.5166 53.2383C64.3206 53.0013 64.111 52.7962 63.8877 52.623C63.6644 52.4499 63.4342 52.3132 63.1973 52.2129C62.9603 52.1081 62.7233 52.0557 62.4863 52.0557H62.3838C62.2425 52.0557 62.1149 52.0693 62.001 52.0967C61.8916 52.1195 61.7845 52.14 61.6797 52.1582C61.5384 52.1081 61.4359 52.026 61.3721 51.9121C61.3083 51.7982 61.2764 51.6706 61.2764 51.5293V51.4336L60.7295 53.5869C60.7113 53.6553 60.6862 53.7487 60.6543 53.8672C60.6224 53.9857 60.5859 54.1156 60.5449 54.2568C60.5039 54.3981 60.4606 54.5462 60.415 54.7012C60.374 54.8561 60.333 55.002 60.292 55.1387C60.2555 55.2754 60.2214 55.3984 60.1895 55.5078C60.1621 55.6172 60.1416 55.6992 60.1279 55.7539C60.0641 55.8678 59.9821 55.9567 59.8818 56.0205C59.7861 56.0889 59.6813 56.123 59.5674 56.123C59.3669 56.123 59.2279 56.0638 59.1504 55.9453C59.0729 55.8223 59.0342 55.681 59.0342 55.5215C59.0342 55.4577 59.0387 55.3939 59.0479 55.3301C59.057 55.2617 59.0684 55.1979 59.082 55.1387ZM62.4385 47.4277C62.4111 47.5189 62.3701 47.651 62.3154 47.8242C62.2653 47.9974 62.2083 48.1934 62.1445 48.4121C62.0807 48.6309 62.0124 48.8656 61.9395 49.1162C61.8665 49.3669 61.7936 49.6198 61.7207 49.875C61.6478 50.1257 61.5771 50.3695 61.5088 50.6064C61.4404 50.8434 61.3789 51.0553 61.3242 51.2422C61.4154 51.1237 61.5521 51.0189 61.7344 50.9277C61.9167 50.832 62.1217 50.7432 62.3496 50.6611C62.5273 50.5973 62.7461 50.5085 63.0059 50.3945C63.2656 50.276 63.5368 50.1416 63.8193 49.9912C64.1064 49.8408 64.3913 49.679 64.6738 49.5059C64.9609 49.3281 65.2161 49.1481 65.4395 48.9658C65.6673 48.779 65.8519 48.5944 65.9932 48.4121C66.1344 48.2253 66.2051 48.0452 66.2051 47.8721C66.2051 47.7035 66.1458 47.5713 66.0273 47.4756C65.9089 47.3753 65.7607 47.3001 65.583 47.25C65.4053 47.1999 65.2093 47.168 64.9951 47.1543C64.7855 47.1361 64.5895 47.127 64.4072 47.127C64.0791 47.127 63.751 47.1475 63.4229 47.1885C63.0947 47.2295 62.7666 47.3092 62.4385 47.4277ZM74.6885 56.0752C74.5928 56.0752 74.5085 56.057 74.4355 56.0205C74.3626 55.984 74.3011 55.9362 74.251 55.877C74.2054 55.8177 74.1689 55.7493 74.1416 55.6719C74.1188 55.5944 74.1074 55.5169 74.1074 55.4395C74.1074 55.3711 74.1257 55.2777 74.1621 55.1592C74.1986 55.0361 74.2441 54.8994 74.2988 54.749C74.3581 54.5986 74.4219 54.4414 74.4902 54.2773C74.5586 54.1133 74.6247 53.9561 74.6885 53.8057C74.7523 53.6553 74.807 53.5163 74.8525 53.3887C74.8981 53.2611 74.93 53.1608 74.9482 53.0879C74.9665 53.0059 74.9893 52.9079 75.0166 52.7939C75.0439 52.68 75.0736 52.557 75.1055 52.4248C75.1419 52.2881 75.1761 52.1468 75.208 52.001C75.2445 51.8506 75.2809 51.7002 75.3174 51.5498C75.2536 51.5635 75.1738 51.5771 75.0781 51.5908C74.987 51.5999 74.889 51.609 74.7842 51.6182C74.6338 51.6318 74.4857 51.6523 74.3398 51.6797C74.194 51.707 74.0436 51.7389 73.8887 51.7754C73.7383 51.8073 73.5811 51.8438 73.417 51.8848C73.2529 51.9212 73.0775 51.96 72.8906 52.001C72.6172 52.0602 72.3438 52.1263 72.0703 52.1992C71.7969 52.2721 71.512 52.3086 71.2158 52.3086C71.1247 52.3086 71.0404 52.2858 70.9629 52.2402C70.8854 52.1901 70.7988 52.1536 70.7031 52.1309C70.612 52.2767 70.5254 52.4339 70.4434 52.6025C70.3613 52.7666 70.2861 52.9375 70.2178 53.1152C70.1494 53.2884 70.0879 53.4616 70.0332 53.6348C69.9785 53.8034 69.9307 53.9629 69.8896 54.1133C69.8669 54.1953 69.8464 54.3024 69.8281 54.4346C69.8145 54.5622 69.8008 54.6943 69.7871 54.8311C69.7734 54.9632 69.7598 55.0908 69.7461 55.2139C69.7324 55.3369 69.7188 55.4349 69.7051 55.5078C69.6914 55.5762 69.6641 55.6445 69.623 55.7129C69.582 55.7767 69.5319 55.8359 69.4727 55.8906C69.4134 55.9453 69.3473 55.9886 69.2744 56.0205C69.2015 56.057 69.1286 56.0752 69.0557 56.0752C68.9281 56.0752 68.8232 56.0387 68.7412 55.9658C68.6637 55.8883 68.5999 55.7949 68.5498 55.6855C68.5042 55.5716 68.4723 55.4486 68.4541 55.3164C68.4359 55.1842 68.4268 55.0635 68.4268 54.9541C68.4268 54.6761 68.4609 54.389 68.5293 54.0928C68.5977 53.792 68.6888 53.4889 68.8027 53.1836C68.9212 52.8737 69.0579 52.5638 69.2129 52.2539C69.3724 51.9395 69.5433 51.6273 69.7256 51.3174C69.876 51.0394 70.0628 50.7181 70.2861 50.3535C70.5094 49.9889 70.7578 49.6152 71.0312 49.2324C71.3092 48.8451 71.6077 48.4668 71.9268 48.0977C72.2503 47.7285 72.5853 47.4004 72.9316 47.1133C73.278 46.8216 73.6335 46.5869 73.998 46.4092C74.3626 46.2314 74.7249 46.1426 75.085 46.1426C75.4632 46.1426 75.7777 46.2109 76.0283 46.3477C76.2835 46.4844 76.4863 46.6689 76.6367 46.9014C76.7871 47.1338 76.8919 47.4049 76.9512 47.7148C77.015 48.0247 77.0469 48.3529 77.0469 48.6992C77.0469 49.0046 77.0264 49.319 76.9854 49.6426C76.9489 49.9661 76.901 50.2829 76.8418 50.5928C76.7871 50.9027 76.7256 51.2012 76.6572 51.4883C76.5934 51.7754 76.5342 52.0352 76.4795 52.2676L76.2402 53.1973C76.2311 53.2246 76.2129 53.2793 76.1855 53.3613C76.1628 53.4434 76.1309 53.5436 76.0898 53.6621C76.0534 53.776 76.0101 53.9014 75.96 54.0381C75.9144 54.1702 75.8665 54.3024 75.8164 54.4346C75.7708 54.5622 75.7253 54.6807 75.6797 54.79C75.6387 54.8994 75.6022 54.9883 75.5703 55.0566L75.5771 55.0498C75.5452 55.1683 75.5111 55.2891 75.4746 55.4121C75.4382 55.5352 75.388 55.6468 75.3242 55.7471C75.2604 55.8428 75.1784 55.9225 75.0781 55.9863C74.9779 56.0456 74.848 56.0752 74.6885 56.0752ZM75.0371 47.5166C74.832 47.5166 74.627 47.5599 74.4219 47.6465C74.2214 47.7285 74.0231 47.8379 73.8271 47.9746C73.6312 48.1113 73.4398 48.2708 73.2529 48.4531C73.0706 48.6354 72.8952 48.8223 72.7266 49.0137C72.5625 49.2051 72.4076 49.3988 72.2617 49.5947C72.1159 49.7861 71.9837 49.9639 71.8652 50.1279C71.847 50.1553 71.8219 50.1917 71.79 50.2373C71.7627 50.2783 71.7331 50.3262 71.7012 50.3809C71.6738 50.431 71.6465 50.4857 71.6191 50.5449C71.5918 50.5996 71.569 50.6497 71.5508 50.6953H72.2549C72.5101 50.6953 72.8018 50.6771 73.1299 50.6406C73.458 50.6042 73.7816 50.5609 74.1006 50.5107C74.4242 50.4606 74.7204 50.4105 74.9893 50.3604C75.2581 50.3057 75.4609 50.2646 75.5977 50.2373C75.6159 50.1781 75.6318 50.0983 75.6455 49.998C75.6637 49.8978 75.6797 49.7861 75.6934 49.6631C75.707 49.54 75.7161 49.4102 75.7207 49.2734C75.7298 49.1322 75.7344 48.9886 75.7344 48.8428C75.7344 48.7243 75.7298 48.5898 75.7207 48.4395C75.7116 48.2845 75.6842 48.1387 75.6387 48.002C75.5931 47.8652 75.5225 47.7513 75.4268 47.6602C75.3356 47.5645 75.2057 47.5166 75.0371 47.5166ZM73.1709 44.666C73.1846 44.6159 73.1937 44.5771 73.1982 44.5498C73.2074 44.5179 73.2165 44.4906 73.2256 44.4678C73.2393 44.445 73.2552 44.4245 73.2734 44.4062C73.2917 44.3835 73.319 44.3538 73.3555 44.3174L73.417 44.2627C73.7087 44.0348 73.9867 43.8115 74.251 43.5928C74.5153 43.374 74.7773 43.153 75.0371 42.9297C75.4382 42.5742 75.8597 42.221 76.3018 41.8701C76.3747 41.8291 76.4339 41.804 76.4795 41.7949C76.5251 41.7858 76.5706 41.7812 76.6162 41.7812H76.7393C76.8942 41.7812 77.0173 41.8086 77.1084 41.8633C77.2041 41.918 77.277 41.9909 77.3271 42.082C77.3773 42.1732 77.4115 42.278 77.4297 42.3965C77.4479 42.5104 77.457 42.6289 77.457 42.752C77.457 42.8158 77.4548 42.8796 77.4502 42.9434C77.4502 43.0072 77.4479 43.071 77.4434 43.1348V43.2031C77.4388 43.2487 77.4342 43.2897 77.4297 43.3262C77.4297 43.3626 77.4297 43.3968 77.4297 43.4287C77.4297 43.4515 77.4297 43.4743 77.4297 43.4971C77.4297 43.5199 77.432 43.5404 77.4365 43.5586L77.4434 43.5449C77.4479 43.5632 77.4548 43.5996 77.4639 43.6543C77.473 43.7044 77.4821 43.7614 77.4912 43.8252C77.5049 43.8844 77.5163 43.9437 77.5254 44.0029C77.5345 44.0576 77.5391 44.0964 77.5391 44.1191C77.5391 44.1283 77.5391 44.1465 77.5391 44.1738C77.5436 44.2012 77.5482 44.2285 77.5527 44.2559C77.5573 44.2878 77.5618 44.3219 77.5664 44.3584C77.5527 44.4222 77.5231 44.4837 77.4775 44.543C77.4365 44.5977 77.3864 44.6455 77.3271 44.6865C77.2725 44.7275 77.2109 44.7617 77.1426 44.7891C77.0742 44.8118 77.0059 44.8232 76.9375 44.8232C76.8646 44.8232 76.8076 44.8118 76.7666 44.7891C76.7301 44.7663 76.6868 44.7367 76.6367 44.7002L76.6162 44.6865L76.5547 44.625C76.5046 44.5339 76.4635 44.4313 76.4316 44.3174C76.4043 44.1989 76.3815 44.0781 76.3633 43.9551C76.3496 43.8275 76.3382 43.6999 76.3291 43.5723C76.3245 43.4447 76.3223 43.3216 76.3223 43.2031L76.2334 43.2441L76.0967 43.333C76.0329 43.3786 75.9349 43.4492 75.8027 43.5449C75.6751 43.6406 75.5384 43.7409 75.3926 43.8457C75.2513 43.9505 75.1146 44.0508 74.9824 44.1465C74.8548 44.2422 74.7591 44.3151 74.6953 44.3652L74.2783 44.7344C74.2464 44.7617 74.2031 44.7913 74.1484 44.8232C74.0983 44.8506 74.0436 44.8757 73.9844 44.8984C73.9251 44.9212 73.8682 44.9395 73.8135 44.9531C73.7633 44.9668 73.7223 44.9736 73.6904 44.9736C73.6403 44.9736 73.5856 44.9714 73.5264 44.9668C73.4671 44.9577 73.4102 44.9463 73.3555 44.9326C73.3008 44.9144 73.2552 44.8893 73.2188 44.8574C73.1823 44.8255 73.1641 44.7822 73.1641 44.7275C73.1641 44.7002 73.1663 44.6797 73.1709 44.666ZM80.4785 47.7285C80.5059 47.61 80.54 47.4847 80.5811 47.3525C80.6221 47.2158 80.6768 47.0928 80.7451 46.9834C80.8135 46.8695 80.9023 46.776 81.0117 46.7031C81.1211 46.6257 81.2601 46.5869 81.4287 46.5869C81.5882 46.5869 81.7295 46.6325 81.8525 46.7236C81.9801 46.8102 82.0941 46.8991 82.1943 46.9902C82.3128 47.0677 82.4268 47.2249 82.5361 47.4619C82.6455 47.6989 82.7572 47.9906 82.8711 48.3369C82.9896 48.6833 83.1149 49.0752 83.2471 49.5127C83.3838 49.9502 83.5319 50.4082 83.6914 50.8867C83.8555 51.3652 84.0378 51.8551 84.2383 52.3564C84.4388 52.8532 84.6667 53.3385 84.9219 53.8125C84.9629 53.8854 85.0107 53.972 85.0654 54.0723C85.1201 54.168 85.1748 54.2591 85.2295 54.3457C85.2887 54.4323 85.3411 54.5052 85.3867 54.5645C85.4368 54.6237 85.4733 54.6533 85.4961 54.6533C85.5098 54.6533 85.5257 54.6191 85.5439 54.5508C85.5622 54.4824 85.5827 54.4004 85.6055 54.3047C85.6283 54.209 85.651 54.111 85.6738 54.0107C85.7012 53.9105 85.7262 53.8285 85.749 53.7646C85.8356 53.555 85.929 53.3158 86.0293 53.0469C86.1341 52.7734 86.248 52.4453 86.3711 52.0625C86.4987 51.6751 86.6377 51.2171 86.7881 50.6885C86.9385 50.1598 87.1048 49.5332 87.2871 48.8086C87.3327 48.6309 87.3805 48.4303 87.4307 48.207C87.4854 47.9792 87.5355 47.749 87.5811 47.5166C87.6312 47.2796 87.6745 47.0495 87.7109 46.8262C87.7474 46.6029 87.7725 46.4092 87.7861 46.2451C87.7861 46.2178 87.7884 46.1699 87.793 46.1016C87.7975 46.0332 87.8044 45.9557 87.8135 45.8691C87.8271 45.7826 87.8431 45.6937 87.8613 45.6025C87.8796 45.5068 87.9023 45.4202 87.9297 45.3428C87.9616 45.2653 88.0003 45.2015 88.0459 45.1514C88.0915 45.1012 88.1462 45.0762 88.21 45.0762C88.2738 45.0762 88.3512 45.0853 88.4424 45.1035C88.5381 45.1217 88.6247 45.1491 88.7021 45.1855C88.7887 45.304 88.8662 45.4476 88.9346 45.6162C89.0075 45.7803 89.0439 46.0036 89.0439 46.2861C89.0439 46.4639 89.0257 46.6781 88.9893 46.9287C88.9528 47.1748 88.9049 47.4414 88.8457 47.7285C88.791 48.0111 88.7272 48.3027 88.6543 48.6035C88.5859 48.9043 88.5153 49.1937 88.4424 49.4717C88.3695 49.7451 88.2988 49.998 88.2305 50.2305C88.1667 50.4583 88.112 50.6475 88.0664 50.7979C87.9844 51.0622 87.8978 51.3356 87.8066 51.6182C87.7201 51.8962 87.6221 52.1901 87.5127 52.5C87.4079 52.8053 87.2917 53.1312 87.1641 53.4775C87.041 53.8193 86.902 54.1862 86.7471 54.5781C86.6787 54.7559 86.599 54.9336 86.5078 55.1113C86.4212 55.2891 86.321 55.4508 86.207 55.5967C86.0931 55.738 85.9632 55.8542 85.8174 55.9453C85.6761 56.0319 85.5166 56.0752 85.3389 56.0752C85.234 56.0752 85.1247 56.0592 85.0107 56.0273C84.9014 56 84.8079 55.9408 84.7305 55.8496C84.3568 55.4167 84.0241 54.9268 83.7324 54.3799C83.4408 53.8285 83.1787 53.2542 82.9463 52.6572C82.7184 52.0557 82.5156 51.4495 82.3379 50.8389C82.1602 50.2236 81.9984 49.6357 81.8525 49.0752L81.8115 48.918C81.7933 48.8542 81.7751 48.7904 81.7568 48.7266C81.7432 48.6582 81.7272 48.5967 81.709 48.542C81.6953 48.4873 81.6771 48.444 81.6543 48.4121C81.6361 48.3757 81.6133 48.3574 81.5859 48.3574C81.5586 48.3574 81.5244 48.4076 81.4834 48.5078C81.4424 48.6081 81.4014 48.722 81.3604 48.8496C81.3193 48.9727 81.2806 49.0934 81.2441 49.2119C81.2122 49.3304 81.1917 49.4056 81.1826 49.4375C81.1507 49.556 81.1029 49.7269 81.0391 49.9502C80.9753 50.1689 80.9023 50.4173 80.8203 50.6953C80.7428 50.9733 80.6562 51.2673 80.5605 51.5771C80.4694 51.887 80.3805 52.1878 80.2939 52.4795C80.2074 52.7666 80.1253 53.0332 80.0479 53.2793C79.9704 53.5254 79.9066 53.7236 79.8564 53.874C79.8154 53.9925 79.7653 54.1452 79.7061 54.332C79.6468 54.5189 79.5876 54.708 79.5283 54.8994C79.4691 55.0863 79.4144 55.2572 79.3643 55.4121C79.3141 55.5671 79.2822 55.6696 79.2686 55.7197C79.2139 55.8929 79.1318 56.0228 79.0225 56.1094C78.9176 56.2005 78.8105 56.2461 78.7012 56.2461C78.6328 56.2461 78.5645 56.221 78.4961 56.1709C78.4277 56.1253 78.3662 56.0684 78.3115 56C78.2614 55.9316 78.2181 55.8587 78.1816 55.7812C78.1497 55.6992 78.1338 55.6263 78.1338 55.5625C78.1338 55.526 78.1452 55.4691 78.168 55.3916C78.1908 55.3096 78.2272 55.1729 78.2773 54.9814L78.4551 54.2773L80.4785 47.7285ZM89.4199 55.4941C89.4199 55.3346 89.4427 55.166 89.4883 54.9883C89.6432 54.3685 89.8232 53.7624 90.0283 53.1699C90.238 52.5729 90.4271 51.9805 90.5957 51.3926C90.7643 50.8047 90.9033 50.3102 91.0127 49.9092C91.1266 49.5036 91.2269 49.1572 91.3135 48.8701C91.4001 48.5785 91.4798 48.3278 91.5527 48.1182C91.6257 47.9085 91.7054 47.7012 91.792 47.4961C91.8467 47.373 91.9059 47.2454 91.9697 47.1133C92.0381 46.9811 92.111 46.8604 92.1885 46.751C92.266 46.637 92.3457 46.5459 92.4277 46.4775C92.5143 46.4046 92.6032 46.3682 92.6943 46.3682C92.8812 46.3682 93.0225 46.4001 93.1182 46.4639C93.2184 46.5231 93.2799 46.5778 93.3027 46.6279L93.3643 46.9082C93.4326 46.9036 93.5215 46.8923 93.6309 46.874C93.7402 46.8512 93.8496 46.8285 93.959 46.8057C94.0729 46.7829 94.1777 46.7601 94.2734 46.7373C94.3691 46.7145 94.4421 46.694 94.4922 46.6758C94.793 46.5938 95.071 46.5231 95.3262 46.4639C95.5814 46.4046 95.8229 46.3568 96.0508 46.3203C96.2832 46.2793 96.5042 46.2497 96.7139 46.2314C96.9235 46.2132 97.1354 46.2041 97.3496 46.2041C97.5592 46.2041 97.7301 46.2155 97.8623 46.2383C97.9945 46.2611 98.0993 46.293 98.1768 46.334C98.2542 46.3704 98.3066 46.416 98.334 46.4707C98.3659 46.5208 98.3818 46.5755 98.3818 46.6348C98.3818 46.6895 98.3659 46.7487 98.334 46.8125C98.3066 46.8717 98.2588 46.9287 98.1904 46.9834C98.1221 47.0381 98.0332 47.0859 97.9238 47.127C97.8145 47.168 97.6777 47.1953 97.5137 47.209C97.4727 47.2181 97.377 47.2363 97.2266 47.2637C97.0807 47.2865 96.9212 47.3138 96.748 47.3457C96.5749 47.373 96.4108 47.4004 96.2559 47.4277C96.1009 47.4551 95.9938 47.4756 95.9346 47.4893H95.9414C95.9141 47.4938 95.848 47.512 95.7432 47.5439C95.6429 47.5713 95.5199 47.6055 95.374 47.6465C95.2282 47.6829 95.0687 47.7262 94.8955 47.7764C94.7269 47.8265 94.5583 47.8766 94.3896 47.9268C94.2256 47.9723 94.0729 48.0179 93.9316 48.0635C93.7904 48.1045 93.6764 48.1387 93.5898 48.166C93.3118 48.2754 93.0931 48.4212 92.9336 48.6035C92.7786 48.7812 92.6556 48.9818 92.5645 49.2051C92.5462 49.2461 92.5189 49.3167 92.4824 49.417C92.446 49.5127 92.4049 49.6243 92.3594 49.752C92.3184 49.875 92.2728 50.0072 92.2227 50.1484C92.1725 50.2897 92.1247 50.4242 92.0791 50.5518C92.0335 50.6794 91.9925 50.7956 91.9561 50.9004C91.9242 51.0052 91.9014 51.0827 91.8877 51.1328C91.874 51.1784 91.8649 51.2194 91.8604 51.2559C91.8558 51.2923 91.8535 51.3197 91.8535 51.3379C91.8535 51.3652 91.8604 51.3789 91.874 51.3789C91.9424 51.3789 92.0837 51.3493 92.2979 51.29C92.5166 51.2262 92.7695 51.1488 93.0566 51.0576C93.3483 50.9665 93.6582 50.8685 93.9863 50.7637C94.319 50.6589 94.6357 50.5609 94.9365 50.4697C95.2419 50.3786 95.513 50.3034 95.75 50.2441C95.987 50.1803 96.1579 50.1484 96.2627 50.1484C96.4222 50.1484 96.5293 50.1758 96.584 50.2305C96.6387 50.2806 96.666 50.3376 96.666 50.4014C96.666 50.5654 96.6068 50.709 96.4883 50.832C96.3743 50.9551 96.2308 51.0622 96.0576 51.1533C96.0029 51.1807 95.9004 51.2217 95.75 51.2764C95.6042 51.3265 95.4447 51.3789 95.2715 51.4336C95.1029 51.4883 94.9411 51.5407 94.7861 51.5908C94.6312 51.641 94.5195 51.6774 94.4512 51.7002C94.0046 51.8734 93.64 52.0169 93.3574 52.1309C93.0794 52.2402 92.8538 52.3314 92.6807 52.4043C92.5075 52.4727 92.373 52.5251 92.2773 52.5615C92.1862 52.598 92.0996 52.6299 92.0176 52.6572C91.9401 52.68 91.8535 52.7028 91.7578 52.7256C91.6621 52.7484 91.5299 52.7803 91.3613 52.8213C91.3203 52.917 91.2725 53.0628 91.2178 53.2588C91.1631 53.4502 91.1107 53.6507 91.0605 53.8604C91.0104 54.0654 90.9671 54.2568 90.9307 54.4346C90.8988 54.6123 90.8828 54.7354 90.8828 54.8037C90.8828 54.8857 90.8942 54.9473 90.917 54.9883C90.9398 55.0247 90.9671 55.0498 90.999 55.0635C91.0309 55.0771 91.0628 55.084 91.0947 55.084C91.1266 55.084 91.1517 55.084 91.1699 55.084C91.3887 55.084 91.6507 55.0521 91.9561 54.9883C92.266 54.9245 92.5713 54.8402 92.8721 54.7354C93.1592 54.6351 93.4098 54.5257 93.624 54.4072C93.8382 54.2887 94.0387 54.1794 94.2256 54.0791C94.417 53.9743 94.6016 53.8877 94.7793 53.8193C94.9616 53.7464 95.1598 53.7077 95.374 53.7031C95.4196 53.7031 95.472 53.7077 95.5312 53.7168C95.5951 53.7259 95.6543 53.7441 95.709 53.7715C95.7637 53.7943 95.807 53.8262 95.8389 53.8672C95.8753 53.9082 95.889 53.9606 95.8799 54.0244C95.8617 54.1566 95.7956 54.2865 95.6816 54.4141C95.5677 54.5417 95.4242 54.6647 95.251 54.7832C95.0778 54.9017 94.8841 55.0156 94.6699 55.125C94.4557 55.2344 94.237 55.3392 94.0137 55.4395C93.7904 55.5352 93.5716 55.624 93.3574 55.7061C93.1432 55.7835 92.9518 55.8519 92.7832 55.9111C92.3639 56.057 91.9561 56.1641 91.5596 56.2324C91.1631 56.3008 90.8076 56.335 90.4932 56.335C90.1468 56.335 89.8802 56.2689 89.6934 56.1367C89.5111 56.0091 89.4199 55.7949 89.4199 55.4941ZM103.864 56.0752C103.769 56.0752 103.684 56.057 103.611 56.0205C103.538 55.984 103.477 55.9362 103.427 55.877C103.381 55.8177 103.345 55.7493 103.317 55.6719C103.295 55.5944 103.283 55.5169 103.283 55.4395C103.283 55.3711 103.301 55.2777 103.338 55.1592C103.374 55.0361 103.42 54.8994 103.475 54.749C103.534 54.5986 103.598 54.4414 103.666 54.2773C103.734 54.1133 103.8 53.9561 103.864 53.8057C103.928 53.6553 103.983 53.5163 104.028 53.3887C104.074 53.2611 104.106 53.1608 104.124 53.0879C104.142 53.0059 104.165 52.9079 104.192 52.7939C104.22 52.68 104.249 52.557 104.281 52.4248C104.318 52.2881 104.352 52.1468 104.384 52.001C104.42 51.8506 104.457 51.7002 104.493 51.5498C104.429 51.5635 104.35 51.5771 104.254 51.5908C104.163 51.5999 104.065 51.609 103.96 51.6182C103.81 51.6318 103.661 51.6523 103.516 51.6797C103.37 51.707 103.219 51.7389 103.064 51.7754C102.914 51.8073 102.757 51.8438 102.593 51.8848C102.429 51.9212 102.253 51.96 102.066 52.001C101.793 52.0602 101.52 52.1263 101.246 52.1992C100.973 52.2721 100.688 52.3086 100.392 52.3086C100.3 52.3086 100.216 52.2858 100.139 52.2402C100.061 52.1901 99.9746 52.1536 99.8789 52.1309C99.7878 52.2767 99.7012 52.4339 99.6191 52.6025C99.5371 52.7666 99.4619 52.9375 99.3936 53.1152C99.3252 53.2884 99.2637 53.4616 99.209 53.6348C99.1543 53.8034 99.1064 53.9629 99.0654 54.1133C99.0426 54.1953 99.0221 54.3024 99.0039 54.4346C98.9902 54.5622 98.9766 54.6943 98.9629 54.8311C98.9492 54.9632 98.9355 55.0908 98.9219 55.2139C98.9082 55.3369 98.8945 55.4349 98.8809 55.5078C98.8672 55.5762 98.8398 55.6445 98.7988 55.7129C98.7578 55.7767 98.7077 55.8359 98.6484 55.8906C98.5892 55.9453 98.5231 55.9886 98.4502 56.0205C98.3773 56.057 98.3044 56.0752 98.2314 56.0752C98.1038 56.0752 97.999 56.0387 97.917 55.9658C97.8395 55.8883 97.7757 55.7949 97.7256 55.6855C97.68 55.5716 97.6481 55.4486 97.6299 55.3164C97.6117 55.1842 97.6025 55.0635 97.6025 54.9541C97.6025 54.6761 97.6367 54.389 97.7051 54.0928C97.7734 53.792 97.8646 53.4889 97.9785 53.1836C98.097 52.8737 98.2337 52.5638 98.3887 52.2539C98.5482 51.9395 98.7191 51.6273 98.9014 51.3174C99.0518 51.0394 99.2386 50.7181 99.4619 50.3535C99.6852 49.9889 99.9336 49.6152 100.207 49.2324C100.485 48.8451 100.784 48.4668 101.103 48.0977C101.426 47.7285 101.761 47.4004 102.107 47.1133C102.454 46.8216 102.809 46.5869 103.174 46.4092C103.538 46.2314 103.901 46.1426 104.261 46.1426C104.639 46.1426 104.953 46.2109 105.204 46.3477C105.459 46.4844 105.662 46.6689 105.812 46.9014C105.963 47.1338 106.068 47.4049 106.127 47.7148C106.191 48.0247 106.223 48.3529 106.223 48.6992C106.223 49.0046 106.202 49.319 106.161 49.6426C106.125 49.9661 106.077 50.2829 106.018 50.5928C105.963 50.9027 105.901 51.2012 105.833 51.4883C105.769 51.7754 105.71 52.0352 105.655 52.2676L105.416 53.1973C105.407 53.2246 105.389 53.2793 105.361 53.3613C105.339 53.4434 105.307 53.5436 105.266 53.6621C105.229 53.776 105.186 53.9014 105.136 54.0381C105.09 54.1702 105.042 54.3024 104.992 54.4346C104.947 54.5622 104.901 54.6807 104.855 54.79C104.814 54.8994 104.778 54.9883 104.746 55.0566L104.753 55.0498C104.721 55.1683 104.687 55.2891 104.65 55.4121C104.614 55.5352 104.564 55.6468 104.5 55.7471C104.436 55.8428 104.354 55.9225 104.254 55.9863C104.154 56.0456 104.024 56.0752 103.864 56.0752ZM104.213 47.5166C104.008 47.5166 103.803 47.5599 103.598 47.6465C103.397 47.7285 103.199 47.8379 103.003 47.9746C102.807 48.1113 102.616 48.2708 102.429 48.4531C102.246 48.6354 102.071 48.8223 101.902 49.0137C101.738 49.2051 101.583 49.3988 101.438 49.5947C101.292 49.7861 101.16 49.9639 101.041 50.1279C101.023 50.1553 100.998 50.1917 100.966 50.2373C100.938 50.2783 100.909 50.3262 100.877 50.3809C100.85 50.431 100.822 50.4857 100.795 50.5449C100.768 50.5996 100.745 50.6497 100.727 50.6953H101.431C101.686 50.6953 101.978 50.6771 102.306 50.6406C102.634 50.6042 102.957 50.5609 103.276 50.5107C103.6 50.4606 103.896 50.4105 104.165 50.3604C104.434 50.3057 104.637 50.2646 104.773 50.2373C104.792 50.1781 104.808 50.0983 104.821 49.998C104.84 49.8978 104.855 49.7861 104.869 49.6631C104.883 49.54 104.892 49.4102 104.896 49.2734C104.906 49.1322 104.91 48.9886 104.91 48.8428C104.91 48.7243 104.906 48.5898 104.896 48.4395C104.887 48.2845 104.86 48.1387 104.814 48.002C104.769 47.8652 104.698 47.7513 104.603 47.6602C104.511 47.5645 104.382 47.5166 104.213 47.5166ZM107.474 54.4209C107.629 54.4756 107.786 54.5394 107.945 54.6123C108.109 54.6852 108.278 54.7559 108.451 54.8242C108.624 54.888 108.804 54.9427 108.991 54.9883C109.183 55.0339 109.385 55.0566 109.6 55.0566C109.85 55.0566 110.103 55.027 110.358 54.9678C110.614 54.9085 110.862 54.8219 111.104 54.708C111.35 54.5895 111.584 54.4482 111.808 54.2842C112.031 54.1156 112.236 53.9219 112.423 53.7031C112.628 53.4707 112.799 53.2611 112.936 53.0742C113.072 52.8828 113.182 52.7142 113.264 52.5684C113.35 52.418 113.412 52.2904 113.448 52.1855C113.485 52.0762 113.503 51.9827 113.503 51.9053C113.503 51.7913 113.464 51.6934 113.387 51.6113C113.309 51.5247 113.204 51.4541 113.072 51.3994C112.945 51.3447 112.799 51.306 112.635 51.2832C112.471 51.2559 112.3 51.2422 112.122 51.2422C112.017 51.2422 111.894 51.2467 111.753 51.2559C111.612 51.2604 111.468 51.2673 111.322 51.2764C111.176 51.2809 111.035 51.2855 110.898 51.29C110.762 51.2946 110.643 51.2969 110.543 51.2969C110.393 51.2969 110.235 51.2809 110.071 51.249C109.912 51.2126 109.755 51.1556 109.6 51.0781C109.445 51.0007 109.301 50.8958 109.169 50.7637C109.037 50.6315 108.927 50.4674 108.841 50.2715C108.813 50.2077 108.788 50.1325 108.766 50.0459C108.743 49.9593 108.731 49.8659 108.731 49.7656C108.731 49.6562 108.738 49.5537 108.752 49.458C108.77 49.3577 108.791 49.262 108.813 49.1709C108.877 48.943 108.982 48.7129 109.128 48.4805C109.278 48.2435 109.456 48.0133 109.661 47.79C109.871 47.5667 110.096 47.3503 110.338 47.1406C110.584 46.931 110.835 46.735 111.09 46.5527C111.35 46.3659 111.603 46.1995 111.849 46.0537C112.099 45.9033 112.332 45.7757 112.546 45.6709C112.847 45.5251 113.152 45.4202 113.462 45.3564C113.776 45.2881 114.086 45.2539 114.392 45.2539C114.574 45.2539 114.747 45.279 114.911 45.3291C115.075 45.3747 115.219 45.443 115.342 45.5342C115.469 45.6253 115.57 45.7393 115.643 45.876C115.715 46.0081 115.752 46.1608 115.752 46.334C115.752 46.4342 115.741 46.5186 115.718 46.5869C115.695 46.6553 115.665 46.7122 115.629 46.7578C115.592 46.7988 115.551 46.8285 115.506 46.8467C115.465 46.8649 115.422 46.874 115.376 46.874C115.253 46.874 115.139 46.8604 115.034 46.833C114.934 46.8057 114.836 46.776 114.74 46.7441C114.645 46.7077 114.549 46.6758 114.453 46.6484C114.357 46.6165 114.253 46.6006 114.139 46.6006C113.801 46.6006 113.457 46.6689 113.106 46.8057C112.76 46.9378 112.421 47.1087 112.088 47.3184C111.76 47.5234 111.448 47.7536 111.151 48.0088C110.86 48.264 110.598 48.5124 110.365 48.7539C110.242 48.8815 110.151 49.0091 110.092 49.1367C110.037 49.2643 110.01 49.3851 110.01 49.499C110.01 49.6676 110.083 49.7998 110.229 49.8955C110.374 49.9912 110.552 50.0391 110.762 50.0391C110.885 50.0391 111.024 50.0368 111.179 50.0322C111.334 50.0277 111.491 50.0231 111.65 50.0186C111.814 50.0094 111.972 50.0026 112.122 49.998C112.277 49.9889 112.414 49.9844 112.532 49.9844C112.815 49.9844 113.086 50.0254 113.346 50.1074C113.605 50.1849 113.836 50.3011 114.036 50.4561C114.237 50.611 114.396 50.8047 114.515 51.0371C114.638 51.265 114.699 51.527 114.699 51.8232C114.699 52.0055 114.672 52.1901 114.617 52.377C114.562 52.5638 114.487 52.7529 114.392 52.9443C114.296 53.1312 114.187 53.318 114.063 53.5049C113.94 53.6872 113.811 53.8672 113.674 54.0449C113.428 54.3639 113.152 54.6647 112.847 54.9473C112.546 55.2298 112.225 55.4759 111.883 55.6855C111.541 55.8952 111.179 56.0615 110.796 56.1846C110.418 56.3076 110.028 56.3691 109.627 56.3691C109.454 56.3691 109.276 56.3532 109.094 56.3213C108.911 56.2894 108.731 56.2415 108.554 56.1777C108.376 56.1185 108.207 56.0433 108.048 55.9521C107.893 55.8564 107.756 55.7493 107.638 55.6309C107.519 55.5124 107.424 55.3825 107.351 55.2412C107.282 55.0954 107.248 54.9382 107.248 54.7695C107.248 54.6875 107.259 54.61 107.282 54.5371C107.31 54.4596 107.373 54.4209 107.474 54.4209Z" fill="#211F22"/>
</svg>
