<svg width="114" height="21" viewBox="0 0 114 21" fill="none" xmlns="http://www.w3.org/2000/svg">
<path d="M7.224 2.96H9.048L16.008 20H13.704L11.688 15.008H4.536L2.544 20H0.24L7.224 2.96ZM11.208 13.328L8.136 5.456L4.968 13.328H11.208ZM23.1152 20.24C22.1712 20.24 21.3072 20.072 20.5232 19.736C19.7552 19.384 19.0832 18.904 18.5072 18.296C17.9472 17.688 17.5072 16.992 17.1872 16.208C16.8832 15.424 16.7312 14.592 16.7312 13.712C16.7312 12.528 16.9952 11.448 17.5232 10.472C18.0512 9.496 18.7952 8.72 19.7552 8.144C20.7152 7.552 21.8272 7.256 23.0912 7.256C24.3232 7.256 25.3952 7.536 26.3072 8.096C27.2352 8.64 27.9232 9.376 28.3712 10.304L26.3072 10.952C25.9872 10.36 25.5392 9.904 24.9632 9.584C24.3872 9.248 23.7472 9.08 23.0432 9.08C22.2752 9.08 21.5712 9.28 20.9312 9.68C20.3072 10.08 19.8112 10.632 19.4432 11.336C19.0752 12.024 18.8912 12.816 18.8912 13.712C18.8912 14.592 19.0752 15.392 19.4432 16.112C19.8272 16.816 20.3312 17.376 20.9552 17.792C21.5952 18.208 22.2992 18.416 23.0672 18.416C23.5632 18.416 24.0352 18.328 24.4832 18.152C24.9472 17.976 25.3472 17.744 25.6832 17.456C26.0352 17.152 26.2752 16.824 26.4032 16.472L28.4672 17.096C28.2112 17.704 27.8192 18.248 27.2912 18.728C26.7792 19.192 26.1632 19.56 25.4432 19.832C24.7392 20.104 23.9632 20.24 23.1152 20.24ZM36.2871 20.24C35.3431 20.24 34.4791 20.072 33.6951 19.736C32.9271 19.384 32.2551 18.912 31.6791 18.32C31.1191 17.712 30.6791 17.016 30.3591 16.232C30.0551 15.448 29.9031 14.616 29.9031 13.736C29.9031 12.552 30.1751 11.472 30.7191 10.496C31.2631 9.52 32.0151 8.736 32.9751 8.144C33.9511 7.552 35.0631 7.256 36.3111 7.256C37.5751 7.256 38.6711 7.56 39.5991 8.168C40.5431 8.76 41.2711 9.544 41.7831 10.52C42.3111 11.48 42.5751 12.52 42.5751 13.64C42.5751 13.8 42.5671 13.96 42.5511 14.12C42.5511 14.264 42.5431 14.376 42.5271 14.456H32.1351C32.1991 15.272 32.4231 16 32.8071 16.64C33.2071 17.264 33.7191 17.76 34.3431 18.128C34.9671 18.48 35.6391 18.656 36.3591 18.656C37.1271 18.656 37.8471 18.464 38.5191 18.08C39.2071 17.696 39.6791 17.192 39.9351 16.568L41.7591 17.072C41.4871 17.68 41.0791 18.224 40.5351 18.704C40.0071 19.184 39.3751 19.56 38.6391 19.832C37.9191 20.104 37.1351 20.24 36.2871 20.24ZM32.0631 12.992H40.6071C40.5431 12.176 40.3111 11.456 39.9111 10.832C39.5111 10.208 38.9991 9.72 38.3751 9.368C37.7511 9.016 37.0631 8.84 36.3111 8.84C35.5751 8.84 34.8951 9.016 34.2711 9.368C33.6471 9.72 33.1351 10.208 32.7351 10.832C32.3511 11.456 32.1271 12.176 32.0631 12.992ZM49.2188 20.24C48.1788 20.24 47.2028 20.072 46.2908 19.736C45.3788 19.384 44.5948 18.864 43.9388 18.176L44.7548 16.688C45.4748 17.36 46.1948 17.84 46.9148 18.128C47.6348 18.416 48.3708 18.56 49.1228 18.56C49.9868 18.56 50.6908 18.4 51.2348 18.08C51.7788 17.744 52.0508 17.256 52.0508 16.616C52.0508 16.152 51.9068 15.808 51.6188 15.584C51.3468 15.36 50.9548 15.176 50.4428 15.032C49.9308 14.872 49.3228 14.696 48.6188 14.504C47.7548 14.248 47.0268 13.976 46.4348 13.688C45.8428 13.4 45.3948 13.04 45.0908 12.608C44.7868 12.176 44.6348 11.632 44.6348 10.976C44.6348 10.176 44.8428 9.504 45.2588 8.96C45.6748 8.4 46.2428 7.976 46.9628 7.688C47.6988 7.4 48.5308 7.256 49.4588 7.256C50.3868 7.256 51.2268 7.4 51.9788 7.688C52.7308 7.976 53.3788 8.4 53.9228 8.96L52.9628 10.424C52.4668 9.912 51.9228 9.536 51.3308 9.296C50.7388 9.04 50.0748 8.912 49.3388 8.912C48.9068 8.912 48.4828 8.968 48.0668 9.08C47.6508 9.176 47.3068 9.36 47.0348 9.632C46.7628 9.888 46.6268 10.256 46.6268 10.736C46.6268 11.136 46.7308 11.456 46.9388 11.696C47.1628 11.92 47.4828 12.112 47.8988 12.272C48.3308 12.432 48.8508 12.608 49.4588 12.8C50.4028 13.072 51.2188 13.344 51.9068 13.616C52.6108 13.888 53.1548 14.24 53.5388 14.672C53.9228 15.104 54.1148 15.704 54.1148 16.472C54.1148 17.656 53.6668 18.584 52.7708 19.256C51.8748 19.912 50.6908 20.24 49.2188 20.24ZM60.9375 20.24C59.8975 20.24 58.9215 20.072 58.0095 19.736C57.0975 19.384 56.3135 18.864 55.6575 18.176L56.4735 16.688C57.1935 17.36 57.9135 17.84 58.6335 18.128C59.3535 18.416 60.0895 18.56 60.8415 18.56C61.7055 18.56 62.4095 18.4 62.9535 18.08C63.4975 17.744 63.7695 17.256 63.7695 16.616C63.7695 16.152 63.6255 15.808 63.3375 15.584C63.0655 15.36 62.6735 15.176 62.1615 15.032C61.6495 14.872 61.0415 14.696 60.3375 14.504C59.4735 14.248 58.7455 13.976 58.1535 13.688C57.5615 13.4 57.1135 13.04 56.8095 12.608C56.5055 12.176 56.3535 11.632 56.3535 10.976C56.3535 10.176 56.5615 9.504 56.9775 8.96C57.3935 8.4 57.9615 7.976 58.6815 7.688C59.4175 7.4 60.2495 7.256 61.1775 7.256C62.1055 7.256 62.9455 7.4 63.6975 7.688C64.4495 7.976 65.0975 8.4 65.6415 8.96L64.6815 10.424C64.1855 9.912 63.6415 9.536 63.0495 9.296C62.4575 9.04 61.7935 8.912 61.0575 8.912C60.6255 8.912 60.2015 8.968 59.7855 9.08C59.3695 9.176 59.0255 9.36 58.7535 9.632C58.4815 9.888 58.3455 10.256 58.3455 10.736C58.3455 11.136 58.4495 11.456 58.6575 11.696C58.8815 11.92 59.2015 12.112 59.6175 12.272C60.0495 12.432 60.5695 12.608 61.1775 12.8C62.1215 13.072 62.9375 13.344 63.6255 13.616C64.3295 13.888 64.8735 14.24 65.2575 14.672C65.6415 15.104 65.8335 15.704 65.8335 16.472C65.8335 17.656 65.3855 18.584 64.4895 19.256C63.5935 19.912 62.4095 20.24 60.9375 20.24ZM67.3763 16.376C67.3763 15.576 67.6003 14.888 68.0483 14.312C68.5123 13.72 69.1443 13.264 69.9443 12.944C70.7443 12.624 71.6723 12.464 72.7283 12.464C73.2883 12.464 73.8803 12.512 74.5043 12.608C75.1283 12.688 75.6803 12.816 76.1603 12.992V12.08C76.1603 11.12 75.8723 10.368 75.2963 9.824C74.7203 9.264 73.9043 8.984 72.8483 8.984C72.1603 8.984 71.4963 9.112 70.8563 9.368C70.2323 9.608 69.5683 9.96 68.8643 10.424L68.0963 8.936C68.9123 8.376 69.7283 7.96 70.5443 7.688C71.3603 7.4 72.2083 7.256 73.0883 7.256C74.6883 7.256 75.9523 7.704 76.8803 8.6C77.8083 9.48 78.2723 10.712 78.2723 12.296V17.6C78.2723 17.856 78.3203 18.048 78.4163 18.176C78.5283 18.288 78.7043 18.352 78.9443 18.368V20C78.7363 20.032 78.5523 20.056 78.3923 20.072C78.2483 20.088 78.1283 20.096 78.0323 20.096C77.5363 20.096 77.1603 19.96 76.9043 19.688C76.6643 19.416 76.5283 19.128 76.4963 18.824L76.4483 18.032C75.9043 18.736 75.1923 19.28 74.3123 19.664C73.4323 20.048 72.5603 20.24 71.6963 20.24C70.8643 20.24 70.1203 20.072 69.4643 19.736C68.8083 19.384 68.2963 18.92 67.9283 18.344C67.5603 17.752 67.3763 17.096 67.3763 16.376ZM75.5363 17.264C75.7283 17.04 75.8803 16.816 75.9923 16.592C76.1043 16.352 76.1603 16.152 76.1603 15.992V14.432C75.6643 14.24 75.1443 14.096 74.6003 14C74.0563 13.888 73.5203 13.832 72.9922 13.832C71.9203 13.832 71.0483 14.048 70.3763 14.48C69.7203 14.896 69.3923 15.472 69.3923 16.208C69.3923 16.608 69.4963 17 69.7043 17.384C69.9283 17.752 70.2483 18.056 70.6643 18.296C71.0963 18.536 71.6243 18.656 72.2483 18.656C72.9043 18.656 73.5283 18.528 74.1203 18.272C74.7123 18 75.1843 17.664 75.5363 17.264Z" fill="#454545"/>
<path d="M81.5923 20V0.829999H89.8543C90.7903 0.829999 91.6543 1.019 92.4463 1.397C93.2383 1.775 93.9223 2.288 94.4983 2.936C95.0743 3.566 95.5153 4.277 95.8213 5.069C96.1453 5.861 96.3073 6.662 96.3073 7.472C96.3073 8.606 96.0373 9.677 95.4973 10.685C94.9753 11.693 94.2373 12.521 93.2833 13.169C92.3473 13.799 91.2493 14.114 89.9893 14.114H86.8573V20H81.5923ZM86.8573 9.524H89.6383C89.8543 9.524 90.0613 9.461 90.2593 9.335C90.4573 9.209 90.6193 8.993 90.7453 8.687C90.8893 8.381 90.9613 7.976 90.9613 7.472C90.9613 6.932 90.8803 6.518 90.7183 6.23C90.5743 5.924 90.3853 5.717 90.1513 5.609C89.9353 5.483 89.7193 5.42 89.5033 5.42H86.8573V9.524Z" fill="#18B814"/>
<path d="M113.346 5.42H107.838V20H102.573V5.42H97.0376V0.829999H113.346V5.42Z" fill="#B81414"/>
</svg>
